<svg xmlns="http://www.w3.org/2000/svg" xmlns:xlink="http://www.w3.org/1999/xlink" width="88" height="88" viewBox="0 0 88 88">
  <defs>
    <clipPath id="clip-path">
      <rect id="Rectángulo_406966" data-name="Rectángulo 406966" width="88" height="88" transform="translate(229.051 2884)" fill="#fff" stroke="#f5f5f5" stroke-width="1"/>
    </clipPath>
  </defs>
  <g id="Enmascarar_grupo_70" data-name="Enmascarar grupo 70" transform="translate(-229.051 -2884)" clip-path="url(#clip-path)">
    <g id="materias-primas" transform="translate(229.051 2884.121)">
      <g id="Grupo_1110509" data-name="Grupo 1110509">
        <path id="Trazado_877695" data-name="Trazado 877695" d="M76,31.834l-4.141-6.147a2.5,2.5,0,0,0-3.737-.241L66.35,22.768a2.325,2.325,0,0,0-3.572-.345l-2.8,2.8a2.325,2.325,0,0,0,.345,3.572l6.068,4.088a2.329,2.329,0,0,0,3.022-.231l1.093-1.093,3.47,2.337A1.476,1.476,0,0,0,76,31.834Z" fill="none" stroke="#f5f5f5" stroke-linecap="round" stroke-linejoin="round" stroke-miterlimit="10" stroke-width="2.578"/>
        <path id="Trazado_877696" data-name="Trazado 877696" d="M29.852,20.722a7.4,7.4,0,0,0-10.155.006,6.105,6.105,0,0,0-6.107,6.006,5.323,5.323,0,0,0,5.026,5.493H30.907a5.32,5.32,0,0,0,5.026-5.493A6,6,0,0,0,29.852,20.722Z" fill="none" stroke="#f5f5f5" stroke-linecap="round" stroke-linejoin="round" stroke-miterlimit="10" stroke-width="2.578"/>
        <g id="Grupo_1110508" data-name="Grupo 1110508">
          <path id="Trazado_877697" data-name="Trazado 877697" d="M76.8,15.952h5.156a4.753,4.753,0,0,0,0-9.506H53.6a4.753,4.753,0,0,0,0,9.506h5.156" fill="none" stroke="#f5f5f5" stroke-linecap="round" stroke-linejoin="round" stroke-miterlimit="10" stroke-width="2.578"/>
          <path id="Trazado_877698" data-name="Trazado 877698" d="M44,37.383A128.538,128.538,0,0,0,39.99,15.2H40a3.519,3.519,0,1,0,.052-7.037H9.752a3.583,3.583,0,0,0-3.6,3.587A3.518,3.518,0,0,0,9.671,15.2h.061a128.326,128.326,0,0,0-4.4,32.665h-.53a3.5,3.5,0,1,0,.041,7.009H26.73" fill="none" stroke="#f5f5f5" stroke-linecap="round" stroke-linejoin="round" stroke-miterlimit="10" stroke-width="2.578" stroke-dasharray="270 30 999 0 1000 0"/>
          <path id="Trazado_877699" data-name="Trazado 877699" d="M31.886,77.2H26.73a4.753,4.753,0,1,0,0,9.506H61.27a4.753,4.753,0,0,0,0-9.506H56.114" fill="none" stroke="#f5f5f5" stroke-linecap="round" stroke-linejoin="round" stroke-miterlimit="10" stroke-width="2.578" stroke-dasharray="270 30 999 0 1000 0"/>
          <path id="Trazado_877700" data-name="Trazado 877700" d="M56.114,46.889H61.27a4.753,4.753,0,1,0,0-9.506H26.73a4.753,4.753,0,1,0,0,9.506h5.156" fill="none" stroke="#f5f5f5" stroke-linecap="round" stroke-linejoin="round" stroke-miterlimit="10" stroke-width="2.578"/>
        </g>
      </g>
      <path id="Trazado_877701" data-name="Trazado 877701" d="M40.051,8.164l1.375-4.106a1.918,1.918,0,0,0-3.141-1.993h0a2.72,2.72,0,0,1-3.834.014,2.7,2.7,0,0,0-3.819,0,2.694,2.694,0,0,1-2.356.751,2.687,2.687,0,0,1-1.463-.752,2.7,2.7,0,0,0-3.819,0,2.7,2.7,0,0,1-3.819,0,2.7,2.7,0,0,0-3.819,0,2.72,2.72,0,0,1-3.834-.015h0A1.919,1.919,0,0,0,8.376,4.057L9.752,8.164" fill="none" stroke="#f5f5f5" stroke-linecap="round" stroke-linejoin="round" stroke-miterlimit="10" stroke-width="2.578"/>
      <path id="Trazado_877702" data-name="Trazado 877702" d="M80.156,6.445A5.156,5.156,0,0,0,75,1.289H73.281a5.156,5.156,0,0,0-5.156,5.156" fill="none" stroke="#f5f5f5" stroke-linecap="round" stroke-linejoin="round" stroke-miterlimit="10" stroke-width="2.578"/>
      <line id="Línea_166" data-name="Línea 166" y2="3.321" transform="translate(19.696 20.727)" fill="none" stroke="#f5f5f5" stroke-linecap="round" stroke-linejoin="round" stroke-miterlimit="10" stroke-width="2.578"/>
      <line id="Línea_167" data-name="Línea 167" y2="3.326" transform="translate(29.852 20.722)" fill="none" stroke="#f5f5f5" stroke-linecap="round" stroke-linejoin="round" stroke-miterlimit="10" stroke-width="2.578"/>
      <line id="Línea_168" data-name="Línea 168" y2="3.385" transform="translate(24.777 18.707)" fill="none" stroke="#f5f5f5" stroke-linecap="round" stroke-linejoin="round" stroke-miterlimit="10" stroke-width="2.578"/>
      <line id="Línea_169" data-name="Línea 169" x2="5.5" transform="translate(9.671 15.201)" fill="none" stroke="#f5f5f5" stroke-linecap="round" stroke-linejoin="round" stroke-miterlimit="10" stroke-width="2.578"/>
      <line id="Línea_170" data-name="Línea 170" x1="5.5" transform="translate(34.499 15.201)" fill="none" stroke="#f5f5f5" stroke-linecap="round" stroke-linejoin="round" stroke-miterlimit="10" stroke-width="2.578"/>
      <line id="Línea_171" data-name="Línea 171" x2="5.5" transform="translate(5.336 47.867)" fill="none" stroke="#f5f5f5" stroke-linecap="round" stroke-linejoin="round" stroke-miterlimit="10" stroke-width="2.578"/>
      <path id="Trazado_877703" data-name="Trazado 877703" d="M53.6,15.952v10.4a6.706,6.706,0,0,0-1.874,5.87" fill="none" stroke="#f5f5f5" stroke-linecap="round" stroke-linejoin="round" stroke-miterlimit="10" stroke-width="2.578"/>
      <path id="Trazado_877704" data-name="Trazado 877704" d="M81.958,46.889V35.863a6.722,6.722,0,0,0,0-9.506v-10.4" fill="none" stroke="#f5f5f5" stroke-linecap="round" stroke-linejoin="round" stroke-miterlimit="10" stroke-width="2.578"/>
      <line id="Línea_172" data-name="Línea 172" x2="1.375" transform="translate(53.605 26.356)" fill="none" stroke="#f5f5f5" stroke-linecap="round" stroke-linejoin="round" stroke-miterlimit="10" stroke-width="2.578"/>
      <line id="Línea_173" data-name="Línea 173" x1="1.375" transform="translate(80.583 26.356)" fill="none" stroke="#f5f5f5" stroke-linecap="round" stroke-linejoin="round" stroke-miterlimit="10" stroke-width="2.578"/>
      <line id="Línea_174" data-name="Línea 174" x1="1.375" transform="translate(80.583 35.863)" fill="none" stroke="#f5f5f5" stroke-linecap="round" stroke-linejoin="round" stroke-miterlimit="10" stroke-width="2.578"/>
      <path id="Trazado_877705" data-name="Trazado 877705" d="M61.27,77.2V66.8a6.722,6.722,0,0,0,0-9.507v-10.4" fill="none" stroke="#f5f5f5" stroke-linecap="round" stroke-linejoin="round" stroke-miterlimit="10" stroke-width="2.578"/>
      <path id="Trazado_877706" data-name="Trazado 877706" d="M26.73,46.889v10.4a6.722,6.722,0,0,0,0,9.507V77.2" fill="none" stroke="#f5f5f5" stroke-linecap="round" stroke-linejoin="round" stroke-miterlimit="10" stroke-width="2.578"/>
      <path id="Trazado_877707" data-name="Trazado 877707" d="M61.27,56.4H81.958a4.753,4.753,0,0,0,0-9.506H70.036" fill="none" stroke="#f5f5f5" stroke-linecap="round" stroke-linejoin="round" stroke-miterlimit="10" stroke-width="2.578"/>
      <line id="Línea_175" data-name="Línea 175" x2="1.719" transform="translate(26.73 57.294)" fill="none" stroke="#f5f5f5" stroke-linecap="round" stroke-linejoin="round" stroke-miterlimit="10" stroke-width="2.578"/>
      <line id="Línea_176" data-name="Línea 176" x2="1.719" transform="translate(26.73 66.8)" fill="none" stroke="#f5f5f5" stroke-linecap="round" stroke-linejoin="round" stroke-miterlimit="10" stroke-width="2.578"/>
      <line id="Línea_177" data-name="Línea 177" x1="1.719" transform="translate(59.551 57.294)" fill="none" stroke="#f5f5f5" stroke-linecap="round" stroke-linejoin="round" stroke-miterlimit="10" stroke-width="2.578"/>
      <line id="Línea_178" data-name="Línea 178" x1="1.719" transform="translate(59.551 66.8)" fill="none" stroke="#f5f5f5" stroke-linecap="round" stroke-linejoin="round" stroke-miterlimit="10" stroke-width="2.578"/>
      <path id="Trazado_877708" data-name="Trazado 877708" d="M45.457,52.787a2.013,2.013,0,0,0-2.914,0c-2.809,2.958-6.277,7.614-6.277,11.41a7.734,7.734,0,0,0,15.469,0C51.734,60.258,48.19,55.653,45.457,52.787Z" fill="none" stroke="#f5f5f5" stroke-linecap="round" stroke-linejoin="round" stroke-miterlimit="10" stroke-width="2.578"/>
      <path id="Trazado_877709" data-name="Trazado 877709" d="M59.469,37.383a5.156,5.156,0,0,0-5.156-5.156H49.156A5.156,5.156,0,0,0,44,37.383" fill="none" stroke="#f5f5f5" stroke-linecap="round" stroke-linejoin="round" stroke-miterlimit="10" stroke-width="2.578"/>
    </g>
  </g>
</svg>
