<svg xmlns="http://www.w3.org/2000/svg" xmlns:xlink="http://www.w3.org/1999/xlink" width="88" height="88" viewBox="0 0 88 88">
  <defs>
    <clipPath id="clip-path">
      <rect id="Rectángulo_406968" data-name="Rectángulo 406968" width="88" height="88" transform="translate(240.051 10805)" fill="#fff" stroke="#f5f5f5" stroke-width="1"/>
    </clipPath>
  </defs>
  <g id="Enmascarar_grupo_75" data-name="Enmascarar grupo 75" transform="translate(-240.051 -10805)" clip-path="url(#clip-path)">
    <path id="logistica-inversa_1_" data-name="logistica-inversa (1)" d="M69.869,58.062H65.3a6.184,6.184,0,0,0-12.078,0h-8.96V34.575h25.6Zm-10.6,4.851a3.517,3.517,0,1,0-3.517-3.519,3.523,3.523,0,0,0,3.517,3.519Zm-24.488-9.7a6.2,6.2,0,0,0-6.038,4.85H28.3l.006-8.744,4.432-5.548a3.321,3.321,0,0,0,.235-.336H41.6V58.062h-.783a6.2,6.2,0,0,0-6.039-4.85Zm0,9.7a3.517,3.517,0,1,0-3.517-3.519A3.523,3.523,0,0,0,34.777,62.913Zm35.16-31.005H44.2a2.6,2.6,0,0,0-2.6,2.6v6.261H32.533a2.173,2.173,0,0,0-1.878,1.339L25.93,48.017a1.328,1.328,0,0,0-.292.831l-.007,10.546a1.333,1.333,0,0,0,1.333,1.334h1.774a6.184,6.184,0,0,0,12.078,0h12.41a6.184,6.184,0,0,0,12.078,0h4.632a2.6,2.6,0,0,0,2.6-2.6V34.506a2.6,2.6,0,0,0-2.6-2.6Zm-12.2,56.624a40.057,40.057,0,0,0,32.938-39.2A39.5,39.5,0,0,0,87.308,33.3a1.333,1.333,0,0,1,.553-1.692l.866-.5-9.436-5.445V36.555l.674-.388a1.333,1.333,0,0,1,1.9.654A33.444,33.444,0,0,1,56.445,82.289l4.05,2.337a1.336,1.336,0,0,1,0,2.31Zm-11.2.363a1.333,1.333,0,0,1,1.19,1.326v1.008l9.435-5.447-9.435-5.448v.77a1.333,1.333,0,0,1-1.516,1.321A33.424,33.424,0,0,1,19.549,37.678L15.5,40.02a1.335,1.335,0,0,1-2-1.156V35.656a39.8,39.8,0,0,0,33.04,53.239Zm.523-12.025,5.486,3.167A30.777,30.777,0,0,0,79.937,39.263l-1.311.757a1.335,1.335,0,0,1-2-1.156V32.529a30.748,30.748,0,0,0-49-3.327l1.3.751a1.335,1.335,0,0,1,0,2.31l-5.49,3.17a30.757,30.757,0,0,0,21.621,44.1V78.026a1.335,1.335,0,0,1,2-1.156Zm-30.9-51.207V36.555L25.6,31.108l-.666-.384a1.338,1.338,0,0,1-.384-1.977,33.42,33.42,0,0,1,52.078-.714V23.354a1.335,1.335,0,0,1,2-1.156l2.8,1.615A39.477,39.477,0,0,0,50.871,9.535,39.975,39.975,0,0,0,18.776,25.8a1.332,1.332,0,0,1-1.741.365ZM93.337,49.333a42.157,42.157,0,0,0-3.12-16l1.844-1.065a1.335,1.335,0,0,0,0-2.31l-5.045-2.912a42.448,42.448,0,0,0-69.666-3.774L15.5,22.2a1.335,1.335,0,0,0-2,1.156v5.812A42.476,42.476,0,0,0,45.06,91.4v2.139a1.334,1.334,0,0,0,2,1.154l5.051-2.915A42.462,42.462,0,0,0,93.337,49.333Z" transform="translate(233.179 10798.128)" fill="#fff" fill-rule="evenodd"/>
  </g>
</svg>
