<svg xmlns="http://www.w3.org/2000/svg" xmlns:xlink="http://www.w3.org/1999/xlink" width="63" height="63" viewBox="0 0 63 63">
  <defs>
    <clipPath id="clip-path">
      <rect id="Rectángulo_406963" data-name="Rectángulo 406963" width="63" height="63" transform="translate(349.051 1409)" fill="#fff" stroke="#fff" stroke-width="1"/>
    </clipPath>
    <clipPath id="clip-path-2">
      <path id="path2121" d="M0-63H63V0H0Z" fill="#fff"/>
    </clipPath>
  </defs>
  <g id="Enmascarar_grupo_66" data-name="Enmascarar grupo 66" transform="translate(-349.051 -1409)" clip-path="url(#clip-path)">
    <g id="g2115" transform="translate(349.051 1472)">
      <g id="g2117">
        <g id="g2119" clip-path="url(#clip-path-2)">
          <g id="g2125" transform="translate(20.426 -61.77)">
            <path id="path2127" d="M0,0-7.383,13.658h5.537L0,22.887,7.383,9.967H1.846Z" fill="none" stroke="#fff" stroke-linecap="round" stroke-linejoin="round" stroke-miterlimit="10" stroke-width="2.461"/>
          </g>
          <g id="g2129" transform="translate(5.291 -61.77)">
            <path id="path2131" d="M0,0V56.479H56.479" fill="none" stroke="#fff" stroke-linecap="round" stroke-linejoin="round" stroke-miterlimit="10" stroke-width="2.461"/>
          </g>
          <g id="g2133" transform="translate(1.23 -57.34)">
            <path id="path2135" d="M0,0H4.061" fill="none" stroke="#fff" stroke-linecap="round" stroke-linejoin="round" stroke-miterlimit="10" stroke-width="2.461"/>
          </g>
          <g id="g2137" transform="translate(1.23 -49.957)">
            <path id="path2139" d="M0,0H4.061" fill="none" stroke="#fff" stroke-linecap="round" stroke-linejoin="round" stroke-miterlimit="10" stroke-width="2.461"/>
          </g>
          <g id="g2141" transform="translate(1.23 -42.574)">
            <path id="path2143" d="M0,0H4.061" fill="none" stroke="#fff" stroke-linecap="round" stroke-linejoin="round" stroke-miterlimit="10" stroke-width="2.461"/>
          </g>
          <g id="g2145" transform="translate(1.23 -35.191)">
            <path id="path2147" d="M0,0H4.061" fill="none" stroke="#fff" stroke-linecap="round" stroke-linejoin="round" stroke-miterlimit="10" stroke-width="2.461"/>
          </g>
          <g id="g2149" transform="translate(1.23 -27.809)">
            <path id="path2151" d="M0,0H4.061" fill="none" stroke="#fff" stroke-linecap="round" stroke-linejoin="round" stroke-miterlimit="10" stroke-width="2.461"/>
          </g>
          <g id="g2153" transform="translate(1.23 -20.426)">
            <path id="path2155" d="M0,0H4.061" fill="none" stroke="#fff" stroke-linecap="round" stroke-linejoin="round" stroke-miterlimit="10" stroke-width="2.461"/>
          </g>
          <g id="g2157" transform="translate(1.23 -13.043)">
            <path id="path2159" d="M0,0H4.061" fill="none" stroke="#fff" stroke-linecap="round" stroke-linejoin="round" stroke-miterlimit="10" stroke-width="2.461"/>
          </g>
          <g id="g2161" transform="translate(1.23 -5.291)">
            <path id="path2163" d="M0,0H4.061" fill="none" stroke="#fff" stroke-linecap="round" stroke-linejoin="round" stroke-miterlimit="10" stroke-width="2.461"/>
          </g>
          <g id="g2165" transform="translate(5.291 -1.23)">
            <path id="path2167" d="M0,0V-4.061" fill="none" stroke="#fff" stroke-linecap="round" stroke-linejoin="round" stroke-miterlimit="10" stroke-width="2.461"/>
          </g>
          <g id="g2169" transform="translate(13.043 -1.23)">
            <path id="path2171" d="M0,0V-4.061" fill="none" stroke="#fff" stroke-linecap="round" stroke-linejoin="round" stroke-miterlimit="10" stroke-width="2.461"/>
          </g>
          <g id="g2173" transform="translate(20.426 -1.23)">
            <path id="path2175" d="M0,0V-4.061" fill="none" stroke="#fff" stroke-linecap="round" stroke-linejoin="round" stroke-miterlimit="10" stroke-width="2.461"/>
          </g>
          <g id="g2177" transform="translate(27.809 -1.23)">
            <path id="path2179" d="M0,0V-4.061" fill="none" stroke="#fff" stroke-linecap="round" stroke-linejoin="round" stroke-miterlimit="10" stroke-width="2.461"/>
          </g>
          <g id="g2181" transform="translate(35.191 -1.23)">
            <path id="path2183" d="M0,0V-4.061" fill="none" stroke="#fff" stroke-linecap="round" stroke-linejoin="round" stroke-miterlimit="10" stroke-width="2.461"/>
          </g>
          <g id="g2185" transform="translate(42.574 -1.23)">
            <path id="path2187" d="M0,0V-4.061" fill="none" stroke="#fff" stroke-linecap="round" stroke-linejoin="round" stroke-miterlimit="10" stroke-width="2.461"/>
          </g>
          <g id="g2189" transform="translate(49.957 -1.23)">
            <path id="path2191" d="M0,0V-4.061" fill="none" stroke="#fff" stroke-linecap="round" stroke-linejoin="round" stroke-miterlimit="10" stroke-width="2.461"/>
          </g>
          <g id="g2193" transform="translate(57.34 -1.23)">
            <path id="path2195" d="M0,0V-4.061" fill="none" stroke="#fff" stroke-linecap="round" stroke-linejoin="round" stroke-miterlimit="10" stroke-width="2.461"/>
          </g>
        </g>
      </g>
      <g id="g2197" transform="translate(31.5 -5.291)">
        <path id="path2199" d="M0,0V-22.518H7.383V0" fill="none" stroke="#fff" stroke-linecap="round" stroke-linejoin="round" stroke-miterlimit="10" stroke-width="2.461"/>
      </g>
      <g id="g2201" transform="translate(16.734 -5.291)">
        <path id="path2203" d="M0,0V-15.135H7.383V0" fill="none" stroke="#fff" stroke-linecap="round" stroke-linejoin="round" stroke-miterlimit="10" stroke-width="2.461"/>
      </g>
      <g id="g2205" transform="translate(20.426 -27.809)">
        <path id="path2207" d="M0,0,11.074-11.074h7.383l14.52-14.52" fill="none" stroke="#fff" stroke-linecap="round" stroke-linejoin="round" stroke-miterlimit="10" stroke-width="2.461"/>
      </g>
      <g id="g2209" transform="translate(46.266 -53.648)">
        <path id="path2211" d="M0,0H7.383V7.383" fill="none" stroke="#fff" stroke-linecap="round" stroke-linejoin="round" stroke-miterlimit="10" stroke-width="2.461"/>
      </g>
      <g id="g2213">
        <g id="g2215" clip-path="url(#clip-path-2)">
          <g id="g2221" transform="translate(53.648 -19.195)">
            <path id="path2223" d="M0,0A1.231,1.231,0,0,1-1.23-1.23,1.231,1.231,0,0,1,0-2.461,1.231,1.231,0,0,1,1.23-1.23,1.231,1.231,0,0,1,0,0" fill="#fff"/>
          </g>
          <g id="g2225" transform="translate(46.266 -5.291)">
            <path id="path2227" d="M0,0V-29.9H7.383v9.229" fill="none" stroke="#fff" stroke-linecap="round" stroke-linejoin="round" stroke-miterlimit="10" stroke-width="2.461"/>
          </g>
          <g id="g2229" transform="translate(53.648 -14.889)">
            <path id="path2231" d="M0,0V9.6" fill="none" stroke="#fff" stroke-linecap="round" stroke-linejoin="round" stroke-miterlimit="10" stroke-width="2.461"/>
          </g>
        </g>
      </g>
    </g>
  </g>
</svg>
