<svg xmlns="http://www.w3.org/2000/svg" xmlns:xlink="http://www.w3.org/1999/xlink" width="63" height="63" viewBox="0 0 63 63">
  <defs>
    <clipPath id="clip-path">
      <rect id="Rectángulo_406964" data-name="Rectángulo 406964" width="63" height="63" transform="translate(768.051 1409)" fill="#fff" stroke="#707070" stroke-width="1"/>
    </clipPath>
  </defs>
  <g id="Enmascarar_grupo_67" data-name="Enmascarar grupo 67" transform="translate(-768.051 -1409)" clip-path="url(#clip-path)">
    <g id="ahorra-energia_1_" data-name="ahorra-energia (1)" transform="translate(767.035 1407.984)">
      <path id="Trazado_877681" data-name="Trazado 877681" d="M30.773,14.323A15.293,15.293,0,0,0,17.381,27.637a15.129,15.129,0,0,0,3.449,11.6A16.074,16.074,0,0,1,24.387,49.6v.471a2.026,2.026,0,0,0-1.016,1.75v2.032a2.026,2.026,0,0,0,1.016,1.75v.283a4.064,4.064,0,0,0,3.139,3.948,5.068,5.068,0,0,0,9.979,0,4.064,4.064,0,0,0,3.139-3.948V55.6a2.026,2.026,0,0,0,1.016-1.75V51.821a2.026,2.026,0,0,0-1.016-1.75v-.506a17.471,17.471,0,0,1,3.9-10.754,15.062,15.062,0,0,0,3.211-9.344A15.244,15.244,0,0,0,30.773,14.323Zm1.742,47.66a3.043,3.043,0,0,1-2.861-2.032h5.722A3.043,3.043,0,0,1,32.515,61.983Zm4.064-4.064H28.451a2.035,2.035,0,0,1-2.032-2.032H38.612a2.035,2.035,0,0,1-2.032,2.032ZM25.4,53.854V51.821H39.628v2.032ZM45.725,29.467a13.044,13.044,0,0,1-2.781,8.094,19.483,19.483,0,0,0-4.332,12v.223H33.532v-6.1a1.015,1.015,0,0,0-.3-.718l-3.4-3.4a4.7,4.7,0,0,1-1.386-3.346.668.668,0,0,1,.667-.668h.464a.667.667,0,0,1,.557.3l.13.194a2.7,2.7,0,0,0,4.49,0l.134-.2a.666.666,0,0,1,.555-.3h.464a.668.668,0,0,1,.667.668,4.7,4.7,0,0,1-1.386,3.346l-1.365,1.364,1.437,1.437,1.365-1.364a6.725,6.725,0,0,0,1.981-4.783,2.7,2.7,0,0,0-2.7-2.7h-.464a2.692,2.692,0,0,0-2.244,1.2l-.134.2a.667.667,0,0,1-1.112,0l-.13-.193a2.693,2.693,0,0,0-2.246-1.2h-.464a2.7,2.7,0,0,0-2.7,2.7A6.723,6.723,0,0,0,28.4,41.014l3.1,3.1v5.676H26.419V49.6a18.1,18.1,0,0,0-4.032-11.668,13.205,13.205,0,1,1,23.338-8.465Z" fill="#fff"/>
      <path id="Trazado_877682" data-name="Trazado 877682" d="M14.676,43.587a9.993,9.993,0,0,1,3.689-.914,12.285,12.285,0,0,1,1.877,0l.162-2.026a14.536,14.536,0,0,0-2.188,0,11.982,11.982,0,0,0-4.436,1.116A10.978,10.978,0,0,0,9.3,46.2a14.376,14.376,0,0,0-1.244,2.581A6.108,6.108,0,0,0,1.819,53.33l-.771,2.95a1.016,1.016,0,0,0,.727,1.24l.983.257-.513,1.966,1.967.514.513-1.967,3.932,1.027-.513,1.966,1.967.514.513-1.966.983.257a1.043,1.043,0,0,0,.257.033,1.016,1.016,0,0,0,.982-.759l.771-2.949a6.1,6.1,0,0,0-3.567-7.167,12.4,12.4,0,0,1,.98-1.977,8.942,8.942,0,0,1,3.646-3.68ZM11.651,55.9l-.514,1.967L3.272,55.81l.514-1.967A4.065,4.065,0,1,1,11.651,55.9Z" fill="#fff"/>
      <path id="Trazado_877683" data-name="Trazado 877683" d="M47.119,22.572l1.256,1.6a15.277,15.277,0,0,0,4.355-5.446c.175-.371.316-.758.461-1.144.024,0,.046.01.07.01a.966.966,0,0,0,.107-.006c.278-.029,6.835-.765,9.453-5.168s.133-10.515.026-10.773A1.012,1.012,0,0,0,61.8,1.022c-.269.028-6.41.728-9.178,4.766-2.633-3.385-8.1-3.441-8.33-3.441h0a1.016,1.016,0,0,0-.973.725c-.068.226-1.63,5.59.972,9.078,1.956,2.622,5.614,3.3,7.388,3.483a12.851,12.851,0,0,1-.786,2.222,13.229,13.229,0,0,1-3.774,4.715ZM54.1,7.228c1.628-2.739,5.478-3.745,7.137-4.06.515,1.608,1.47,5.471-.159,8.211-1.209,2.032-3.639,3.108-5.491,3.658l.12-.253A64.625,64.625,0,0,1,60.564,5.92L58.889,4.769a66.34,66.34,0,0,0-5.021,9.144l-.228.479C53.165,12.5,52.755,9.484,54.1,7.228Zm-2.922,3.187c-.528-.673-1.077-1.328-1.651-1.955-.664-.725-1.369-1.431-2.1-2.1l-1.372,1.5c.683.625,1.346,1.288,1.969,1.969a31.681,31.681,0,0,1,2.854,3.641c-1.568-.275-3.764-.936-4.957-2.535-1.493-2-1.12-5.08-.836-6.507,1.448.14,4.5.67,6,2.673a4.4,4.4,0,0,1,.5.869,10.149,10.149,0,0,0-.4,2.444Z" fill="#fff"/>
    </g>
  </g>
</svg>
