<svg xmlns="http://www.w3.org/2000/svg" xmlns:xlink="http://www.w3.org/1999/xlink" width="63" height="63" viewBox="0 0 63 63">
  <defs>
    <clipPath id="clip-path">
      <rect id="Rectángulo_406965" data-name="Rectángulo 406965" width="63" height="63" transform="translate(1197.051 1409)" fill="#fff" stroke="#fff" stroke-width="1"/>
    </clipPath>
  </defs>
  <g id="Enmascarar_grupo_68" data-name="Enmascarar grupo 68" transform="translate(-1197.051 -1409)" clip-path="url(#clip-path)">
    <g id="energia-ecologica" transform="translate(1197.304 1409.506)">
      <path id="Trazado_877684" data-name="Trazado 877684" d="M37.349,56.391a6.256,6.256,0,0,1-12.206,0" fill="none" stroke="#fff" stroke-linejoin="round" stroke-miterlimit="10" stroke-width="2.441"/>
      <path id="Trazado_877685" data-name="Trazado 877685" d="M39.79,51.509v3.662a1.221,1.221,0,0,1-1.221,1.221H23.922A1.221,1.221,0,0,1,22.7,55.171V51.509" fill="none" stroke="#fff" stroke-linejoin="round" stroke-miterlimit="10" stroke-width="2.441"/>
      <path id="Trazado_877686" data-name="Trazado 877686" d="M26.364,1.876A18.314,18.314,0,0,0,17.9,32.061a8.591,8.591,0,0,1,2.363,5.874V39.3A2.441,2.441,0,0,0,22.7,41.744" fill="none" stroke="#fff" stroke-linecap="round" stroke-linejoin="round" stroke-miterlimit="10" stroke-width="2.441"/>
      <path id="Trazado_877687" data-name="Trazado 877687" d="M39.79,41.744A2.441,2.441,0,0,0,42.231,39.3V37.872A8.417,8.417,0,0,1,44.559,32.1,18.313,18.313,0,0,0,36.13,1.879" fill="none" stroke="#fff" stroke-linecap="round" stroke-linejoin="round" stroke-miterlimit="10" stroke-width="2.441"/>
      <path id="Trazado_877688" data-name="Trazado 877688" d="M39.79,46.627H22.7a2.441,2.441,0,0,1-2.441-2.441h0A2.441,2.441,0,0,1,22.7,41.744H39.79a2.441,2.441,0,0,1,2.441,2.441h0A2.441,2.441,0,0,1,39.79,46.627Z" fill="none" stroke="#fff" stroke-linejoin="round" stroke-miterlimit="10" stroke-width="2.441"/>
      <path id="Trazado_877689" data-name="Trazado 877689" d="M39.79,46.627a2.441,2.441,0,0,1,2.441,2.441h0a2.441,2.441,0,0,1-2.441,2.441H22.7a2.441,2.441,0,0,1-2.441-2.441h0A2.441,2.441,0,0,1,22.7,46.627" fill="none" stroke="#fff" stroke-linejoin="round" stroke-miterlimit="10" stroke-width="2.441"/>
      <line id="Línea_156" data-name="Línea 156" y1="8.178" transform="translate(31.246 23.802)" fill="none" stroke="#fff" stroke-linejoin="round" stroke-miterlimit="10" stroke-width="2.441"/>
      <path id="Trazado_877690" data-name="Trazado 877690" d="M37.651,21.663c-2.356,2.356-6.4,2.133-6.4,2.133s-.223-4.043,2.133-6.4,6.4-2.133,6.4-2.133S40.008,19.307,37.651,21.663Z" fill="none" stroke="#fff" stroke-linecap="round" stroke-linejoin="round" stroke-miterlimit="10" stroke-width="2.441"/>
      <path id="Trazado_877691" data-name="Trazado 877691" d="M24.841,21.663c2.356,2.356,6.4,2.133,6.4,2.133s.223-4.043-2.133-6.4-6.4-2.133-6.4-2.133S22.484,19.307,24.841,21.663Z" fill="none" stroke="#fff" stroke-linecap="round" stroke-linejoin="round" stroke-miterlimit="10" stroke-width="2.441"/>
      <path id="Trazado_877692" data-name="Trazado 877692" d="M28.8,41.744V34.421a2.441,2.441,0,0,1,2.441-2.441h0a2.441,2.441,0,0,1,2.441,2.441v7.324" fill="none" stroke="#fff" stroke-linejoin="round" stroke-miterlimit="10" stroke-width="2.441"/>
      <line id="Línea_157" data-name="Línea 157" x1="1.91" y1="1.91" transform="translate(12.937 1.221)" fill="none" stroke="#fff" stroke-linecap="round" stroke-linejoin="round" stroke-miterlimit="10" stroke-width="2.441"/>
      <line id="Línea_158" data-name="Línea 158" x1="2.615" y1="0.701" transform="translate(6.23 12.826)" fill="none" stroke="#fff" stroke-linecap="round" stroke-linejoin="round" stroke-miterlimit="10" stroke-width="2.441"/>
      <line id="Línea_159" data-name="Línea 159" x1="2.615" y2="0.701" transform="translate(6.23 25.532)" fill="none" stroke="#fff" stroke-linecap="round" stroke-linejoin="round" stroke-miterlimit="10" stroke-width="2.441"/>
      <line id="Línea_160" data-name="Línea 160" x1="1.91" y2="1.91" transform="translate(12.937 35.928)" fill="none" stroke="#fff" stroke-linecap="round" stroke-linejoin="round" stroke-miterlimit="10" stroke-width="2.441"/>
      <line id="Línea_161" data-name="Línea 161" x1="1.891" y2="1.891" transform="translate(47.683 1.24)" fill="none" stroke="#fff" stroke-linecap="round" stroke-linejoin="round" stroke-miterlimit="10" stroke-width="2.441"/>
      <line id="Línea_162" data-name="Línea 162" x1="2.579" y2="0.691" transform="translate(53.685 12.836)" fill="none" stroke="#fff" stroke-linecap="round" stroke-linejoin="round" stroke-miterlimit="10" stroke-width="2.441"/>
      <line id="Línea_163" data-name="Línea 163" x1="2.579" y1="0.691" transform="translate(53.685 25.532)" fill="none" stroke="#fff" stroke-linecap="round" stroke-linejoin="round" stroke-miterlimit="10" stroke-width="2.441"/>
      <line id="Línea_164" data-name="Línea 164" x1="1.891" y1="1.891" transform="translate(47.683 35.928)" fill="none" stroke="#fff" stroke-linecap="round" stroke-linejoin="round" stroke-miterlimit="10" stroke-width="2.441"/>
      <line id="Línea_165" data-name="Línea 165" transform="translate(31.246 1.221)" fill="none" stroke="#fff" stroke-linecap="round" stroke-linejoin="round" stroke-miterlimit="10" stroke-width="2.441"/>
    </g>
  </g>
</svg>
