<svg xmlns="http://www.w3.org/2000/svg" xmlns:xlink="http://www.w3.org/1999/xlink" width="65" height="65" viewBox="0 0 65 65">
  <defs>
    <clipPath id="clip-path">
      <rect id="Rectángulo_406947" data-name="Rectángulo 406947" width="65" height="65" transform="translate(458.051 12881)" fill="#004b72"/>
    </clipPath>
  </defs>
  <g id="Enmascarar_grupo_81" data-name="Enmascarar grupo 81" transform="translate(-458.051 -12881)" clip-path="url(#clip-path)">
    <g id="kpi" transform="translate(457.002 12879.951)">
      <path id="Trazado_877899" data-name="Trazado 877899" d="M18.871,15.726a3.145,3.145,0,1,0,3.145,3.145A3.149,3.149,0,0,0,18.871,15.726Zm0,4.194a1.048,1.048,0,1,1,1.048-1.048A1.049,1.049,0,0,1,18.871,19.919Z" fill="#004b72"/>
      <path id="Trazado_877900" data-name="Trazado 877900" d="M27.767,14.424,23.318,9.975l-1.3,1.3V9.435h-6.29v1.843l-1.3-1.3L9.975,14.424l1.3,1.3H9.435v6.29h1.842l-1.3,1.3,4.447,4.448,1.3-1.3v1.842h6.29V26.463l1.3,1.3,4.448-4.448-1.3-1.3h1.842v-6.29H26.464Zm-1.557,5.5H24.094l-.788,1.9,1.5,1.5L23.318,24.8l-1.5-1.5-1.9.789V26.21h-2.1V24.094l-1.9-.789-1.5,1.5L12.94,23.318l1.5-1.5-.788-1.9H11.532v-2.1h2.116l.788-1.9-1.5-1.5,1.482-1.483,1.5,1.5,1.9-.789V11.532h2.1v2.116l1.9.789,1.5-1.5L24.8,14.424l-1.5,1.5.788,1.9H26.21Z" fill="#004b72"/>
      <path id="Trazado_877901" data-name="Trazado 877901" d="M59.758,47.177h2.1v2.1h-2.1Z" fill="#004b72"/>
      <path id="Trazado_877902" data-name="Trazado 877902" d="M55.565,47.177h2.1v2.1h-2.1Z" fill="#004b72"/>
      <path id="Trazado_877903" data-name="Trazado 877903" d="M51.371,47.177h2.1v2.1h-2.1Z" fill="#004b72"/>
      <path id="Trazado_877904" data-name="Trazado 877904" d="M66.048,11.532v-2.1h-2.1V1.048h-2.1V9.435h-2.1v-2.1h-2.1v2.1h-2.1V3.145h-2.1v6.29h-2.1V5.242h-2.1V9.435h-3.9l-1.4,4.194H36.694V7.339a2.1,2.1,0,0,0-2.1-2.1H3.145a2.1,2.1,0,0,0-2.1,2.1V33.7a2.992,2.992,0,0,0,5.669,1.338L7.987,32.5h5.642V56.613a3.149,3.149,0,0,0,3.145,3.145H32.5v4.194H26.21v2.1H53.468v-2.1h-6.29V59.758H62.9a3.149,3.149,0,0,0,3.145-3.145V16.774A3.149,3.149,0,0,0,62.9,13.629H46.186l.7-2.1ZM49.475,23.912a13.539,13.539,0,0,1,3.992,9.637,13.782,13.782,0,0,1-.236,2.5L40.694,32.693,37.335,20.158a13.621,13.621,0,0,1,4.492-.086l-.887,2.662,1.989.664.953-2.86A13.573,13.573,0,0,1,49.475,23.912Zm3.209,14.164a13.605,13.605,0,0,1-21.706,5.815l9.173-9.173ZM36.694,15.726h6.583L42.5,18.054a15.737,15.737,0,0,0-5.807.092Zm0,14.677V25.861l1.976,7.374L29.5,42.4a13.467,13.467,0,0,1-3.231-9.9H34.6A2.1,2.1,0,0,0,36.694,30.4Zm-30,0L4.841,34.1a.9.9,0,0,1-1.7-.4V7.339H34.6V30.4Zm38.39,33.548H34.6V59.758H45.081Zm18.871-7.339A1.049,1.049,0,0,1,62.9,57.661H16.774a1.049,1.049,0,0,1-1.048-1.048V53.468H63.952ZM62.9,15.726a1.049,1.049,0,0,1,1.048,1.048v34.6H15.726V32.5h8.445A15.715,15.715,0,1,0,44.546,18.549l.94-2.823Z" fill="#004b72"/>
    </g>
  </g>
</svg>
