<svg xmlns="http://www.w3.org/2000/svg" xmlns:xlink="http://www.w3.org/1999/xlink" width="85" height="85" viewBox="0 0 85 85">
  <defs>
    <clipPath id="clip-path">
      <rect id="Rectángulo_406934" data-name="Rectángulo 406934" width="85" height="85" transform="translate(705.051 8579)" fill="#007cbe" stroke="#707070" stroke-width="1"/>
    </clipPath>
  </defs>
  <g id="Enmascarar_grupo_73" data-name="Enmascarar grupo 73" transform="translate(-705.051 -8579)" clip-path="url(#clip-path)">
    <g id="gestion-de-proyectos" transform="translate(701.836 8575.786)">
      <path id="Trazado_877730" data-name="Trazado 877730" d="M25.536,77.054a11.161,11.161,0,1,1,6.346-20.337,1.339,1.339,0,1,1-1.527,2.2,8.484,8.484,0,1,0,2.4,2.532,1.339,1.339,0,0,1,2.279-1.408,11.157,11.157,0,0,1-9.5,17.013Zm0-5.357a5.8,5.8,0,1,1,5.8-5.8,5.8,5.8,0,0,1-5.8,5.8Zm0-8.929a3.125,3.125,0,1,0,3.125,3.125A3.125,3.125,0,0,0,25.536,62.768Z" fill="#007cbe"/>
      <path id="Trazado_877731" data-name="Trazado 877731" d="M82.411,66.071a1.339,1.339,0,0,0-1.339,1.339v6.726a2.235,2.235,0,0,1-2.232,2.232H43.852a3.161,3.161,0,0,0-.474-.771L41.4,73.225q.3-.639.54-1.3l3.074-.279a3.11,3.11,0,0,0,2.842-3.112V63.251a3.11,3.11,0,0,0-2.842-3.112l-3.074-.279q-.243-.659-.54-1.3l1.978-2.373a3.11,3.11,0,0,0-.191-4.21l-3.736-3.736a3.11,3.11,0,0,0-4.21-.191l-2.373,1.978q-.639-.3-1.3-.541l-.279-3.074a3.11,3.11,0,0,0-3.112-2.842H22.894a3.11,3.11,0,0,0-3.112,2.842l-.28,3.074q-.659.243-1.3.541L15.83,48.05a3.11,3.11,0,0,0-4.21.191L7.884,51.977a3.11,3.11,0,0,0-.191,4.21L9.671,58.56q-.3.639-.54,1.3l-3.074.279a3.11,3.11,0,0,0-2.842,3.112v5.283a3.11,3.11,0,0,0,2.842,3.112l3.074.279q.243.659.54,1.3L7.693,75.6a3.11,3.11,0,0,0,.191,4.21l3.736,3.736a3.11,3.11,0,0,0,4.21.191L18.2,81.758q.639.3,1.3.541l.279,3.074a3.11,3.11,0,0,0,3.112,2.842h5.284a3.109,3.109,0,0,0,3.112-2.842l.28-3.074q.659-.243,1.3-.541l2.373,1.978a3.11,3.11,0,0,0,4.21-.191l3.736-3.736a3.153,3.153,0,0,0,.56-.761H78.839a4.916,4.916,0,0,0,4.911-4.911V67.411a1.339,1.339,0,0,0-1.339-1.339ZM41.293,77.914,37.557,81.65a.444.444,0,0,1-.6.027l-3.043-2.536a1.339,1.339,0,0,0-1.484-.155,14.68,14.68,0,0,1-2.511,1.045,1.339,1.339,0,0,0-.937,1.158l-.359,3.941a.444.444,0,0,1-.444.405H22.894a.444.444,0,0,1-.444-.406l-.358-3.94a1.339,1.339,0,0,0-.937-1.158,14.68,14.68,0,0,1-2.511-1.045,1.339,1.339,0,0,0-1.484.155l-3.043,2.536a.444.444,0,0,1-.6-.027L9.778,77.914a.444.444,0,0,1-.028-.6l2.536-3.043a1.339,1.339,0,0,0,.155-1.484A14.657,14.657,0,0,1,11.4,70.274a1.339,1.339,0,0,0-1.158-.937L6.3,68.979a.444.444,0,0,1-.405-.445V63.251a.444.444,0,0,1,.406-.444l3.941-.358a1.339,1.339,0,0,0,1.158-.937A14.662,14.662,0,0,1,12.442,59a1.339,1.339,0,0,0-.155-1.484L9.752,54.472a.444.444,0,0,1,.028-.6l3.735-3.736a.444.444,0,0,1,.6-.027l3.043,2.536a1.339,1.339,0,0,0,1.484.155,14.657,14.657,0,0,1,2.511-1.045,1.339,1.339,0,0,0,.937-1.158l.359-3.941a.444.444,0,0,1,.444-.406h5.284a.444.444,0,0,1,.444.406L28.98,50.6a1.339,1.339,0,0,0,.937,1.158A14.656,14.656,0,0,1,32.428,52.8a1.339,1.339,0,0,0,1.484-.155l3.043-2.536a.444.444,0,0,1,.6.027l3.736,3.736a.444.444,0,0,1,.028.6l-2.536,3.043A1.339,1.339,0,0,0,38.63,59a14.662,14.662,0,0,1,1.045,2.511,1.339,1.339,0,0,0,1.158.937l3.941.358a.444.444,0,0,1,.405.444v5.283a.444.444,0,0,1-.406.445l-3.941.358a1.339,1.339,0,0,0-1.158.937,14.656,14.656,0,0,1-1.045,2.511,1.339,1.339,0,0,0,.155,1.484l2.536,3.043a.444.444,0,0,1-.027.6Z" fill="#007cbe"/>
      <path id="Trazado_877732" data-name="Trazado 877732" d="M52.573,33.371v2.411H48.555a2.235,2.235,0,0,0-2.232,2.232v7.5a2.235,2.235,0,0,0,2.232,2.232H71.77A2.235,2.235,0,0,0,74,45.514V23.907a2.235,2.235,0,0,0-2.232-2.232H67.305a2.235,2.235,0,0,0-2.232,2.232v2.411H61.055a2.235,2.235,0,0,0-2.232,2.232v2.589H54.805a2.235,2.235,0,0,0-2.232,2.232Zm0,11.7H49V38.461h3.571ZM67.752,27.657v-3.3h3.571V45.068H67.752ZM61.5,32.479V29h3.571V45.068H61.5Zm-6.25,4.643v-3.3h3.571v11.25H55.252Z" fill="#007cbe"/>
      <circle id="Elipse_11497" data-name="Elipse 11497" cx="1.339" cy="1.339" r="1.339" transform="translate(72.101 11.905)" fill="#007cbe"/>
      <circle id="Elipse_11498" data-name="Elipse 11498" cx="1.339" cy="1.339" r="1.339" transform="translate(57.994 11.905)" fill="#007cbe"/>
      <circle id="Elipse_11499" data-name="Elipse 11499" cx="1.339" cy="1.339" r="1.339" transform="translate(43.886 11.905)" fill="#007cbe"/>
      <circle id="Elipse_11500" data-name="Elipse 11500" cx="1.339" cy="1.339" r="1.339" transform="translate(29.779 11.905)" fill="#007cbe"/>
      <path id="Trazado_877733" data-name="Trazado 877733" d="M20.631,33.512a1.339,1.339,0,0,0,1.339,1.339H41.613a1.339,1.339,0,0,0,0-2.679H21.97a1.339,1.339,0,0,0-1.339,1.339Z" fill="#007cbe"/>
      <path id="Trazado_877734" data-name="Trazado 877734" d="M29.242,38.244a1.339,1.339,0,0,0,0,2.679H36.23a1.339,1.339,0,1,0,0-2.679Z" fill="#007cbe"/>
      <path id="Trazado_877735" data-name="Trazado 877735" d="M21.97,40.923H25.1a1.339,1.339,0,1,0,0-2.679H21.97a1.339,1.339,0,0,0,0,2.679Z" fill="#007cbe"/>
      <path id="Trazado_877736" data-name="Trazado 877736" d="M25.631,27.44a1.339,1.339,0,0,0,1.339,1.339H41.613a1.339,1.339,0,1,0,0-2.679H26.97a1.339,1.339,0,0,0-1.339,1.339Z" fill="#007cbe"/>
      <circle id="Elipse_11501" data-name="Elipse 11501" cx="1.339" cy="1.339" r="1.339" transform="translate(21.97 26.102)" fill="#007cbe"/>
      <circle id="Elipse_11502" data-name="Elipse 11502" cx="1.339" cy="1.339" r="1.339" transform="translate(38.935 38.244)" fill="#007cbe"/>
      <path id="Trazado_877737" data-name="Trazado 877737" d="M72.216,62.054a1.339,1.339,0,0,0-1.339-1.339H51.234a1.339,1.339,0,0,0,0,2.679H70.877a1.339,1.339,0,0,0,1.339-1.339Z" fill="#007cbe"/>
      <path id="Trazado_877738" data-name="Trazado 877738" d="M58.506,66.786a1.339,1.339,0,0,0,0,2.679h6.988a1.339,1.339,0,1,0,0-2.679Z" fill="#007cbe"/>
      <path id="Trazado_877739" data-name="Trazado 877739" d="M51.234,66.786a1.339,1.339,0,0,0,0,2.679h3.125a1.339,1.339,0,0,0,0-2.679Z" fill="#007cbe"/>
      <path id="Trazado_877740" data-name="Trazado 877740" d="M70.877,54.643H56.234a1.339,1.339,0,0,0,0,2.679H70.877a1.339,1.339,0,1,0,0-2.679Z" fill="#007cbe"/>
      <path id="Trazado_877741" data-name="Trazado 877741" d="M52.573,57.321a1.339,1.339,0,1,0-1.339-1.339,1.339,1.339,0,0,0,1.339,1.339Z" fill="#007cbe"/>
      <path id="Trazado_877742" data-name="Trazado 877742" d="M68.2,68.125a1.339,1.339,0,1,0,1.339-1.339A1.339,1.339,0,0,0,68.2,68.125Z" fill="#007cbe"/>
      <path id="Trazado_877743" data-name="Trazado 877743" d="M82.411,3.214A5.813,5.813,0,0,0,76.94,7.084H26.22a1.339,1.339,0,0,0-.946.393l-12.5,12.5a1.339,1.339,0,0,0-.393.946V44.741a1.339,1.339,0,0,0,2.679,0V22.262h7.589a4.916,4.916,0,0,0,4.911-4.911V9.762H76.607V54.783a1.341,1.341,0,0,0,.125.565L80.387,63.2a2.232,2.232,0,0,0,4.047,0l3.655-7.853a1.341,1.341,0,0,0,.125-.565V9.018a5.81,5.81,0,0,0-5.8-5.8ZM22.649,19.584h-5.7l7.927-7.927v5.7a2.235,2.235,0,0,1-2.232,2.232Zm62.887,34.9L82.411,61.2l-3.125-6.714v-35.2h6.25Zm0-37.88h-6.25V13.929h6.25Zm0-5.357h-6.25V9.018a3.125,3.125,0,0,1,6.25,0Z" fill="#007cbe"/>
    </g>
  </g>
</svg>
