<svg xmlns="http://www.w3.org/2000/svg" xmlns:xlink="http://www.w3.org/1999/xlink" width="85" height="85" viewBox="0 0 85 85">
  <defs>
    <clipPath id="clip-path">
      <rect id="Rectángulo_406935" data-name="Rectángulo 406935" width="85" height="85" transform="translate(180.051 8946)" fill="#007cbe" stroke="#707070" stroke-width="1"/>
    </clipPath>
  </defs>
  <g id="Enmascarar_grupo_74" data-name="Enmascarar grupo 74" transform="translate(-180.051 -8946)" clip-path="url(#clip-path)">
    <g id="planificacion" transform="translate(180.051 8946)">
      <path id="Trazado_877744" data-name="Trazado 877744" d="M64.907,73.051c-.844.46-1.7.935-2.567,1.415C55,78.534,46.689,83.144,38.7,82.43L10.4,79.9q-.055,0-.111,0H2.5V65.893h7.79a1.248,1.248,0,0,0,.806-.3,33.788,33.788,0,0,1,5.646-3.655,1.248,1.248,0,1,0-1.15-2.214A37.527,37.527,0,0,0,9.844,63.4h-8.6A1.248,1.248,0,0,0,0,64.646v16.5a1.248,1.248,0,0,0,1.248,1.248H10.23l28.246,2.522q.957.085,1.911.084c8.1,0,16.071-4.419,23.163-8.351.862-.478,1.712-.949,2.551-1.407a1.248,1.248,0,0,0-1.194-2.191Z" fill="#007cbe"/>
      <path id="Trazado_877745" data-name="Trazado 877745" d="M84.037,59.232A4.742,4.742,0,0,0,78.4,57.7a4.31,4.31,0,0,0-6.311-3.546l-2.967,1.564a4.274,4.274,0,0,0-6.3-3.535l-2.218,1.2a4.411,4.411,0,0,0-6.452-3.706l-16.01,8.4A27.405,27.405,0,0,0,23.9,56.765a26.565,26.565,0,0,0-3.543.926,1.248,1.248,0,1,0,.791,2.366,24.075,24.075,0,0,1,3.208-.84A25.065,25.065,0,0,1,37.7,60.589a1.248,1.248,0,0,0,.511.11H54.874a2.154,2.154,0,0,1,.269,4.29L34.022,67.663a1.247,1.247,0,0,0,.007,2.476L43,71.221a41,41,0,0,0,24.979-4.9l11.21-6.231a2.258,2.258,0,0,1,2.857.647,2.294,2.294,0,0,1-.727,3.373L69.291,70.662a1.248,1.248,0,0,0,1.194,2.191L82.512,66.3a4.775,4.775,0,0,0,1.525-7.067ZM55.312,51.889a1.9,1.9,0,0,1,2.429.562,1.932,1.932,0,0,1-.63,2.828L51.719,58.2H43.274Zm1.135,6.589,7.565-4.1a1.778,1.778,0,0,1,2.371.645,1.8,1.8,0,0,1-.695,2.509L59.126,60.99a4.669,4.669,0,0,0-2.679-2.511Zm10.319,5.66a38.5,38.5,0,0,1-22.352,4.724l11.043-1.4a4.655,4.655,0,0,0,3.992-3.823l13.809-7.278a1.821,1.821,0,0,1,1.726,3.208Z" fill="#007cbe"/>
      <path id="Trazado_877746" data-name="Trazado 877746" d="M29.051,33.9a9.308,9.308,0,0,0,4.029-.906,1.248,1.248,0,1,0-1.072-2.253,6.832,6.832,0,0,1-2.957.664,6.891,6.891,0,1,1,6.042-3.569,1.248,1.248,0,0,0,2.184,1.206A9.391,9.391,0,1,0,29.051,33.9Z" fill="#007cbe"/>
      <path id="Trazado_877747" data-name="Trazado 877747" d="M9.57,28.217l2.586.389a17.157,17.157,0,0,0,2.052,4.95l-1.554,2.1a2.463,2.463,0,0,0,.241,3.224l1.78,1.78a2.463,2.463,0,0,0,3.225.241L20,39.351a17.155,17.155,0,0,0,4.95,2.052l.389,2.586a2.463,2.463,0,0,0,2.45,2.11H30.31a2.463,2.463,0,0,0,2.45-2.11l.389-2.586a17.155,17.155,0,0,0,4.95-2.052l2.1,1.554a2.463,2.463,0,0,0,3.224-.241l1.78-1.78a2.463,2.463,0,0,0,.241-3.225l-1.554-2.1a17.15,17.15,0,0,0,2.052-4.95l2.586-.389a2.463,2.463,0,0,0,2.11-2.451v-.011h7.4v15.9a2.913,2.913,0,0,0,2.909,2.909h5.33a5.7,5.7,0,1,0,0-2.5h-5.33a.415.415,0,0,1-.414-.414v-15.9h5.744a5.7,5.7,0,1,0,0-2.5H60.541V7.359a.415.415,0,0,1,.414-.414h5.33a5.7,5.7,0,1,0,0-2.5h-5.33a2.913,2.913,0,0,0-2.909,2.909v15.9h-7.4v-.011a2.463,2.463,0,0,0-2.11-2.45l-2.586-.389a17.155,17.155,0,0,0-2.052-4.95l1.554-2.1a2.463,2.463,0,0,0-.241-3.225l-1.78-1.78A2.463,2.463,0,0,0,40.2,8.11L38.1,9.664a17.154,17.154,0,0,0-4.95-2.052L32.76,5.026a2.463,2.463,0,0,0-2.45-2.11H27.793a2.463,2.463,0,0,0-2.45,2.11l-.389,2.586A17.159,17.159,0,0,0,20,9.664L17.9,8.11a2.463,2.463,0,0,0-3.225.241l-1.78,1.78a2.463,2.463,0,0,0-.241,3.225l1.554,2.1a17.152,17.152,0,0,0-2.052,4.95L9.57,20.8a2.463,2.463,0,0,0-2.11,2.45v2.517a2.463,2.463,0,0,0,2.11,2.451Zm62.272,11.9a3.2,3.2,0,1,1-3.2,3.2,3.206,3.206,0,0,1,3.2-3.2Zm0-18.81a3.2,3.2,0,1,1-3.2,3.2A3.206,3.206,0,0,1,71.842,21.305Zm0-18.81a3.2,3.2,0,1,1-3.2,3.2,3.206,3.206,0,0,1,3.2-3.2ZM9.956,23.263l3.424-.515a1.247,1.247,0,0,0,1.041-1,14.721,14.721,0,0,1,2.333-5.629,1.248,1.248,0,0,0-.026-1.445l-2.058-2.786,1.759-1.759,2.786,2.058a1.248,1.248,0,0,0,1.445.026,14.723,14.723,0,0,1,5.629-2.333,1.247,1.247,0,0,0,1-1.041l.515-3.424h2.488l.515,3.424a1.247,1.247,0,0,0,1,1.041,14.72,14.72,0,0,1,5.629,2.333,1.248,1.248,0,0,0,1.445-.026l2.786-2.058,1.759,1.759-2.058,2.786a1.248,1.248,0,0,0-.026,1.445,14.721,14.721,0,0,1,2.333,5.629,1.248,1.248,0,0,0,1.041,1l3.424.515v2.488l-3.424.515a1.248,1.248,0,0,0-1.041,1A14.721,14.721,0,0,1,41.349,32.9a1.247,1.247,0,0,0,.026,1.445l2.058,2.786L41.674,38.89l-2.786-2.058a1.248,1.248,0,0,0-1.445-.026,14.721,14.721,0,0,1-5.629,2.333,1.248,1.248,0,0,0-1,1.041L30.295,43.6H27.807l-.515-3.424a1.248,1.248,0,0,0-1-1.041,14.721,14.721,0,0,1-5.629-2.333,1.248,1.248,0,0,0-1.445.026L16.428,38.89l-1.759-1.759,2.058-2.786a1.248,1.248,0,0,0,.026-1.445,14.718,14.718,0,0,1-2.333-5.629,1.247,1.247,0,0,0-1.041-1l-3.424-.515Z" fill="#007cbe"/>
    </g>
  </g>
</svg>
