<svg xmlns="http://www.w3.org/2000/svg" xmlns:xlink="http://www.w3.org/1999/xlink" width="85" height="111" viewBox="0 0 85 111">
  <defs>
    <clipPath id="clip-path">
      <rect id="Rectángulo_406924" data-name="Rectángulo 406924" width="85" height="111" transform="translate(180 4342)" fill="#007cbe"/>
    </clipPath>
  </defs>
  <g id="Enmascarar_grupo_72" data-name="Enmascarar grupo 72" transform="translate(-180 -4342)" clip-path="url(#clip-path)">
    <g id="logro" transform="translate(179.917 4354.917)">
      <g id="Grupo_1110510" data-name="Grupo 1110510">
        <path id="Trazado_877720" data-name="Trazado 877720" d="M.749,6.37v66.5A5.53,5.53,0,0,0,6.26,78.386H56.6A5.53,5.53,0,0,0,62.11,72.87V6.37A5.53,5.53,0,0,0,56.6.854H6.26A5.53,5.53,0,0,0,.749,6.37Z" fill="#eaf6ff" fill-rule="evenodd"/>
      </g>
      <g id="Grupo_1110511" data-name="Grupo 1110511">
        <path id="Trazado_877721" data-name="Trazado 877721" d="M7.1,55.86H21.089V69.84H7.1Z" fill="#ffd301" fill-rule="evenodd"/>
      </g>
      <g id="Grupo_1110512" data-name="Grupo 1110512">
        <path id="Trazado_877722" data-name="Trazado 877722" d="M7.1,34.235H21.089v13.98H7.1Z" fill="#ffd301" fill-rule="evenodd"/>
      </g>
      <g id="Grupo_1110513" data-name="Grupo 1110513">
        <path id="Trazado_877723" data-name="Trazado 877723" d="M7.1,12.611H21.089V26.6H7.1Z" fill="#ffd301" fill-rule="evenodd"/>
      </g>
      <g id="Grupo_1110514" data-name="Grupo 1110514">
        <path id="Trazado_877724" data-name="Trazado 877724" d="M52.224,84.312A17.22,17.22,0,1,0,35,67.092,17.252,17.252,0,0,0,52.224,84.312Z" fill="#fd646f" fill-rule="evenodd"/>
      </g>
      <g id="Grupo_1110515" data-name="Grupo 1110515">
        <path id="Trazado_877725" data-name="Trazado 877725" d="M52.224,77.958a11.2,11.2,0,1,0-11.2-11.2A11.218,11.218,0,0,0,52.224,77.958Z" fill="#f5f5f5" fill-rule="evenodd"/>
      </g>
      <g id="Grupo_1110516" data-name="Grupo 1110516">
        <path id="Trazado_877726" data-name="Trazado 877726" d="M52.224,71.874a5.115,5.115,0,1,0-5.115-5.115A5.124,5.124,0,0,0,52.224,71.874Z" fill="#fd646f" fill-rule="evenodd"/>
      </g>
      <g id="Grupo_1110517" data-name="Grupo 1110517">
        <path id="Trazado_877727" data-name="Trazado 877727" d="M68.612,65.842A17.6,17.6,0,0,1,39.09,78.792,17.225,17.225,0,0,0,68.211,62.1,17.559,17.559,0,0,1,68.612,65.842Z" fill="#eb4954" fill-rule="evenodd"/>
      </g>
      <g id="Grupo_1110518" data-name="Grupo 1110518">
        <path id="Trazado_877728" data-name="Trazado 877728" d="M71.632,55.6V50.759l5.182-2.992v4.838l4.194,2.424-5.182,2.992Z" fill="#fac149" fill-rule="evenodd"/>
      </g>
      <path id="Trazado_877729" data-name="Trazado 877729" d="M6.191,55.677a1.162,1.162,0,0,1,1.162-1.162h9.633a1.162,1.162,0,0,1,0,2.325H8.516V68.3H19.979v-7.2a1.162,1.162,0,1,1,2.324,0v8.357a1.162,1.162,0,0,1-1.162,1.162H7.353a1.162,1.162,0,0,1-1.162-1.162ZM24.5,51.6a1.162,1.162,0,0,0-1.634.181L14.016,62.838l-2.374-3.8a1.162,1.162,0,0,0-1.971,1.232l3.242,5.186a1.163,1.163,0,0,0,.918.544l.068,0a1.162,1.162,0,0,0,.907-.436l9.877-12.338A1.162,1.162,0,0,0,24.5,51.6ZM6.191,48.138A1.162,1.162,0,0,0,7.353,49.3H21.141A1.162,1.162,0,0,0,22.3,48.138V39.781a1.162,1.162,0,1,0-2.324,0v7.195H8.516V35.513h8.47a1.162,1.162,0,0,0,0-2.325H7.353a1.162,1.162,0,0,0-1.162,1.162ZM24.5,30.276a1.162,1.162,0,0,0-1.634.181L14.016,41.512l-2.374-3.8a1.162,1.162,0,1,0-1.971,1.232l3.242,5.186a1.162,1.162,0,0,0,.918.544l.068,0a1.162,1.162,0,0,0,.907-.436L24.684,31.91a1.163,1.163,0,0,0-.181-1.634ZM35.2,76.73H6.685a4.282,4.282,0,0,1-4.278-4.277V6.869A4.282,4.282,0,0,1,6.685,2.591H56.326A4.282,4.282,0,0,1,60.6,6.869V48.853a1.162,1.162,0,1,0,2.324,0V6.869a6.61,6.61,0,0,0-6.6-6.6H6.685a6.61,6.61,0,0,0-6.6,6.6V72.453a6.61,6.61,0,0,0,6.6,6.6H35.2a1.162,1.162,0,0,0,0-2.325ZM16.986,14.187a1.162,1.162,0,0,0,0-2.325H7.353a1.162,1.162,0,0,0-1.162,1.162V26.817a1.162,1.162,0,0,0,1.162,1.162H21.141A1.162,1.162,0,0,0,22.3,26.817V18.455a1.162,1.162,0,1,0-2.324,0v7.2H8.516V14.187ZM24.5,8.95a1.162,1.162,0,0,0-1.634.181L14.016,20.186l-2.374-3.793a1.162,1.162,0,1,0-1.97,1.233l3.242,5.181a1.163,1.163,0,0,0,.918.544l.068,0a1.162,1.162,0,0,0,.907-.436l9.877-12.334A1.162,1.162,0,0,0,24.5,8.95Zm28.388,2.912H29.386a1.162,1.162,0,0,0,0,2.325H52.891a1.162,1.162,0,0,0,0-2.325Zm0,6.221H29.386a1.162,1.162,0,0,0,0,2.325H52.891a1.162,1.162,0,0,0,0-2.325Zm0,15.106H29.386a1.162,1.162,0,0,0,0,2.325H52.891a1.162,1.162,0,0,0,0-2.325Zm1.162,7.383a1.162,1.162,0,0,0-1.162-1.162H29.386a1.162,1.162,0,0,0,0,2.325H52.891A1.162,1.162,0,0,0,54.053,40.571ZM36.327,55.677a1.162,1.162,0,0,0-1.162-1.162H29.386a1.162,1.162,0,0,0,0,2.325h5.779A1.162,1.162,0,0,0,36.327,55.677Zm-6.941,5.059a1.162,1.162,0,0,0,0,2.325h3.078a1.162,1.162,0,0,0,0-2.325ZM84.5,49.437l-5.254,3.032,2.394,1.383a1.162,1.162,0,0,1,0,2.013l-5.11,2.95a1.161,1.161,0,0,1-1.163,0L71.813,56.76l-3.372,1.947A18.2,18.2,0,1,1,67.275,56.7l3.375-1.949v-4.1a1.162,1.162,0,0,1,.581-1.007l5.11-2.951A1.162,1.162,0,0,1,78.085,47.7v2.759l5.254-3.032A1.162,1.162,0,0,1,84.5,49.437ZM66.424,59.872l-3.143,1.815a12.247,12.247,0,1,1-1.166-2.011l3.143-1.814a15.739,15.739,0,1,0,1.166,2.011ZM50.978,66.105,54.8,63.9a3.882,3.882,0,1,0,1.164,2.012l-3.828,2.21a1.162,1.162,0,1,1-1.162-2.013Zm5.9-3.4,3.219-1.859a9.857,9.857,0,1,0,1.165,2.012l-3.218,1.858A6.226,6.226,0,1,1,56.875,62.7Zm21.861-7.843L76.353,53.48l-.006,0-.006,0-.028-.019a1.159,1.159,0,0,1-.1-.065c-.013-.01-.024-.021-.037-.032s-.053-.044-.078-.069-.03-.034-.045-.051S76.02,53.2,76,53.176a1.185,1.185,0,0,1-.085-.126v0a1.181,1.181,0,0,1-.061-.124c0-.011-.008-.022-.013-.033-.013-.034-.025-.068-.035-.1,0-.011-.006-.022-.009-.033a1.157,1.157,0,0,1-.026-.128V52.62a1.144,1.144,0,0,1-.009-.143s0-.006,0-.01V49.709l-2.786,1.608v3.43l2.974,1.719Z"/>
    </g>
  </g>
</svg>
