<svg xmlns="http://www.w3.org/2000/svg" xmlns:xlink="http://www.w3.org/1999/xlink" width="88" height="88" viewBox="0 0 88 88">
  <defs>
    <clipPath id="clip-path">
      <rect id="Rectángulo_406969" data-name="Rectángulo 406969" width="88" height="88" transform="translate(863.051 10805)" fill="#fff" stroke="#fff" stroke-width="1"/>
    </clipPath>
    <clipPath id="clip-path-2">
      <path id="path525" d="M0-88H88V0H0Z" fill="#fff"/>
    </clipPath>
  </defs>
  <g id="Enmascarar_grupo_76" data-name="Enmascarar grupo 76" transform="translate(-863.051 -10805)" clip-path="url(#clip-path)">
    <g id="g519" transform="translate(863.051 10893)">
      <g id="g521">
        <g id="g523" clip-path="url(#clip-path-2)">
          <g id="g529" transform="translate(16.156 -41.422)">
            <path id="path531" d="M0,0A25.71,25.71,0,0,1,10.192-20.463L1.021-26.2A35.945,35.945,0,0,0-10.312,0a36.017,36.017,0,0,0,2.57,13.4l-6.695,4.048L6.722,28.865,7.575,4.558,1.325,8.166A25.681,25.681,0,0,1,0,0Z" fill="none" stroke="#fff" stroke-linecap="round" stroke-linejoin="round" stroke-miterlimit="10" stroke-width="3.437"/>
          </g>
          <g id="g533" transform="translate(72.256 -44.777)">
            <path id="path535" d="M0,0A25.844,25.844,0,0,0-20.522-22.94v7.217L-41.147-28.614-20.522-41.5v8.1A36.126,36.126,0,0,1,9.646-5.129Z" fill="none" stroke="#fff" stroke-linecap="round" stroke-linejoin="round" stroke-miterlimit="10" stroke-width="3.437"/>
          </g>
          <g id="g537" transform="translate(66.688 -3.781)">
            <path id="path539" d="M0,0A1.721,1.721,0,0,1-1.719-1.719,1.721,1.721,0,0,1,0-3.437,1.721,1.721,0,0,1,1.719-1.719,1.721,1.721,0,0,1,0,0" fill="#fff"/>
          </g>
          <g id="g541" transform="translate(59.412 -2.875)">
            <path id="path543" d="M0,0A37.607,37.607,0,0,1-9.224,1.156a35.975,35.975,0,0,1-14.14-2.875l.4-11.412A25.62,25.62,0,0,0-9.224-9.156a27.237,27.237,0,0,0,19.975-8.692l-6.237-3.6L25.99-32.865l.88,24.307-7.045-4.051a34.438,34.438,0,0,1-5.982,5.9" fill="none" stroke="#fff" stroke-linecap="round" stroke-linejoin="round" stroke-miterlimit="10" stroke-width="3.437"/>
          </g>
        </g>
      </g>
    </g>
  </g>
</svg>
