<svg xmlns="http://www.w3.org/2000/svg" xmlns:xlink="http://www.w3.org/1999/xlink" width="55" height="55" viewBox="0 0 55 55">
  <defs>
    <clipPath id="clip-path">
      <rect id="Rectángulo_406943" data-name="Rectángulo 406943" width="55" height="55" transform="translate(748.051 11987)" fill="#657d55"/>
    </clipPath>
  </defs>
  <g id="Enmascarar_grupo_78" data-name="Enmascarar grupo 78" transform="translate(-748.051 -11987)" clip-path="url(#clip-path)">
    <path id="estado-financiero" d="M11.877,16.71A6.527,6.527,0,1,0,5.35,10.182a6.534,6.534,0,0,0,6.527,6.527Zm0-11.28a4.753,4.753,0,1,1-4.753,4.753,4.758,4.758,0,0,1,4.753-4.753Zm.877,6.36a.2.2,0,0,0,.042-.18c-.015-.122-.049-.407-1.057-.572C9.752,10.711,9.4,9.557,9.37,8.9a2.224,2.224,0,0,1,1.62-2.231V6.613a.887.887,0,1,1,1.774,0v.043a2.586,2.586,0,0,1,1.591,1.47.887.887,0,0,1-1.636.687.911.911,0,0,0-1.074-.487c-.122.028-.521.145-.5.487.011.22.308.379.884.474,1.54.253,2.392.963,2.531,2.109A1.953,1.953,0,0,1,14.1,12.95a2.631,2.631,0,0,1-1.332.781v.021a.887.887,0,1,1-1.774,0v-.037a2.517,2.517,0,0,1-1.783-1.8.887.887,0,1,1,1.722-.429.936.936,0,0,0,1,.582,1.231,1.231,0,0,0,.825-.278ZM19.9,31.9H15.119a.887.887,0,0,0-.887.887V48.052a.887.887,0,0,0,.887.887H19.9a.887.887,0,0,0,.887-.887V32.784A.887.887,0,0,0,19.9,31.9Zm-.887,15.268H16.006V33.671h3.009ZM28.785,33.89H24a.887.887,0,0,0-.887.887V48.052a.887.887,0,0,0,.887.887h4.784a.887.887,0,0,0,.887-.887V34.778A.887.887,0,0,0,28.785,33.89ZM27.9,47.165H24.888v-11.5H27.9ZM11.02,37.819H6.237a.887.887,0,0,0-.887.887v9.346a.887.887,0,0,0,.887.887H11.02a.887.887,0,0,0,.887-.887V38.706A.887.887,0,0,0,11.02,37.819Zm-.887,9.346H7.124V39.593h3.009v7.571Zm22.173-27.04,2.891-.254a.887.887,0,0,1,.959.982l-.322,2.885a.887.887,0,0,1-1.763-.2l.039-.351-7.087,7.148a.887.887,0,0,1-.9.219l-8.435-2.734L9.173,34.45a.887.887,0,0,1-1.09-1.4l8.882-6.916a.888.888,0,0,1,.818-.144L26.147,28.7l6.792-6.85-.478.042a.887.887,0,1,1-.155-1.767Zm19.359,7.982h-9.19V8.562a1.876,1.876,0,0,0-.56-1.353L36.153,1.447A1.876,1.876,0,0,0,34.8.887H3.342A1.915,1.915,0,0,0,1.429,2.8V51.648a1.915,1.915,0,0,0,1.913,1.913H32.255a3.686,3.686,0,0,0,3.421,2.326H51.665a3.684,3.684,0,0,0,3.68-3.68V31.788a3.684,3.684,0,0,0-3.68-3.68ZM39.446,7.25H36.112V3.916ZM3.2,51.648V2.8a.141.141,0,0,1,.139-.139h31V7.624a1.4,1.4,0,0,0,1.4,1.4H40.7V28.107H38.554v-1.6a.887.887,0,0,0-.887-.887H32.883a.887.887,0,0,0-.887.887V51.787H3.342a.141.141,0,0,1-.139-.139ZM36.78,28.107h-1.1a3.658,3.658,0,0,0-1.906.533V27.4H36.78v.711Zm16.792,24.1a1.908,1.908,0,0,1-1.906,1.906H35.676a1.908,1.908,0,0,1-1.906-1.906V31.788a1.908,1.908,0,0,1,1.906-1.906H51.665a1.908,1.908,0,0,1,1.906,1.906V52.207Zm-2.837-20.09H36.607a1.531,1.531,0,0,0-1.529,1.529v2.52A1.531,1.531,0,0,0,36.607,37.7H50.734a1.531,1.531,0,0,0,1.529-1.529v-2.52A1.531,1.531,0,0,0,50.734,32.116Zm-.245,3.8H36.852v-2.03H50.489ZM39.007,38.979h-2.4a1.531,1.531,0,0,0-1.529,1.529v.835a1.531,1.531,0,0,0,1.529,1.529h2.4a1.531,1.531,0,0,0,1.529-1.529v-.835a1.531,1.531,0,0,0-1.529-1.529ZM38.762,41.1h-1.91v-.345h1.91Zm6.108-2.119h-2.4a1.531,1.531,0,0,0-1.529,1.529v.835a1.531,1.531,0,0,0,1.529,1.529h2.4A1.531,1.531,0,0,0,46.4,41.343v-.835a1.531,1.531,0,0,0-1.529-1.529ZM44.626,41.1h-1.91v-.345h1.91Zm6.108-2.119h-2.4A1.531,1.531,0,0,0,46.8,40.508v.835a1.531,1.531,0,0,0,1.529,1.529h2.4a1.531,1.531,0,0,0,1.529-1.529v-.835a1.531,1.531,0,0,0-1.529-1.529ZM50.489,41.1h-1.91v-.345h1.91ZM39.007,43.482h-2.4a1.531,1.531,0,0,0-1.529,1.529v.835a1.531,1.531,0,0,0,1.529,1.529h2.4a1.531,1.531,0,0,0,1.529-1.529v-.835a1.531,1.531,0,0,0-1.529-1.529ZM38.762,45.6h-1.91v-.345h1.91Zm6.108-2.119h-2.4a1.531,1.531,0,0,0-1.529,1.529v.835a1.531,1.531,0,0,0,1.529,1.529h2.4A1.531,1.531,0,0,0,46.4,45.846v-.835A1.531,1.531,0,0,0,44.871,43.482ZM44.626,45.6h-1.91v-.345h1.91Zm6.108-2.119h-2.4A1.531,1.531,0,0,0,46.8,45.011v.835a1.531,1.531,0,0,0,1.529,1.529h2.4a1.531,1.531,0,0,0,1.529-1.529v-.835a1.531,1.531,0,0,0-1.529-1.529ZM50.489,45.6h-1.91v-.345h1.91ZM39.007,47.985h-2.4a1.531,1.531,0,0,0-1.529,1.529v.835a1.531,1.531,0,0,0,1.529,1.529h2.4a1.531,1.531,0,0,0,1.529-1.529v-.835a1.531,1.531,0,0,0-1.529-1.529ZM38.762,50.1h-1.91v-.345h1.91Zm6.108-2.119h-2.4a1.531,1.531,0,0,0-1.529,1.529v.835a1.531,1.531,0,0,0,1.529,1.529h2.4A1.531,1.531,0,0,0,46.4,50.349v-.835A1.531,1.531,0,0,0,44.871,47.985ZM44.626,50.1h-1.91v-.345h1.91Zm6.108-2.119h-2.4A1.531,1.531,0,0,0,46.8,49.514v.835a1.531,1.531,0,0,0,1.529,1.529h2.4a1.531,1.531,0,0,0,1.529-1.529v-.835a1.531,1.531,0,0,0-1.529-1.529ZM50.489,50.1h-1.91v-.345h1.91ZM5.35,23.59a.887.887,0,0,1,.887-.887h1.67a.887.887,0,0,1,0,1.774H6.237a.887.887,0,0,1-.887-.887Zm5.143,0a.887.887,0,0,1,.887-.887h13a.887.887,0,1,1,0,1.774h-13a.887.887,0,0,1-.887-.887ZM5.35,18.954a.887.887,0,0,1,.887-.887h1.67a.887.887,0,1,1,0,1.774H6.237A.887.887,0,0,1,5.35,18.954Zm5.143,0a.887.887,0,0,1,.887-.887h13a.887.887,0,1,1,0,1.774h-13a.887.887,0,0,1-.887-.887ZM20.465,7.865a.887.887,0,0,1,.887-.887H31.389a.887.887,0,1,1,0,1.774H21.352a.887.887,0,0,1-.887-.887Zm0,4.636a.887.887,0,0,1,.887-.887H31.389a.887.887,0,1,1,0,1.774H21.352a.887.887,0,0,1-.887-.887Z" transform="translate(747.164 11986.113)" fill="#657d55"/>
  </g>
</svg>
