<svg xmlns="http://www.w3.org/2000/svg" xmlns:xlink="http://www.w3.org/1999/xlink" width="85" height="85" viewBox="0 0 85 85">
  <defs>
    <clipPath id="clip-path">
      <rect id="Rectángulo_406944" data-name="Rectángulo 406944" width="85" height="85" transform="translate(1290.051 12376)" fill="#004b72"/>
    </clipPath>
  </defs>
  <g id="Enmascarar_grupo_79" data-name="Enmascarar grupo 79" transform="translate(-1290.051 -12376)" clip-path="url(#clip-path)">
    <g id="Layer_1" transform="translate(1275.758 12361.597)">
      <g id="Grupo_1110574" data-name="Grupo 1110574">
        <g id="Grupo_1110573" data-name="Grupo 1110573">
          <g id="Grupo_1110569" data-name="Grupo 1110569">
            <path id="Trazado_877895" data-name="Trazado 877895" d="M89.07,66.081h-.05A3.744,3.744,0,0,1,86.3,64.808l-6.254-6.426a3.657,3.657,0,0,1,4.987-5.341,28.247,28.247,0,0,0-55.2-.576,1.328,1.328,0,0,1-2.59-.587A30.9,30.9,0,0,1,88.2,56.733a1.327,1.327,0,0,1-2.275,1.013L83.38,55.128a.994.994,0,0,0-.7-.3,1.018,1.018,0,0,0-.714.288,1,1,0,0,0-.017,1.422l6.271,6.448c.011.011.022.028.033.039a1.087,1.087,0,0,0,.8.41,1.108,1.108,0,0,0,.808-.387.256.256,0,0,1,.039-.039l6.448-6.271A1,1,0,0,0,94.937,55.3L92.479,57.7a1.328,1.328,0,0,1-2.253-.875,32.923,32.923,0,0,0-64.438-7.383,1.329,1.329,0,1,1-2.552-.747,35.224,35.224,0,0,1,5.574-11.164A35.581,35.581,0,0,1,92.6,53.866l.476-.465a3.662,3.662,0,0,1,5.114,5.242L91.76,64.9a3.73,3.73,0,0,1-2.69,1.178Z" fill="#004b72" fill-rule="evenodd"/>
          </g>
          <g id="Grupo_1110570" data-name="Grupo 1110570">
            <path id="Trazado_877896" data-name="Trazado 877896" d="M56.265,90.623a35.578,35.578,0,0,1-35.28-30.68l-.476.465a3.662,3.662,0,0,1-5.114-5.242l6.432-6.26a3.652,3.652,0,0,1,5.474.077l6.254,6.426a3.659,3.659,0,0,1-2.662,6.216,3.6,3.6,0,0,1-2.325-.875,28.247,28.247,0,0,0,55.2.576,1.328,1.328,0,1,1,2.59.587A30.9,30.9,0,0,1,25.4,57.059a1.327,1.327,0,0,1,2.275-1.013l2.546,2.618a1.006,1.006,0,0,0,1.434-1.411L25.38,50.822c-.011-.011-.022-.028-.033-.039a1.087,1.087,0,0,0-.8-.41,1.108,1.108,0,0,0-.808.387.256.256,0,0,1-.039.039l-6.448,6.271a.994.994,0,0,0-.3.7,1.018,1.018,0,0,0,.288.714,1,1,0,0,0,1.417.017l2.458-2.391a1.328,1.328,0,0,1,2.253.875,32.923,32.923,0,0,0,64.438,7.384,1.329,1.329,0,0,1,2.552.747,35.224,35.224,0,0,1-5.574,11.164A35.534,35.534,0,0,1,56.265,90.623Z" fill="#004b72" fill-rule="evenodd"/>
          </g>
          <g id="Grupo_1110571" data-name="Grupo 1110571">
            <path id="Trazado_877897" data-name="Trazado 877897" d="M53.209,79.537a1.265,1.265,0,0,1-.526-.111,1.333,1.333,0,0,1-.78-1.467l2.729-14.352H44.8a1.327,1.327,0,0,1-1.107-2.059L61.3,34.853a1.327,1.327,0,0,1,2.386,1.09L58.224,55.349H68.807a1.331,1.331,0,0,1,1.079,2.109l-15.6,21.531a1.338,1.338,0,0,1-1.08.548ZM47.265,60.956h8.972a1.33,1.33,0,0,1,1.306,1.577L55.628,72.613l10.577-14.6H56.469a1.321,1.321,0,0,1-1.057-.526,1.344,1.344,0,0,1-.221-1.162l3.625-12.874Z" fill="#004b72" fill-rule="evenodd"/>
          </g>
          <g id="Grupo_1110572" data-name="Grupo 1110572">
            <path id="Trazado_877898" data-name="Trazado 877898" d="M44.276,76.863a1.312,1.312,0,0,1-.742-.227,23.873,23.873,0,0,1-8.286-9.681,1.328,1.328,0,0,1,2.408-1.124,21.23,21.23,0,0,0,7.361,8.6,1.328,1.328,0,0,1-.742,2.43ZM77.153,48.73a1.335,1.335,0,0,1-1.207-.764,21.23,21.23,0,0,0-7.361-8.6,1.328,1.328,0,0,1,1.483-2.2,23.873,23.873,0,0,1,8.286,9.681,1.323,1.323,0,0,1-1.2,1.887Z" fill="#004b72" fill-rule="evenodd"/>
          </g>
        </g>
      </g>
    </g>
  </g>
</svg>
