<svg xmlns="http://www.w3.org/2000/svg" width="1240" height="376" viewBox="0 0 1240 376">
  <g id="Grupo_1110576" data-name="Grupo 1110576" transform="translate(-180.051 -3887)">
    <path id="Trazado_877934" data-name="Trazado 877934" d="M20,0H1220a20,20,0,0,1,20,20V356a20,20,0,0,1-20,20H20A20,20,0,0,1,0,356V20A20,20,0,0,1,20,0Z" transform="translate(180.051 3887)" fill="#edf5e8"/>
    <path id="Trazado_877939" data-name="Trazado 877939" d="M95,0A95,95,0,1,1,0,95,95,95,0,0,1,95,0Z" transform="translate(285.051 3980)" fill="#007cbe"/>
    <path id="Trazado_877940" data-name="Trazado 877940" d="M95,0A95,95,0,1,1,0,95,95,95,0,0,1,95,0Z" transform="translate(495.051 3980)" fill="#a8d08d"/>
    <path id="Trazado_877941" data-name="Trazado 877941" d="M95,0A95,95,0,1,1,0,95,95,95,0,0,1,95,0Z" transform="translate(705.051 3980)" fill="#4a6572"/>
    <path id="Trazado_877947" data-name="Trazado 877947" d="M95,0A95,95,0,1,1,0,95,95,95,0,0,1,95,0Z" transform="translate(915.051 3980)" fill="#f4d35e"/>
    <path id="Trazado_877935" data-name="Trazado 877935" d="M10,0H180a10,10,0,0,1,10,10V24a10,10,0,0,1-10,10H10A10,10,0,0,1,0,24V10A10,10,0,0,1,10,0Z" transform="translate(285.051 3935)" fill="#99cae5"/>
    <path id="Trazado_877937" data-name="Trazado 877937" d="M10,0H180a10,10,0,0,1,10,10V24a10,10,0,0,1-10,10H10A10,10,0,0,1,0,24V10A10,10,0,0,1,10,0Z" transform="translate(495.051 3935)" fill="#99cae5"/>
    <path id="Trazado_877942" data-name="Trazado 877942" d="M10,0H180a10,10,0,0,1,10,10V24a10,10,0,0,1-10,10H10A10,10,0,0,1,0,24V10A10,10,0,0,1,10,0Z" transform="translate(705.051 3935)" fill="#99cae5"/>
    <path id="Trazado_877948" data-name="Trazado 877948" d="M10,0H180a10,10,0,0,1,10,10V24a10,10,0,0,1-10,10H10A10,10,0,0,1,0,24V10A10,10,0,0,1,10,0Z" transform="translate(915.051 3935)" fill="#99cae5"/>
    <path id="Trazado_877951" data-name="Trazado 877951" d="M10,0H180a10,10,0,0,1,10,10V24a10,10,0,0,1-10,10H10A10,10,0,0,1,0,24V10A10,10,0,0,1,10,0Z" transform="translate(1125.051 3935)" fill="#99cae5"/>
    <path id="Trazado_877952" data-name="Trazado 877952" d="M95,0A95,95,0,1,1,0,95,95,95,0,0,1,95,0Z" transform="translate(1125.051 3980)" fill="#006398"/>
    <path id="Trazado_877936" data-name="Trazado 877936" d="M6.179-5.537a5.964,5.964,0,0,1-.268,2.026,3.026,3.026,0,0,1-.9,1.244l-.58.536A2.292,2.292,0,0,0,3.612-.1a1.221,1.221,0,0,0,.294.91,1.046,1.046,0,0,0,.76.286A1.161,1.161,0,0,0,5.585.725,1.615,1.615,0,0,0,5.933-.334H8.912A3.6,3.6,0,0,1,7.792,2.408a4.411,4.411,0,0,1-3.054.976,4.535,4.535,0,0,1-3.028-.91A3.192,3.192,0,0,1,.642-.1,2.953,2.953,0,0,1,.976-1.472a5.455,5.455,0,0,1,1.143-1.4l.747-.686A2.019,2.019,0,0,0,3.621-4.9l.044-.633ZM5-6.724a1.7,1.7,0,0,1-1.173-.417,1.364,1.364,0,0,1-.47-1.068,1.364,1.364,0,0,1,.47-1.068A1.7,1.7,0,0,1,5-9.694a1.674,1.674,0,0,1,1.182.426,1.383,1.383,0,0,1,.461,1.059A1.383,1.383,0,0,1,6.183-7.15,1.674,1.674,0,0,1,5-6.724Zm15.987.589a7.562,7.562,0,0,1-.589,3.1A5.385,5.385,0,0,1,18.773-.914L20.839.721,18.932,2.338,16.181.123a5.718,5.718,0,0,1-.773.053,5.547,5.547,0,0,1-2.9-.756,5.141,5.141,0,0,1-1.973-2.162A7.343,7.343,0,0,1,9.8-5.977v-.677a7.572,7.572,0,0,1,.69-3.322,5.142,5.142,0,0,1,1.969-2.215,5.5,5.5,0,0,1,2.931-.782,5.479,5.479,0,0,1,2.9.773A5.211,5.211,0,0,1,20.272-10a7.362,7.362,0,0,1,.716,3.274Zm-3.138-.536a5.381,5.381,0,0,0-.637-2.9,2.044,2.044,0,0,0-1.824-.989,2.03,2.03,0,0,0-1.837.976,5.451,5.451,0,0,0-.624,2.856v.589a5.531,5.531,0,0,0,.624,2.9,2.043,2.043,0,0,0,1.854,1.006,2.014,2.014,0,0,0,1.806-.993,5.414,5.414,0,0,0,.637-2.856ZM28.09-1.028a3.054,3.054,0,0,1-2.54,1.2,3,3,0,0,1-2.369-.91,3.826,3.826,0,0,1-.8-2.615V-9.51h2.962v6.179a1.065,1.065,0,0,0,1.187,1.222,1.548,1.548,0,0,0,1.45-.729V-9.51h2.979V0H28.178Zm9.088,1.2a4.889,4.889,0,0,1-3.542-1.305,4.507,4.507,0,0,1-1.354-3.4v-.246a5.84,5.84,0,0,1,.541-2.575A3.955,3.955,0,0,1,34.4-9.075a4.763,4.763,0,0,1,2.461-.611,4.117,4.117,0,0,1,3.164,1.244,4.887,4.887,0,0,1,1.16,3.467v1.151H35.3a2.135,2.135,0,0,0,.694,1.257,2.066,2.066,0,0,0,1.389.457,2.662,2.662,0,0,0,2.2-.984l1.354,1.6A3.784,3.784,0,0,1,39.362-.277,5.3,5.3,0,0,1,37.178.176ZM36.844-7.4q-1.3,0-1.547,1.723h2.988v-.229a1.467,1.467,0,0,0-.36-1.1A1.434,1.434,0,0,0,36.844-7.4Zm-.035-6.108h3.129l-2.443,2.76-2.417,0Zm7.761,9.457a5.721,5.721,0,0,1,.29-2.026,3.168,3.168,0,0,1,.94-1.288,6.252,6.252,0,0,0,.989-1,1.628,1.628,0,0,0,.338-1q0-1.327-1.143-1.327a1.06,1.06,0,0,0-.853.387,1.645,1.645,0,0,0-.343,1.046H41.818a3.544,3.544,0,0,1,1.107-2.738,4.415,4.415,0,0,1,3.059-.98,4.587,4.587,0,0,1,3.037.905A3.177,3.177,0,0,1,50.1-9.492a3,3,0,0,1-.29,1.327,4.485,4.485,0,0,1-.932,1.222L47.865-6a2.378,2.378,0,0,0-.6.848,3.361,3.361,0,0,0-.185,1.1Zm-.36,2.672a1.364,1.364,0,0,1,.47-1.068,1.7,1.7,0,0,1,1.173-.417,1.7,1.7,0,0,1,1.173.417A1.364,1.364,0,0,1,47.5-1.38a1.364,1.364,0,0,1-.47,1.068,1.7,1.7,0,0,1-1.173.417,1.7,1.7,0,0,1-1.173-.417A1.364,1.364,0,0,1,44.209-1.38Z" transform="translate(355.051 3958)" fill="#12263f"/>
    <path id="Trazado_877955" data-name="Trazado 877955" d="M-33.4-5.432h-4.852v3.059h5.73V0h-8.815V-12.8h8.833v2.382h-5.748v2.7H-33.4Zm6.979,2.76a.684.684,0,0,0-.4-.606,6.016,6.016,0,0,0-1.5-.475A6.853,6.853,0,0,1-30.151-4.4a3.062,3.062,0,0,1-1.1-.971,2.319,2.319,0,0,1-.378-1.31,2.628,2.628,0,0,1,1.081-2.158,4.453,4.453,0,0,1,2.83-.848,4.934,4.934,0,0,1,3.023.853A2.666,2.666,0,0,1-23.55-6.592h-2.971q0-1.143-1.2-1.143a1.194,1.194,0,0,0-.782.259.8.8,0,0,0-.316.646.737.737,0,0,0,.387.642,3.654,3.654,0,0,0,1.235.4,10.671,10.671,0,0,1,1.49.378A2.706,2.706,0,0,1-23.568-2.76,2.491,2.491,0,0,1-24.724-.642a5.068,5.068,0,0,1-2.993.817A5.172,5.172,0,0,1-29.9-.264a3.645,3.645,0,0,1-1.494-1.2,2.707,2.707,0,0,1-.536-1.591h2.769a1.145,1.145,0,0,0,.439.962,1.808,1.808,0,0,0,1.081.3,1.422,1.422,0,0,0,.91-.246A.787.787,0,0,0-26.424-2.672Zm13.069-2.013a5.735,5.735,0,0,1-1,3.538A3.2,3.2,0,0,1-17.046.176,2.742,2.742,0,0,1-19.2-.782V3.656h-2.962V-9.51h2.769l.088.879a2.742,2.742,0,0,1,2.241-1.055,3.224,3.224,0,0,1,2.733,1.3,5.805,5.805,0,0,1,.976,3.564Zm-2.962-.185q0-2.531-1.477-2.531a1.394,1.394,0,0,0-1.406.756V-2.9a1.439,1.439,0,0,0,1.424.791q1.415,0,1.459-2.443ZM-7.449.176a4.889,4.889,0,0,1-3.542-1.305,4.507,4.507,0,0,1-1.354-3.4v-.246A5.84,5.84,0,0,1-11.8-7.348a3.955,3.955,0,0,1,1.578-1.727,4.763,4.763,0,0,1,2.461-.611A4.117,4.117,0,0,1-4.6-8.442a4.887,4.887,0,0,1,1.16,3.467v1.151H-9.33a2.135,2.135,0,0,0,.694,1.257,2.066,2.066,0,0,0,1.389.457,2.662,2.662,0,0,0,2.2-.984l1.354,1.6A3.784,3.784,0,0,1-5.265-.277,5.3,5.3,0,0,1-7.449.176ZM-7.783-7.4q-1.3,0-1.547,1.723h2.988v-.229a1.467,1.467,0,0,0-.36-1.1A1.434,1.434,0,0,0-7.783-7.4ZM1.771-2.109a1.317,1.317,0,0,0,.967-.338,1.241,1.241,0,0,0,.334-.945H5.849A3.288,3.288,0,0,1,4.729-.826a4.168,4.168,0,0,1-2.887,1,4.22,4.22,0,0,1-3.27-1.3,5.125,5.125,0,0,1-1.2-3.6v-.123A5.792,5.792,0,0,1-2.092-7.4a3.872,3.872,0,0,1,1.534-1.7,4.573,4.573,0,0,1,2.373-.593A4.116,4.116,0,0,1,4.759-8.657a3.647,3.647,0,0,1,1.09,2.786H3.072A1.626,1.626,0,0,0,2.711-7a1.244,1.244,0,0,0-.967-.4Q.593-7.4.4-5.933A10.357,10.357,0,0,0,.338-4.649,4.068,4.068,0,0,0,.681-2.663,1.187,1.187,0,0,0,1.771-2.109ZM10.332,0H7.352V-9.51h2.979ZM9.224-13.324h3.129L9.91-10.564l-2.417,0ZM12.924,0V-7.453h-1.38V-9.51h1.38v-.316a3.631,3.631,0,0,1,1.248-2.909,4.987,4.987,0,0,1,3.243-.949,11.509,11.509,0,0,1,3.094.51l-.4,2.338-.492-.132a7.832,7.832,0,0,0-2.021-.255q-1.7,0-1.7,1.547v.167h1.863v2.057H15.9V0Zm8.947,0H18.892V-9.51h2.979ZM27.7-2.109a1.317,1.317,0,0,0,.967-.338A1.241,1.241,0,0,0,29-3.393h2.777A3.288,3.288,0,0,1,30.656-.826a4.168,4.168,0,0,1-2.887,1,4.22,4.22,0,0,1-3.27-1.3,5.125,5.125,0,0,1-1.2-3.6v-.123A5.792,5.792,0,0,1,23.836-7.4a3.872,3.872,0,0,1,1.534-1.7,4.573,4.573,0,0,1,2.373-.593,4.116,4.116,0,0,1,2.944,1.028,3.647,3.647,0,0,1,1.09,2.786H29A1.626,1.626,0,0,0,28.639-7a1.244,1.244,0,0,0-.967-.4q-1.151,0-1.345,1.468a10.357,10.357,0,0,0-.062,1.283,4.068,4.068,0,0,0,.343,1.986A1.187,1.187,0,0,0,27.7-2.109Zm4.957-2.733a5.613,5.613,0,0,1,.554-2.536A3.96,3.96,0,0,1,34.8-9.088a4.791,4.791,0,0,1,2.435-.6A4.373,4.373,0,0,1,40.6-8.363a5.076,5.076,0,0,1,1.23,3.6v.105A4.925,4.925,0,0,1,40.6-1.129,4.384,4.384,0,0,1,37.252.176a4.434,4.434,0,0,1-3.261-1.217,4.761,4.761,0,0,1-1.327-3.3Zm2.962.185a3.538,3.538,0,0,0,.413,1.934,1.376,1.376,0,0,0,1.222.615q1.582,0,1.617-2.435v-.3q0-2.558-1.635-2.558-1.485,0-1.608,2.206Z" transform="translate(380.051 4213)" fill="#12263f"/>
    <path id="Trazado_877943" data-name="Trazado 877943" d="M13-22.865a8.521,8.521,0,0,0-3.22-7.09Q6.558-32.5-1.536-35.213a108.546,108.546,0,0,1-13.234-5.258q-16.72-8.212-16.72-22.569a20.239,20.239,0,0,1,4.165-12.614,26.941,26.941,0,0,1,11.787-8.508A45.869,45.869,0,0,1,1.6-87.205,40.122,40.122,0,0,1,18.227-83.9a26.332,26.332,0,0,1,11.432,9.424A24.609,24.609,0,0,1,33.736-60.5H13.057q0-5.258-3.22-8.153t-8.715-2.9q-5.554,0-8.774,2.452a7.521,7.521,0,0,0-3.22,6.233q0,3.309,3.545,6T5.14-51.313a76.367,76.367,0,0,1,14.652,6.174Q33.736-37.1,33.736-22.983q0,11.285-8.508,17.725T1.891,1.182A46.3,46.3,0,0,1-17.045-2.57,28.55,28.55,0,0,1-29.807-12.85,26.786,26.786,0,0,1-34.09-27.887h20.8q0,6.913,3.574,10.192t11.61,3.279q5.14,0,8.124-2.216A7.313,7.313,0,0,0,13-22.865Z" transform="translate(380.051 4118)" fill="#fff"/>
    <path id="Trazado_877944" data-name="Trazado 877944" d="M-19.29-86.023l19.2,59.85,19.143-59.85h27.3V0h-20.8V-20.088l2.009-41.121L6.765,0H-6.942L-27.8-61.268l2.009,41.18V0H-46.527V-86.023Z" transform="translate(590.051 4118)" fill="#fff"/>
    <path id="Trazado_877945" data-name="Trazado 877945" d="M14.15-16.07H-14.268L-19.231,0H-41.387l31.55-86.023H9.66L41.446,0H19.172ZM-9.305-32.082H9.187L-.089-61.918Z" transform="translate(800.051 4118)" fill="#fff"/>
    <path id="Trazado_877949" data-name="Trazado 877949" d="M-1-30.427H-12.23V0H-32.968V-86.023H.886q15.3,0,23.928,6.787T33.44-60.055q0,8.971-3.634,14.873T18.434-35.621L36.395-.887V0H14.18ZM-12.23-46.379H.886q5.908,0,8.892-3.11t2.984-8.677q0-5.568-3.013-8.736T.886-70.071H-12.23Z" transform="translate(1010.051 4118)" fill="#fff"/>
    <path id="Trazado_877953" data-name="Trazado 877953" d="M35.892-70.012H10.073V0H-10.664V-70.012H-36.01V-86.023h71.9Z" transform="translate(1220.051 4118)" fill="#fff"/>
    <path id="Trazado_877956" data-name="Trazado 877956" d="M-27.747-12.8l2.856,8.9,2.848-8.9h4.061V0h-3.094V-2.988l.3-6.117L-23.871,0H-25.91l-3.1-9.114.3,6.126V0H-31.8V-12.8ZM-11.558.176A4.889,4.889,0,0,1-15.1-1.129a4.507,4.507,0,0,1-1.354-3.4v-.246a5.84,5.84,0,0,1,.541-2.575,3.955,3.955,0,0,1,1.578-1.727,4.763,4.763,0,0,1,2.461-.611A4.117,4.117,0,0,1-8.71-8.442,4.887,4.887,0,0,1-7.55-4.975v1.151h-5.889a2.135,2.135,0,0,0,.694,1.257,2.066,2.066,0,0,0,1.389.457,2.662,2.662,0,0,0,2.2-.984l1.354,1.6A3.784,3.784,0,0,1-9.374-.277,5.3,5.3,0,0,1-11.558.176ZM-11.892-7.4q-1.3,0-1.547,1.723h2.988v-.229a1.467,1.467,0,0,0-.36-1.1A1.434,1.434,0,0,0-11.892-7.4Zm5.159,2.575a5.809,5.809,0,0,1,.976-3.56,3.211,3.211,0,0,1,2.725-1.3,2.731,2.731,0,0,1,2.145,1V-13.5H2.083V0H-.58L-.729-1.02A2.8,2.8,0,0,1-3.05.176a3.205,3.205,0,0,1-2.689-1.3A5.993,5.993,0,0,1-6.732-4.825Zm2.962.185q0,2.531,1.477,2.531A1.458,1.458,0,0,0-.888-2.936V-6.557A1.419,1.419,0,0,0-2.276-7.4q-1.371,0-1.485,2.215ZM6.891,0H3.92V-9.51H6.891ZM3.744-11.962A1.322,1.322,0,0,1,4.2-13a1.724,1.724,0,0,1,1.187-.4,1.724,1.724,0,0,1,1.187.4,1.322,1.322,0,0,1,.457,1.037,1.322,1.322,0,0,1-.457,1.037,1.724,1.724,0,0,1-1.187.4,1.724,1.724,0,0,1-1.187-.4A1.322,1.322,0,0,1,3.744-11.962Zm13.8,7.286a5.8,5.8,0,0,1-.967,3.595A3.238,3.238,0,0,1,13.852.176,2.81,2.81,0,0,1,11.514-.976L11.391,0H8.736V-13.5H11.7v4.755a2.711,2.711,0,0,1,2.136-.94,3.239,3.239,0,0,1,2.742,1.274,5.826,5.826,0,0,1,.967,3.586Zm-2.971-.189a3.866,3.866,0,0,0-.365-1.952A1.229,1.229,0,0,0,13.087-7.4a1.418,1.418,0,0,0-1.389.763v3.773a1.426,1.426,0,0,0,1.406.755,1.258,1.258,0,0,0,1.327-1.018A7.309,7.309,0,0,0,14.572-4.865ZM21.973,0H19V-13.5h2.971ZM28.4.176a4.889,4.889,0,0,1-3.542-1.305,4.507,4.507,0,0,1-1.354-3.4v-.246a5.84,5.84,0,0,1,.541-2.575A3.955,3.955,0,0,1,25.62-9.075a4.763,4.763,0,0,1,2.461-.611,4.117,4.117,0,0,1,3.164,1.244,4.887,4.887,0,0,1,1.16,3.467v1.151H26.517a2.135,2.135,0,0,0,.694,1.257,2.066,2.066,0,0,0,1.389.457,2.662,2.662,0,0,0,2.2-.984l1.354,1.6A3.784,3.784,0,0,1,30.582-.277,5.3,5.3,0,0,1,28.4.176ZM28.063-7.4q-1.3,0-1.547,1.723H29.5v-.229a1.467,1.467,0,0,0-.36-1.1A1.434,1.434,0,0,0,28.063-7.4Z" transform="translate(590.051 4213)" fill="#12263f"/>
    <path id="Trazado_877957" data-name="Trazado 877957" d="M-36.747-2.391h-4.228L-41.713,0h-3.3l4.693-12.8h2.9L-32.687,0H-36Zm-3.489-2.382h2.751l-1.38-4.438ZM-28.767,0h-2.971V-13.5h2.971Zm5.845-2.109a1.317,1.317,0,0,0,.967-.338,1.241,1.241,0,0,0,.334-.945h2.777A3.288,3.288,0,0,1-19.964-.826a4.168,4.168,0,0,1-2.887,1,4.22,4.22,0,0,1-3.27-1.3,5.125,5.125,0,0,1-1.2-3.6v-.123A5.792,5.792,0,0,1-26.785-7.4a3.872,3.872,0,0,1,1.534-1.7,4.573,4.573,0,0,1,2.373-.593,4.116,4.116,0,0,1,2.944,1.028,3.647,3.647,0,0,1,1.09,2.786h-2.777A1.626,1.626,0,0,0-21.981-7a1.244,1.244,0,0,0-.967-.4q-1.151,0-1.345,1.468a10.357,10.357,0,0,0-.062,1.283,4.068,4.068,0,0,0,.343,1.986A1.187,1.187,0,0,0-22.922-2.109ZM-12.234,0a3.344,3.344,0,0,1-.281-.853A2.754,2.754,0,0,1-14.8.176a3.374,3.374,0,0,1-2.285-.813,2.588,2.588,0,0,1-.94-2.043,2.66,2.66,0,0,1,1.143-2.338,5.821,5.821,0,0,1,3.322-.791h.914v-.5q0-1.316-1.134-1.316a.927.927,0,0,0-1.055,1.042H-17.8a2.655,2.655,0,0,1,1.173-2.239,4.931,4.931,0,0,1,2.993-.86,4.323,4.323,0,0,1,2.874.888A3.086,3.086,0,0,1-9.677-6.363v4.21a4.311,4.311,0,0,0,.4,2V0Zm-1.854-1.934a1.652,1.652,0,0,0,.918-.237,1.487,1.487,0,0,0,.523-.536V-4.228h-.861q-1.547,0-1.547,1.389a.848.848,0,0,0,.272.655A.986.986,0,0,0-14.089-1.934ZM-5.317-9.51l.1,1.116A3.225,3.225,0,0,1-2.5-9.686,2.713,2.713,0,0,1-.286-8.8a4.226,4.226,0,0,1,.76,2.672V0H-2.5V-6a1.6,1.6,0,0,0-.29-1.059A1.342,1.342,0,0,0-3.841-7.4a1.413,1.413,0,0,0-1.292.686V0H-8.095V-9.51ZM5.607-2.285H9.94V0H1.863V-1.652L6.082-7.225H2.048V-9.51h7.8v1.6ZM16.734,0a3.344,3.344,0,0,1-.281-.853A2.754,2.754,0,0,1,14.168.176a3.374,3.374,0,0,1-2.285-.813,2.588,2.588,0,0,1-.94-2.043,2.66,2.66,0,0,1,1.143-2.338,5.821,5.821,0,0,1,3.322-.791h.914v-.5q0-1.316-1.134-1.316a.927.927,0,0,0-1.055,1.042H11.171a2.655,2.655,0,0,1,1.173-2.239,4.931,4.931,0,0,1,2.993-.86,4.323,4.323,0,0,1,2.874.888,3.086,3.086,0,0,1,1.081,2.435v4.21a4.311,4.311,0,0,0,.4,2V0ZM14.88-1.934a1.652,1.652,0,0,0,.918-.237,1.487,1.487,0,0,0,.523-.536V-4.228H15.46q-1.547,0-1.547,1.389a.848.848,0,0,0,.272.655A.986.986,0,0,0,14.88-1.934ZM29.76-4.676a5.8,5.8,0,0,1-.967,3.595A3.238,3.238,0,0,1,26.068.176,2.81,2.81,0,0,1,23.73-.976L23.607,0H20.953V-13.5h2.962v4.755a2.711,2.711,0,0,1,2.136-.94,3.239,3.239,0,0,1,2.742,1.274,5.826,5.826,0,0,1,.967,3.586Zm-2.971-.189a3.866,3.866,0,0,0-.365-1.952A1.229,1.229,0,0,0,25.3-7.4a1.418,1.418,0,0,0-1.389.763v3.773a1.426,1.426,0,0,0,1.406.755,1.258,1.258,0,0,0,1.327-1.018A7.309,7.309,0,0,0,26.789-4.865ZM34.189,0H31.219V-13.5h2.971Zm6.425.176a4.889,4.889,0,0,1-3.542-1.305,4.507,4.507,0,0,1-1.354-3.4v-.246a5.84,5.84,0,0,1,.541-2.575,3.955,3.955,0,0,1,1.578-1.727A4.763,4.763,0,0,1,40.3-9.686a4.117,4.117,0,0,1,3.164,1.244,4.887,4.887,0,0,1,1.16,3.467v1.151H38.733a2.135,2.135,0,0,0,.694,1.257,2.066,2.066,0,0,0,1.389.457,2.662,2.662,0,0,0,2.2-.984l1.354,1.6A3.784,3.784,0,0,1,42.8-.277,5.3,5.3,0,0,1,40.614.176ZM40.28-7.4q-1.3,0-1.547,1.723h2.988v-.229a1.467,1.467,0,0,0-.36-1.1A1.434,1.434,0,0,0,40.28-7.4Z" transform="translate(800.051 4213)" fill="#12263f"/>
    <path id="Trazado_877958" data-name="Trazado 877958" d="M-27.25-4.526h-1.67V0h-3.085V-12.8h5.036a5.621,5.621,0,0,1,3.56,1.01,3.421,3.421,0,0,1,1.283,2.853,4.155,4.155,0,0,1-.541,2.213A3.837,3.837,0,0,1-24.359-5.3l2.672,5.167V0h-3.3ZM-28.92-6.9h1.951a1.751,1.751,0,0,0,1.323-.463A1.788,1.788,0,0,0-25.2-8.653a1.809,1.809,0,0,0-.448-1.3,1.735,1.735,0,0,0-1.318-.471H-28.92ZM-15.8.176A4.889,4.889,0,0,1-19.34-1.129a4.507,4.507,0,0,1-1.354-3.4v-.246a5.84,5.84,0,0,1,.541-2.575,3.955,3.955,0,0,1,1.578-1.727,4.763,4.763,0,0,1,2.461-.611,4.117,4.117,0,0,1,3.164,1.244,4.887,4.887,0,0,1,1.16,3.467v1.151h-5.889a2.135,2.135,0,0,0,.694,1.257,2.066,2.066,0,0,0,1.389.457,2.662,2.662,0,0,0,2.2-.984l1.354,1.6A3.784,3.784,0,0,1-13.614-.277,5.3,5.3,0,0,1-15.8.176ZM-16.132-7.4q-1.3,0-1.547,1.723h2.988v-.229a1.467,1.467,0,0,0-.36-1.1A1.434,1.434,0,0,0-16.132-7.4ZM-5.243,0a3.344,3.344,0,0,1-.281-.853A2.754,2.754,0,0,1-7.809.176a3.374,3.374,0,0,1-2.285-.813,2.588,2.588,0,0,1-.94-2.043A2.66,2.66,0,0,1-9.892-5.019,5.821,5.821,0,0,1-6.57-5.81h.914v-.5q0-1.316-1.134-1.316A.927.927,0,0,0-7.844-6.587h-2.962A2.655,2.655,0,0,1-9.633-8.825a4.931,4.931,0,0,1,2.993-.86A4.323,4.323,0,0,1-3.766-8.8,3.086,3.086,0,0,1-2.685-6.363v4.21a4.311,4.311,0,0,0,.4,2V0ZM-7.1-1.934a1.652,1.652,0,0,0,.918-.237,1.487,1.487,0,0,0,.523-.536V-4.228h-.861q-1.547,0-1.547,1.389a.848.848,0,0,0,.272.655A.986.986,0,0,0-7.1-1.934ZM2.079,0H-.892V-13.5H2.079ZM7.027,0H4.056V-9.51H7.027ZM3.88-11.962A1.322,1.322,0,0,1,4.337-13a1.724,1.724,0,0,1,1.187-.4A1.724,1.724,0,0,1,6.71-13a1.322,1.322,0,0,1,.457,1.037,1.322,1.322,0,0,1-.457,1.037,1.724,1.724,0,0,1-1.187.4,1.724,1.724,0,0,1-1.187-.4A1.322,1.322,0,0,1,3.88-11.962Zm9.949,9.29a.684.684,0,0,0-.4-.606,6.016,6.016,0,0,0-1.5-.475A6.853,6.853,0,0,1,10.1-4.4,3.062,3.062,0,0,1,9-5.37a2.319,2.319,0,0,1-.378-1.31A2.628,2.628,0,0,1,9.708-8.837a4.453,4.453,0,0,1,2.83-.848,4.934,4.934,0,0,1,3.023.853A2.666,2.666,0,0,1,16.7-6.592H13.733q0-1.143-1.2-1.143a1.194,1.194,0,0,0-.782.259.8.8,0,0,0-.316.646.737.737,0,0,0,.387.642,3.654,3.654,0,0,0,1.235.4,10.671,10.671,0,0,1,1.49.378A2.706,2.706,0,0,1,16.686-2.76,2.491,2.491,0,0,1,15.53-.642a5.068,5.068,0,0,1-2.993.817,5.172,5.172,0,0,1-2.18-.439,3.645,3.645,0,0,1-1.494-1.2A2.707,2.707,0,0,1,8.328-3.05H11.1a1.145,1.145,0,0,0,.439.962,1.808,1.808,0,0,0,1.081.3,1.422,1.422,0,0,0,.91-.246A.787.787,0,0,0,13.83-2.672Zm7.69-9.2V-9.51h1.564v2.057H21.52V-3.1a1.111,1.111,0,0,0,.193.747,1.037,1.037,0,0,0,.765.211,4.345,4.345,0,0,0,.738-.053V-.079a5.466,5.466,0,0,1-1.67.255,3.1,3.1,0,0,1-2.259-.721,2.954,2.954,0,0,1-.729-2.188v-4.72H17.345V-9.51h1.213v-2.364ZM29.606,0a3.344,3.344,0,0,1-.281-.853A2.754,2.754,0,0,1,27.04.176a3.374,3.374,0,0,1-2.285-.813,2.588,2.588,0,0,1-.94-2.043,2.66,2.66,0,0,1,1.143-2.338,5.821,5.821,0,0,1,3.322-.791h.914v-.5q0-1.316-1.134-1.316A.927.927,0,0,0,27-6.587H24.042a2.655,2.655,0,0,1,1.173-2.239,4.931,4.931,0,0,1,2.993-.86,4.323,4.323,0,0,1,2.874.888,3.086,3.086,0,0,1,1.081,2.435v4.21a4.311,4.311,0,0,0,.4,2V0ZM27.751-1.934a1.652,1.652,0,0,0,.918-.237,1.487,1.487,0,0,0,.523-.536V-4.228h-.861q-1.547,0-1.547,1.389a.848.848,0,0,0,.272.655A.986.986,0,0,0,27.751-1.934Z" transform="translate(1010.051 4213)" fill="#12263f"/>
    <path id="Trazado_877959" data-name="Trazado 877959" d="M-19.907-10.415h-3.841V0h-3.085V-10.415H-30.6V-12.8h10.7ZM-15.618,0h-2.971V-9.51h2.971Zm-3.146-11.962A1.322,1.322,0,0,1-18.308-13a1.724,1.724,0,0,1,1.187-.4,1.724,1.724,0,0,1,1.187.4,1.322,1.322,0,0,1,.457,1.037,1.322,1.322,0,0,1-.457,1.037,1.724,1.724,0,0,1-1.187.4,1.724,1.724,0,0,1-1.187-.4A1.322,1.322,0,0,1-18.765-11.962ZM-9.193.176a4.889,4.889,0,0,1-3.542-1.305,4.507,4.507,0,0,1-1.354-3.4v-.246a5.84,5.84,0,0,1,.541-2.575,3.955,3.955,0,0,1,1.578-1.727A4.763,4.763,0,0,1-9.51-9.686,4.117,4.117,0,0,1-6.346-8.442a4.887,4.887,0,0,1,1.16,3.467v1.151h-5.889a2.135,2.135,0,0,0,.694,1.257,2.066,2.066,0,0,0,1.389.457,2.662,2.662,0,0,0,2.2-.984l1.354,1.6A3.784,3.784,0,0,1-7.009-.277,5.3,5.3,0,0,1-9.193.176ZM-9.527-7.4q-1.3,0-1.547,1.723h2.988v-.229a1.467,1.467,0,0,0-.36-1.1A1.434,1.434,0,0,0-9.527-7.4ZM-1.2-9.51l.1,1.116A3.27,3.27,0,0,1,1.617-9.686,2.407,2.407,0,0,1,4.052-8.253,3.165,3.165,0,0,1,6.847-9.686q2.892,0,2.971,3.5V0H6.847V-6A1.813,1.813,0,0,0,6.6-7.066,1.048,1.048,0,0,0,5.7-7.4a1.4,1.4,0,0,0-1.31.782L4.4-6.5V0H1.433V-5.985A1.906,1.906,0,0,0,1.2-7.066,1.045,1.045,0,0,0,.29-7.4a1.42,1.42,0,0,0-1.3.782V0H-3.973V-9.51ZM20.338-4.685a5.735,5.735,0,0,1-1,3.538A3.2,3.2,0,0,1,16.646.176a2.742,2.742,0,0,1-2.153-.958V3.656H11.531V-9.51H14.3l.088.879a2.742,2.742,0,0,1,2.241-1.055,3.224,3.224,0,0,1,2.733,1.3,5.805,5.805,0,0,1,.976,3.564Zm-2.962-.185Q17.376-7.4,15.9-7.4a1.394,1.394,0,0,0-1.406.756V-2.9a1.439,1.439,0,0,0,1.424.791q1.415,0,1.459-2.443Zm3.894.026a5.613,5.613,0,0,1,.554-2.536,3.96,3.96,0,0,1,1.591-1.709,4.791,4.791,0,0,1,2.435-.6,4.373,4.373,0,0,1,3.366,1.323,5.076,5.076,0,0,1,1.23,3.6v.105A4.925,4.925,0,0,1,29.21-1.129,4.384,4.384,0,0,1,25.866.176a4.434,4.434,0,0,1-3.261-1.217,4.761,4.761,0,0,1-1.327-3.3Zm2.962.185a3.538,3.538,0,0,0,.413,1.934,1.376,1.376,0,0,0,1.222.615q1.582,0,1.617-2.435v-.3q0-2.558-1.635-2.558-1.485,0-1.608,2.206Z" transform="translate(1220.051 4213)" fill="#12263f"/>
    <path id="Trazado_877960" data-name="Trazado 877960" d="M-25.414-3.463Q-25.22-4.456-26.486-5l-1.441-.6q-3.032-1.362-2.883-3.709a3.274,3.274,0,0,1,.738-1.912A4.385,4.385,0,0,1-28.2-12.524a6.889,6.889,0,0,1,2.61-.448,4.439,4.439,0,0,1,3.054,1.107A3.679,3.679,0,0,1-21.4-8.991h-2.988a1.79,1.79,0,0,0-.312-1.182,1.351,1.351,0,0,0-1.112-.461,2.33,2.33,0,0,0-1.336.352,1.426,1.426,0,0,0-.686.993q-.167.879,1.305,1.441a14.352,14.352,0,0,1,2.14.967,3.534,3.534,0,0,1,1.969,3.393,3.474,3.474,0,0,1-.712,1.942,4.115,4.115,0,0,1-1.78,1.292,6.576,6.576,0,0,1-2.553.439,6.164,6.164,0,0,1-1.925-.325,4.235,4.235,0,0,1-1.521-.9,3.9,3.9,0,0,1-1.23-3.12l3.015.009a2.064,2.064,0,0,0,.378,1.49,1.816,1.816,0,0,0,1.45.505A2.176,2.176,0,0,0-26.033-2.5,1.441,1.441,0,0,0-25.414-3.463ZM-12.16-4.746a7.9,7.9,0,0,1-.782,2.659A4.348,4.348,0,0,1-14.423-.356,3.417,3.417,0,0,1-16.4.185,2.584,2.584,0,0,1-18.417-.8l-.861,4.456H-22.17L-19.885-9.51l2.672-.009-.149.905A2.8,2.8,0,0,1-15.1-9.686a2.662,2.662,0,0,1,2.167.993,4.388,4.388,0,0,1,.831,2.663A10.274,10.274,0,0,1-12.16-4.746Zm-2.812-1.178q-.044-1.45-.984-1.477a1.7,1.7,0,0,0-1.521.747l-.677,3.771a1.173,1.173,0,0,0,1.213.782q1.538.026,1.89-2.646Q-14.972-5.59-14.972-5.924Zm8.06,6.1a4.421,4.421,0,0,1-2.272-.6,3.793,3.793,0,0,1-1.507-1.652,4.44,4.44,0,0,1-.4-2.333l.026-.246a5.829,5.829,0,0,1,1.63-3.713A4.51,4.51,0,0,1-6.025-9.686a3.678,3.678,0,0,1,2.092.621A3.468,3.468,0,0,1-2.659-7.4,5.1,5.1,0,0,1-2.4-5.02l-.167,1.206h-5.66A1.854,1.854,0,0,0-7.8-2.6a1.549,1.549,0,0,0,1.178.492,2.993,2.993,0,0,0,2.259-.967l1.213,1.6a3.578,3.578,0,0,1-1.5,1.2,5.263,5.263,0,0,1-2.1.451Zm.7-7.576a1.487,1.487,0,0,0-1.068.385,3.229,3.229,0,0,0-.787,1.347h2.892l.053-.254A1.929,1.929,0,0,0-5.1-6.5,1.017,1.017,0,0,0-6.209-7.4ZM2.36-2.109a1.244,1.244,0,0,0,.976-.345,1.717,1.717,0,0,0,.448-.938L6.491-3.4a3.559,3.559,0,0,1-.62,1.872A3.745,3.745,0,0,1,4.342-.25,4.521,4.521,0,0,1,2.281.176,3.57,3.57,0,0,1-.646-1.191a4.726,4.726,0,0,1-.835-3.441l.026-.211A6.371,6.371,0,0,1-.646-7.4,4.626,4.626,0,0,1,1.063-9.114a4.433,4.433,0,0,1,2.369-.571A3.536,3.536,0,0,1,6.056-8.626a3.755,3.755,0,0,1,.927,2.764L4.276-5.871Q4.32-7.374,3.195-7.4,1.666-7.453,1.437-4.834l-.079.893-.009.333Q1.349-2.136,2.36-2.109ZM10.165,0h-2.9L8.917-9.51h2.9ZM9.171-11.909a1.341,1.341,0,0,1,.453-1.072,1.625,1.625,0,0,1,1.138-.431,1.678,1.678,0,0,1,1.129.387,1.318,1.318,0,0,1,.47,1.011,1.344,1.344,0,0,1-.448,1.077,1.63,1.63,0,0,1-1.143.426,1.7,1.7,0,0,1-1.121-.382A1.3,1.3,0,0,1,9.171-11.909ZM12.669,0l1.292-7.453H12.625l.36-2.057,1.248.009.07-.36a4.662,4.662,0,0,1,1.639-2.856,5.076,5.076,0,0,1,3.283-.976,13.29,13.29,0,0,1,3.023.5l-.615,2.355a7.643,7.643,0,0,0-2.391-.413,2.326,2.326,0,0,0-1.31.365,1.816,1.816,0,0,0-.747,1.121l-.062.264,1.907-.009-.369,2.057h-1.8L15.57,0Zm8.692,0h-2.9L20.1-9.51h2.909Zm6.231-2.109a1.244,1.244,0,0,0,.976-.345,1.717,1.717,0,0,0,.448-.938L31.724-3.4a3.559,3.559,0,0,1-.62,1.872A3.745,3.745,0,0,1,29.575-.25a4.521,4.521,0,0,1-2.061.426,3.57,3.57,0,0,1-2.927-1.367,4.726,4.726,0,0,1-.835-3.441l.026-.211A6.371,6.371,0,0,1,24.587-7.4,4.626,4.626,0,0,1,26.3-9.114a4.433,4.433,0,0,1,2.369-.571,3.536,3.536,0,0,1,2.624,1.059,3.755,3.755,0,0,1,.927,2.764l-2.707-.009q.044-1.5-1.081-1.529Q26.9-7.453,26.67-4.834l-.079.893-.009.333Q26.583-2.136,27.593-2.109Z" transform="translate(380.051 4235)" fill="#8f8f8f"/>
    <path id="Trazado_877961" data-name="Trazado 877961" d="M-40.614-12.8l1.222,8.877L-35.1-12.8H-31.1L-33.311,0h-3.023l.545-3.138,1.3-5.783L-38.971,0h-2l-1.45-9.255-.809,6.416L-43.726,0h-3.006l2.215-12.8ZM-26.745.176a4.421,4.421,0,0,1-2.272-.6,3.793,3.793,0,0,1-1.507-1.652,4.44,4.44,0,0,1-.4-2.333l.026-.246a5.829,5.829,0,0,1,1.63-3.713,4.51,4.51,0,0,1,3.415-1.314,3.678,3.678,0,0,1,2.092.621A3.468,3.468,0,0,1-22.491-7.4a5.1,5.1,0,0,1,.264,2.381l-.167,1.206h-5.66A1.854,1.854,0,0,0-27.633-2.6a1.549,1.549,0,0,0,1.178.492A2.993,2.993,0,0,0-24.2-3.076l1.213,1.6a3.578,3.578,0,0,1-1.5,1.2,5.263,5.263,0,0,1-2.1.451Zm.7-7.576a1.487,1.487,0,0,0-1.068.385A3.229,3.229,0,0,0-27.9-5.669H-25l.053-.254a1.929,1.929,0,0,0,.018-.577A1.017,1.017,0,0,0-26.042-7.4ZM-16.515,0a2.578,2.578,0,0,1-.123-.861A2.933,2.933,0,0,1-18.967.176,2.866,2.866,0,0,1-21.023-.65a2.483,2.483,0,0,1-.765-1.96A2.79,2.79,0,0,1-20.5-4.988a6.091,6.091,0,0,1,3.41-.831l.967.018.105-.536.035-.466a.755.755,0,0,0-.8-.826,1.111,1.111,0,0,0-1.169,1.046l-2.9.009a2.754,2.754,0,0,1,.624-1.666,3.7,3.7,0,0,1,1.578-1.09,5.512,5.512,0,0,1,2.123-.356,4.251,4.251,0,0,1,1.894.453,2.82,2.82,0,0,1,1.217,1.187A3.031,3.031,0,0,1-13.1-6.293l-.712,4.474-.044.545a2.4,2.4,0,0,0,.167,1.107L-13.7,0Zm-1.652-1.916A1.865,1.865,0,0,0-16.611-2.7l.29-1.529-.747-.009a1.969,1.969,0,0,0-1.2.409,1.55,1.55,0,0,0-.589,1.068.778.778,0,0,0,.136.593A.7.7,0,0,0-18.167-1.916Zm11-.809q.114-.58-.9-.87l-.624-.158a4.806,4.806,0,0,1-2.241-1.134,2.244,2.244,0,0,1-.668-1.731,2.758,2.758,0,0,1,1.217-2.228,4.633,4.633,0,0,1,2.861-.839,4.292,4.292,0,0,1,2.72.853,2.781,2.781,0,0,1,1.059,2.25l-2.883-.009q.035-1.125-.993-1.125a1.417,1.417,0,0,0-.817.259,1.007,1.007,0,0,0-.448.69q-.149.712,1.257.976a7.3,7.3,0,0,1,1.89.672,2.821,2.821,0,0,1,1.02.945,2.35,2.35,0,0,1,.325,1.354,2.541,2.541,0,0,1-.562,1.538A3.642,3.642,0,0,1-6.5-.2,5.557,5.557,0,0,1-8.7.176a4.469,4.469,0,0,1-1.912-.431A3.408,3.408,0,0,1-11.993-1.4a2.979,2.979,0,0,1-.514-1.666l2.689.018A1.111,1.111,0,0,0-8.552-1.8a1.661,1.661,0,0,0,.914-.242A1.045,1.045,0,0,0-7.163-2.725ZM2.391-1.037A3.148,3.148,0,0,1-.176.185a2.492,2.492,0,0,1-2.1-.976A3.6,3.6,0,0,1-2.83-3.357L-1.8-9.51H1.09L.044-3.315a2.064,2.064,0,0,0,0,.466A.766.766,0,0,0,.9-2.1a1.868,1.868,0,0,0,1.556-.722L3.63-9.51H6.539L4.887,0H2.2ZM13.307-6.829a8.273,8.273,0,0,0-.9-.088,2.233,2.233,0,0,0-1.986.9L9.352,0H6.46L8.112-9.51l2.7-.009-.22,1.248a2.64,2.64,0,0,1,2.2-1.441,4.144,4.144,0,0,1,.9.123ZM18.246,0a2.578,2.578,0,0,1-.123-.861A2.933,2.933,0,0,1,15.794.176,2.866,2.866,0,0,1,13.737-.65a2.483,2.483,0,0,1-.765-1.96,2.79,2.79,0,0,1,1.292-2.377,6.091,6.091,0,0,1,3.41-.831l.967.018.105-.536.035-.466a.755.755,0,0,0-.8-.826,1.111,1.111,0,0,0-1.169,1.046l-2.9.009a2.754,2.754,0,0,1,.624-1.666,3.7,3.7,0,0,1,1.578-1.09,5.512,5.512,0,0,1,2.123-.356,4.251,4.251,0,0,1,1.894.453,2.82,2.82,0,0,1,1.217,1.187,3.031,3.031,0,0,1,.308,1.753l-.712,4.474-.044.545a2.4,2.4,0,0,0,.167,1.107L21.059,0ZM16.594-1.916A1.865,1.865,0,0,0,18.149-2.7l.29-1.529-.747-.009a1.969,1.969,0,0,0-1.2.409,1.55,1.55,0,0,0-.589,1.068.778.778,0,0,0,.136.593A.7.7,0,0,0,16.594-1.916ZM31.623-4.737A6.891,6.891,0,0,1,30.261-1.1,3.409,3.409,0,0,1,27.4.185,2.522,2.522,0,0,1,25.233-.993L24.873,0H22.254L24.6-13.5h2.892l-.94,4.772a2.87,2.87,0,0,1,2.136-.958,2.679,2.679,0,0,1,2.18,1,4.351,4.351,0,0,1,.826,2.667,9.674,9.674,0,0,1-.044,1.1Zm-2.874-.171a9.1,9.1,0,0,0,.079-1.018q0-1.413-1.011-1.474a1.732,1.732,0,0,0-1.5.763l-.686,3.791a1.163,1.163,0,0,0,1.2.746q1.415.044,1.784-1.843l.123-.781ZM35.2,0H32.3l2.338-13.5h2.9Zm6.565.176a4.421,4.421,0,0,1-2.272-.6,3.793,3.793,0,0,1-1.507-1.652,4.44,4.44,0,0,1-.4-2.333l.026-.246a5.829,5.829,0,0,1,1.63-3.713,4.51,4.51,0,0,1,3.415-1.314,3.678,3.678,0,0,1,2.092.621A3.468,3.468,0,0,1,46.02-7.4a5.1,5.1,0,0,1,.264,2.381l-.167,1.206h-5.66A1.854,1.854,0,0,0,40.878-2.6a1.549,1.549,0,0,0,1.178.492,2.993,2.993,0,0,0,2.259-.967l1.213,1.6a3.578,3.578,0,0,1-1.5,1.2,5.263,5.263,0,0,1-2.1.451Zm.7-7.576a1.487,1.487,0,0,0-1.068.385,3.229,3.229,0,0,0-.787,1.347h2.892l.053-.254a1.929,1.929,0,0,0,.018-.577A1.017,1.017,0,0,0,42.469-7.4Z" transform="translate(590.051 4235)" fill="#8f8f8f"/>
    <path id="Trazado_877962" data-name="Trazado 877962" d="M-36.554-2.4h-4.087L-41.774,0h-3.313l6.776-12.8h2.83L-33.117,0h-3.129Zm-2.962-2.373h2.654l-.562-4.412Zm11.7,2.663a1.244,1.244,0,0,0,.976-.345,1.717,1.717,0,0,0,.448-.938l2.707-.009a3.559,3.559,0,0,1-.62,1.872A3.745,3.745,0,0,1-25.835-.25,4.521,4.521,0,0,1-27.9.176a3.57,3.57,0,0,1-2.927-1.367,4.726,4.726,0,0,1-.835-3.441l.026-.211A6.371,6.371,0,0,1-30.823-7.4a4.626,4.626,0,0,1,1.709-1.718,4.433,4.433,0,0,1,2.369-.571,3.536,3.536,0,0,1,2.624,1.059,3.755,3.755,0,0,1,.927,2.764L-25.9-5.871q.044-1.5-1.081-1.529-1.529-.053-1.758,2.567l-.079.893-.009.333Q-28.828-2.136-27.817-2.109Zm8.938-6.363a3.107,3.107,0,0,1,2.452-1.222A2.472,2.472,0,0,1-14.3-8.648a3.981,3.981,0,0,1,.5,2.742L-14.792,0h-2.892l.993-5.948a3.079,3.079,0,0,0,.018-.563.878.878,0,0,0-.967-.9,1.873,1.873,0,0,0-1.389.572L-20.241,0h-2.892l2.347-13.5h2.892ZM-10.072,0h-2.9l1.652-9.51h2.9Zm-.993-11.909a1.341,1.341,0,0,1,.453-1.072,1.625,1.625,0,0,1,1.138-.431,1.678,1.678,0,0,1,1.129.387,1.318,1.318,0,0,1,.47,1.011,1.344,1.344,0,0,1-.448,1.077,1.63,1.63,0,0,1-1.143.426,1.7,1.7,0,0,1-1.121-.382A1.3,1.3,0,0,1-11.065-11.909ZM-3.507.176a4.421,4.421,0,0,1-2.272-.6A3.793,3.793,0,0,1-7.286-2.079a4.44,4.44,0,0,1-.4-2.333l.026-.246a5.829,5.829,0,0,1,1.63-3.713A4.51,4.51,0,0,1-2.619-9.686a3.678,3.678,0,0,1,2.092.621A3.468,3.468,0,0,1,.747-7.4,5.1,5.1,0,0,1,1.011-5.02L.844-3.814h-5.66A1.854,1.854,0,0,0-4.395-2.6a1.549,1.549,0,0,0,1.178.492A2.993,2.993,0,0,0-.958-3.076l1.213,1.6a3.578,3.578,0,0,1-1.5,1.2,5.263,5.263,0,0,1-2.1.451ZM-2.8-7.4a1.487,1.487,0,0,0-1.068.385,3.229,3.229,0,0,0-.787,1.347h2.892l.053-.254A1.929,1.929,0,0,0-1.7-6.5,1.017,1.017,0,0,0-2.8-7.4ZM5.546-3.56,7.928-9.51h3.12L6.548,0H3.6L2.083-9.51H5.054ZM15.583,0a2.578,2.578,0,0,1-.123-.861A2.933,2.933,0,0,1,13.131.176,2.866,2.866,0,0,1,11.074-.65a2.483,2.483,0,0,1-.765-1.96A2.79,2.79,0,0,1,11.6-4.988a6.091,6.091,0,0,1,3.41-.831l.967.018.105-.536.035-.466a.755.755,0,0,0-.8-.826A1.111,1.111,0,0,0,14.15-6.583l-2.9.009a2.754,2.754,0,0,1,.624-1.666,3.7,3.7,0,0,1,1.578-1.09,5.512,5.512,0,0,1,2.123-.356,4.251,4.251,0,0,1,1.894.453,2.82,2.82,0,0,1,1.217,1.187,3.031,3.031,0,0,1,.308,1.753l-.712,4.474-.044.545A2.4,2.4,0,0,0,18.4-.167L18.4,0ZM13.931-1.916A1.865,1.865,0,0,0,15.486-2.7l.29-1.529-.747-.009a1.969,1.969,0,0,0-1.2.409,1.55,1.55,0,0,0-.589,1.068.778.778,0,0,0,.136.593A.7.7,0,0,0,13.931-1.916ZM28.96-4.737A6.891,6.891,0,0,1,27.6-1.1,3.409,3.409,0,0,1,24.732.185,2.522,2.522,0,0,1,22.57-.993L22.21,0H19.591l2.347-13.5h2.892l-.94,4.772a2.87,2.87,0,0,1,2.136-.958,2.679,2.679,0,0,1,2.18,1,4.351,4.351,0,0,1,.826,2.667,9.674,9.674,0,0,1-.044,1.1Zm-2.874-.171a9.1,9.1,0,0,0,.079-1.018q0-1.413-1.011-1.474a1.732,1.732,0,0,0-1.5.763l-.686,3.791a1.163,1.163,0,0,0,1.2.746q1.415.044,1.784-1.843l.123-.781ZM32.537,0h-2.9l2.338-13.5h2.9ZM39.1.176a4.421,4.421,0,0,1-2.272-.6,3.793,3.793,0,0,1-1.507-1.652,4.44,4.44,0,0,1-.4-2.333l.026-.246a5.829,5.829,0,0,1,1.63-3.713A4.51,4.51,0,0,1,39.99-9.686a3.678,3.678,0,0,1,2.092.621A3.468,3.468,0,0,1,43.356-7.4,5.1,5.1,0,0,1,43.62-5.02l-.167,1.206h-5.66A1.854,1.854,0,0,0,38.215-2.6a1.549,1.549,0,0,0,1.178.492,2.993,2.993,0,0,0,2.259-.967l1.213,1.6a3.578,3.578,0,0,1-1.5,1.2,5.263,5.263,0,0,1-2.1.451Zm.7-7.576a1.487,1.487,0,0,0-1.068.385,3.229,3.229,0,0,0-.787,1.347h2.892l.053-.254a1.929,1.929,0,0,0,.018-.577A1.017,1.017,0,0,0,39.806-7.4Z" transform="translate(800.051 4235)" fill="#8f8f8f"/>
    <path id="Trazado_877963" data-name="Trazado 877963" d="M-29.2-4.526h-1.67L-31.658,0h-3.006l2.215-12.8,4.518.009a4.964,4.964,0,0,1,3.344,1.014A3.155,3.155,0,0,1-23.537-9a4.129,4.129,0,0,1-.8,2.3,4.708,4.708,0,0,1-1.969,1.436L-24.583-.15V0h-3.208ZM-30.463-6.9l1.758.018a2.215,2.215,0,0,0,1.252-.352,1.94,1.94,0,0,0,.76-.965,2.268,2.268,0,0,0,.132-1.185,1.18,1.18,0,0,0-1.248-1.031l-2.039-.009ZM-18.589.176a4.421,4.421,0,0,1-2.272-.6,3.793,3.793,0,0,1-1.507-1.652,4.44,4.44,0,0,1-.4-2.333l.026-.246a5.829,5.829,0,0,1,1.63-3.713A4.51,4.51,0,0,1-17.7-9.686a3.678,3.678,0,0,1,2.092.621A3.468,3.468,0,0,1-14.335-7.4a5.1,5.1,0,0,1,.264,2.381l-.167,1.206H-19.9A1.854,1.854,0,0,0-19.477-2.6a1.549,1.549,0,0,0,1.178.492,2.993,2.993,0,0,0,2.259-.967l1.213,1.6a3.578,3.578,0,0,1-1.5,1.2,5.263,5.263,0,0,1-2.1.451Zm.7-7.576a1.487,1.487,0,0,0-1.068.385,3.229,3.229,0,0,0-.787,1.347h2.892l.053-.254a1.929,1.929,0,0,0,.018-.577A1.017,1.017,0,0,0-17.886-7.4ZM-8.358,0a2.578,2.578,0,0,1-.123-.861A2.933,2.933,0,0,1-10.811.176,2.866,2.866,0,0,1-12.867-.65a2.483,2.483,0,0,1-.765-1.96A2.79,2.79,0,0,1-12.34-4.988a6.091,6.091,0,0,1,3.41-.831l.967.018.105-.536.035-.466a.755.755,0,0,0-.8-.826A1.111,1.111,0,0,0-9.791-6.583l-2.9.009a2.754,2.754,0,0,1,.624-1.666A3.7,3.7,0,0,1-10.49-9.33a5.512,5.512,0,0,1,2.123-.356,4.251,4.251,0,0,1,1.894.453A2.82,2.82,0,0,1-5.256-8.046a3.031,3.031,0,0,1,.308,1.753L-5.66-1.819l-.044.545A2.4,2.4,0,0,0-5.537-.167L-5.546,0Zm-1.652-1.916A1.865,1.865,0,0,0-8.455-2.7l.29-1.529-.747-.009a1.969,1.969,0,0,0-1.2.409A1.55,1.55,0,0,0-10.7-2.76a.778.778,0,0,0,.136.593A.7.7,0,0,0-10.011-1.916ZM-1.318,0h-2.9l2.338-13.5h2.9ZM3.568,0H.668L2.32-9.51h2.9ZM2.575-11.909a1.341,1.341,0,0,1,.453-1.072,1.625,1.625,0,0,1,1.138-.431,1.678,1.678,0,0,1,1.129.387,1.318,1.318,0,0,1,.47,1.011,1.344,1.344,0,0,1-.448,1.077,1.63,1.63,0,0,1-1.143.426,1.7,1.7,0,0,1-1.121-.382A1.3,1.3,0,0,1,2.575-11.909Zm8.191,9.185q.114-.58-.9-.87l-.624-.158A4.806,4.806,0,0,1,7-4.887a2.244,2.244,0,0,1-.668-1.731A2.758,2.758,0,0,1,7.554-8.846a4.633,4.633,0,0,1,2.861-.839,4.292,4.292,0,0,1,2.72.853,2.781,2.781,0,0,1,1.059,2.25l-2.883-.009q.035-1.125-.993-1.125a1.417,1.417,0,0,0-.817.259,1.007,1.007,0,0,0-.448.69q-.149.712,1.257.976a7.3,7.3,0,0,1,1.89.672,2.821,2.821,0,0,1,1.02.945,2.35,2.35,0,0,1,.325,1.354,2.541,2.541,0,0,1-.562,1.538A3.642,3.642,0,0,1,11.43-.2a5.557,5.557,0,0,1-2.2.378A4.469,4.469,0,0,1,7.317-.255,3.408,3.408,0,0,1,5.937-1.4a2.979,2.979,0,0,1-.514-1.666l2.689.018A1.111,1.111,0,0,0,9.378-1.8a1.661,1.661,0,0,0,.914-.242A1.045,1.045,0,0,0,10.767-2.725Zm9.1-9.149L19.45-9.51h1.521l-.36,2.057H19.09l-.738,4.368a1.164,1.164,0,0,0,.057.677q.119.229.593.246a6.873,6.873,0,0,0,.756-.044L19.547-.062a4.673,4.673,0,0,1-1.556.22,2.563,2.563,0,0,1-2.013-.791,2.7,2.7,0,0,1-.545-2.1l.773-4.72H15.029l.352-2.057h1.178l.413-2.364ZM23.572,0h-2.9l1.652-9.51h2.9Zm-.993-11.909a1.341,1.341,0,0,1,.453-1.072,1.625,1.625,0,0,1,1.138-.431,1.678,1.678,0,0,1,1.129.387,1.318,1.318,0,0,1,.47,1.011,1.344,1.344,0,0,1-.448,1.077,1.63,1.63,0,0,1-1.143.426,1.7,1.7,0,0,1-1.121-.382A1.3,1.3,0,0,1,22.579-11.909Zm7.233,9.8a1.244,1.244,0,0,0,.976-.345,1.717,1.717,0,0,0,.448-.938L33.943-3.4a3.559,3.559,0,0,1-.62,1.872A3.745,3.745,0,0,1,31.794-.25a4.521,4.521,0,0,1-2.061.426,3.57,3.57,0,0,1-2.927-1.367,4.726,4.726,0,0,1-.835-3.441L26-4.843A6.371,6.371,0,0,1,26.807-7.4a4.626,4.626,0,0,1,1.709-1.718,4.433,4.433,0,0,1,2.369-.571,3.536,3.536,0,0,1,2.624,1.059,3.755,3.755,0,0,1,.927,2.764l-2.707-.009q.044-1.5-1.081-1.529-1.529-.053-1.758,2.567l-.079.893-.009.333Q28.8-2.136,29.813-2.109Z" transform="translate(1010.051 4235)" fill="#8f8f8f"/>
    <path id="Trazado_877964" data-name="Trazado 877964" d="M-8.767-10.415h-3.727L-14.3,0H-17.31L-15.5-10.415h-3.665l.422-2.382H-8.354ZM-6.324,0h-2.9l1.652-9.51h2.9Zm-.993-11.909a1.341,1.341,0,0,1,.453-1.072,1.625,1.625,0,0,1,1.138-.431,1.678,1.678,0,0,1,1.129.387,1.318,1.318,0,0,1,.47,1.011,1.344,1.344,0,0,1-.448,1.077,1.63,1.63,0,0,1-1.143.426,1.7,1.7,0,0,1-1.121-.382A1.3,1.3,0,0,1-7.317-11.909ZM-.127-9.519-.321-8.376a3.414,3.414,0,0,1,2.777-1.31,2.509,2.509,0,0,1,1.415.4A1.843,1.843,0,0,1,4.61-8.253,3.619,3.619,0,0,1,7.5-9.686,2.241,2.241,0,0,1,9.457-8.7a4.117,4.117,0,0,1,.461,2.711L8.925,0h-2.9L7.036-5.987l.035-.518q0-.869-.817-.9a1.872,1.872,0,0,0-1.424.781L3.678,0H.778l1-5.969L1.815-6.5q0-.9-.817-.9a1.86,1.86,0,0,0-1.406.781L-1.578,0H-4.469l1.652-9.51ZM15.368.176a4.421,4.421,0,0,1-2.272-.6,3.793,3.793,0,0,1-1.507-1.652,4.44,4.44,0,0,1-.4-2.333l.026-.246a5.829,5.829,0,0,1,1.63-3.713,4.51,4.51,0,0,1,3.415-1.314,3.678,3.678,0,0,1,2.092.621A3.468,3.468,0,0,1,19.622-7.4a5.1,5.1,0,0,1,.264,2.381l-.167,1.206h-5.66A1.854,1.854,0,0,0,14.48-2.6a1.549,1.549,0,0,0,1.178.492,2.993,2.993,0,0,0,2.259-.967l1.213,1.6a3.578,3.578,0,0,1-1.5,1.2,5.263,5.263,0,0,1-2.1.451Zm.7-7.576A1.487,1.487,0,0,0,15-7.016a3.229,3.229,0,0,0-.787,1.347h2.892l.053-.254a1.929,1.929,0,0,0,.018-.577A1.017,1.017,0,0,0,16.071-7.4Z" transform="translate(1220.051 4235)" fill="#8f8f8f"/>
    <path id="Trazado_877938" data-name="Trazado 877938" d="M-31.834-5.537A5.964,5.964,0,0,1-32.1-3.511,3.026,3.026,0,0,1-33-2.268l-.58.536A2.292,2.292,0,0,0-34.4-.1a1.221,1.221,0,0,0,.294.91,1.046,1.046,0,0,0,.76.286,1.161,1.161,0,0,0,.918-.374A1.615,1.615,0,0,0-32.08-.334H-29.1a3.6,3.6,0,0,1-1.121,2.742,4.411,4.411,0,0,1-3.054.976,4.535,4.535,0,0,1-3.028-.91A3.192,3.192,0,0,1-37.371-.1a2.953,2.953,0,0,1,.334-1.375,5.455,5.455,0,0,1,1.143-1.4l.747-.686A2.019,2.019,0,0,0-34.392-4.9l.044-.633Zm-1.178-1.187a1.7,1.7,0,0,1-1.173-.417,1.364,1.364,0,0,1-.47-1.068,1.364,1.364,0,0,1,.47-1.068,1.7,1.7,0,0,1,1.173-.417,1.674,1.674,0,0,1,1.182.426,1.383,1.383,0,0,1,.461,1.059A1.383,1.383,0,0,1-31.83-7.15,1.674,1.674,0,0,1-33.012-6.724Zm15.486,2.391a4.673,4.673,0,0,1-.721,2.36A4.35,4.35,0,0,1-20.1-.387a6.3,6.3,0,0,1-2.72.563,5.025,5.025,0,0,1-3.973-1.644,6.786,6.786,0,0,1-1.45-4.641v-.633a7.746,7.746,0,0,1,.655-3.292,4.961,4.961,0,0,1,1.885-2.18,5.26,5.26,0,0,1,2.848-.769,5.516,5.516,0,0,1,3.744,1.226A4.844,4.844,0,0,1-17.5-8.376h-3.076a2.292,2.292,0,0,0-.589-1.679,2.422,2.422,0,0,0-1.687-.51,1.843,1.843,0,0,0-1.687.861A5.536,5.536,0,0,0-25.1-6.952v.905a6.126,6.126,0,0,0,.514,2.927,1.882,1.882,0,0,0,1.771.879,2.369,2.369,0,0,0,1.626-.5,2.126,2.126,0,0,0,.6-1.591Zm6.987,3.3a3.054,3.054,0,0,1-2.54,1.2,3,3,0,0,1-2.369-.91,3.826,3.826,0,0,1-.8-2.615V-9.51h2.962v6.179A1.065,1.065,0,0,0-12.1-2.109a1.548,1.548,0,0,0,1.45-.729V-9.51h2.979V0H-10.45ZM-.694,0A3.344,3.344,0,0,1-.976-.853,2.754,2.754,0,0,1-3.261.176,3.374,3.374,0,0,1-5.546-.637a2.588,2.588,0,0,1-.94-2.043A2.66,2.66,0,0,1-5.344-5.019,5.821,5.821,0,0,1-2.021-5.81h.914v-.5q0-1.316-1.134-1.316A.927.927,0,0,0-3.3-6.587H-6.258A2.655,2.655,0,0,1-5.084-8.825a4.931,4.931,0,0,1,2.993-.86A4.323,4.323,0,0,1,.782-8.8,3.086,3.086,0,0,1,1.863-6.363v4.21a4.311,4.311,0,0,0,.4,2V0ZM-2.549-1.934a1.652,1.652,0,0,0,.918-.237,1.487,1.487,0,0,0,.523-.536V-4.228h-.861q-1.547,0-1.547,1.389a.848.848,0,0,0,.272.655A.986.986,0,0,0-2.549-1.934ZM-1.811-13.5H1.318l-2.443,2.76-2.417,0ZM6.223-9.51l.1,1.116A3.225,3.225,0,0,1,9.035-9.686a2.713,2.713,0,0,1,2.219.888,4.226,4.226,0,0,1,.76,2.672V0H9.044V-6a1.6,1.6,0,0,0-.29-1.059A1.342,1.342,0,0,0,7.7-7.4a1.413,1.413,0,0,0-1.292.686V0H3.445V-9.51ZM17.1-11.874V-9.51h1.564v2.057H17.1V-3.1a1.111,1.111,0,0,0,.193.747,1.037,1.037,0,0,0,.765.211A4.345,4.345,0,0,0,18.8-2.2V-.079a5.466,5.466,0,0,1-1.67.255,3.1,3.1,0,0,1-2.259-.721,2.954,2.954,0,0,1-.729-2.188v-4.72H12.929V-9.51h1.213v-2.364ZM19.2-4.843a5.613,5.613,0,0,1,.554-2.536A3.96,3.96,0,0,1,21.34-9.088a4.791,4.791,0,0,1,2.435-.6,4.373,4.373,0,0,1,3.366,1.323,5.076,5.076,0,0,1,1.23,3.6v.105a4.925,4.925,0,0,1-1.235,3.529A4.384,4.384,0,0,1,23.792.176a4.434,4.434,0,0,1-3.261-1.217,4.761,4.761,0,0,1-1.327-3.3Zm2.962.185a3.538,3.538,0,0,0,.413,1.934,1.376,1.376,0,0,0,1.222.615q1.582,0,1.617-2.435v-.3q0-2.558-1.635-2.558-1.485,0-1.608,2.206Zm9.712.606a5.721,5.721,0,0,1,.29-2.026,3.168,3.168,0,0,1,.94-1.288,6.252,6.252,0,0,0,.989-1,1.628,1.628,0,0,0,.338-1q0-1.327-1.143-1.327a1.06,1.06,0,0,0-.853.387,1.645,1.645,0,0,0-.343,1.046H29.118a3.544,3.544,0,0,1,1.107-2.738,4.415,4.415,0,0,1,3.059-.98,4.587,4.587,0,0,1,3.037.905A3.177,3.177,0,0,1,37.4-9.492a3,3,0,0,1-.29,1.327,4.485,4.485,0,0,1-.932,1.222L35.165-6a2.378,2.378,0,0,0-.6.848,3.361,3.361,0,0,0-.185,1.1Zm-.36,2.672a1.364,1.364,0,0,1,.47-1.068,1.7,1.7,0,0,1,1.173-.417,1.7,1.7,0,0,1,1.173.417A1.364,1.364,0,0,1,34.8-1.38a1.364,1.364,0,0,1-.47,1.068,1.7,1.7,0,0,1-1.173.417,1.7,1.7,0,0,1-1.173-.417A1.364,1.364,0,0,1,31.509-1.38Z" transform="translate(590.051 3958)" fill="#12263f"/>
    <path id="Trazado_877946" data-name="Trazado 877946" d="M-26.754-5.537a5.964,5.964,0,0,1-.268,2.026,3.026,3.026,0,0,1-.9,1.244l-.58.536A2.292,2.292,0,0,0-29.32-.1a1.221,1.221,0,0,0,.294.91,1.046,1.046,0,0,0,.76.286,1.161,1.161,0,0,0,.918-.374A1.615,1.615,0,0,0-27-.334h2.979a3.6,3.6,0,0,1-1.121,2.742,4.411,4.411,0,0,1-3.054.976,4.535,4.535,0,0,1-3.028-.91A3.192,3.192,0,0,1-32.291-.1a2.953,2.953,0,0,1,.334-1.375,5.455,5.455,0,0,1,1.143-1.4l.747-.686A2.019,2.019,0,0,0-29.312-4.9l.044-.633Zm-1.178-1.187A1.7,1.7,0,0,1-29.1-7.141a1.364,1.364,0,0,1-.47-1.068,1.364,1.364,0,0,1,.47-1.068,1.7,1.7,0,0,1,1.173-.417,1.674,1.674,0,0,1,1.182.426,1.383,1.383,0,0,1,.461,1.059A1.383,1.383,0,0,1-26.75-7.15,1.674,1.674,0,0,1-27.932-6.724Zm15.486,2.391a4.673,4.673,0,0,1-.721,2.36,4.35,4.35,0,0,1-1.85,1.586,6.3,6.3,0,0,1-2.72.563,5.025,5.025,0,0,1-3.973-1.644,6.786,6.786,0,0,1-1.45-4.641v-.633a7.746,7.746,0,0,1,.655-3.292,4.961,4.961,0,0,1,1.885-2.18,5.26,5.26,0,0,1,2.848-.769,5.516,5.516,0,0,1,3.744,1.226,4.844,4.844,0,0,1,1.608,3.379H-15.5a2.292,2.292,0,0,0-.589-1.679,2.422,2.422,0,0,0-1.687-.51,1.843,1.843,0,0,0-1.687.861,5.536,5.536,0,0,0-.562,2.751v.905a6.126,6.126,0,0,0,.514,2.927,1.882,1.882,0,0,0,1.771.879,2.369,2.369,0,0,0,1.626-.5,2.126,2.126,0,0,0,.6-1.591Zm.949-.51a5.613,5.613,0,0,1,.554-2.536A3.96,3.96,0,0,1-9.352-9.088a4.791,4.791,0,0,1,2.435-.6A4.373,4.373,0,0,1-3.551-8.363a5.076,5.076,0,0,1,1.23,3.6v.105A4.925,4.925,0,0,1-3.555-1.129,4.384,4.384,0,0,1-6.9.176,4.434,4.434,0,0,1-10.16-1.042a4.761,4.761,0,0,1-1.327-3.3Zm2.962.185a3.538,3.538,0,0,0,.413,1.934A1.376,1.376,0,0,0-6.9-2.109q1.582,0,1.617-2.435v-.3q0-2.558-1.635-2.558Q-8.4-7.4-8.525-5.194ZM-6.513-13.5h3.129l-2.443,2.76-2.417,0Zm8.3,3.99.1,1.116A3.27,3.27,0,0,1,4.6-9.686,2.407,2.407,0,0,1,7.031-8.253,3.165,3.165,0,0,1,9.826-9.686q2.892,0,2.971,3.5V0H9.826V-6A1.813,1.813,0,0,0,9.58-7.066a1.048,1.048,0,0,0-.9-.334,1.4,1.4,0,0,0-1.31.782l.009.123V0H4.412V-5.985a1.906,1.906,0,0,0-.237-1.081A1.045,1.045,0,0,0,3.27-7.4a1.42,1.42,0,0,0-1.3.782V0H-.993V-9.51ZM14.115-4.843a5.613,5.613,0,0,1,.554-2.536A3.96,3.96,0,0,1,16.26-9.088a4.791,4.791,0,0,1,2.435-.6,4.373,4.373,0,0,1,3.366,1.323,5.076,5.076,0,0,1,1.23,3.6v.105a4.925,4.925,0,0,1-1.235,3.529A4.384,4.384,0,0,1,18.712.176a4.434,4.434,0,0,1-3.261-1.217,4.761,4.761,0,0,1-1.327-3.3Zm2.962.185a3.538,3.538,0,0,0,.413,1.934,1.376,1.376,0,0,0,1.222.615q1.582,0,1.617-2.435v-.3q0-2.558-1.635-2.558-1.485,0-1.608,2.206Zm9.712.606a5.721,5.721,0,0,1,.29-2.026,3.168,3.168,0,0,1,.94-1.288,6.252,6.252,0,0,0,.989-1,1.628,1.628,0,0,0,.338-1q0-1.327-1.143-1.327a1.06,1.06,0,0,0-.853.387,1.645,1.645,0,0,0-.343,1.046H24.038a3.544,3.544,0,0,1,1.107-2.738,4.415,4.415,0,0,1,3.059-.98,4.587,4.587,0,0,1,3.037.905,3.177,3.177,0,0,1,1.077,2.575,3,3,0,0,1-.29,1.327A4.485,4.485,0,0,1,31.1-6.943L30.085-6a2.378,2.378,0,0,0-.6.848,3.361,3.361,0,0,0-.185,1.1Zm-.36,2.672a1.364,1.364,0,0,1,.47-1.068,1.7,1.7,0,0,1,1.173-.417,1.7,1.7,0,0,1,1.173.417,1.364,1.364,0,0,1,.47,1.068,1.364,1.364,0,0,1-.47,1.068,1.7,1.7,0,0,1-1.173.417A1.7,1.7,0,0,1,26.9-.312,1.364,1.364,0,0,1,26.429-1.38Z" transform="translate(800.051 3958)" fill="#12263f"/>
    <path id="Trazado_877950" data-name="Trazado 877950" d="M-36.3-5.537a5.964,5.964,0,0,1-.268,2.026,3.026,3.026,0,0,1-.9,1.244l-.58.536A2.292,2.292,0,0,0-38.865-.1a1.221,1.221,0,0,0,.294.91,1.046,1.046,0,0,0,.76.286,1.161,1.161,0,0,0,.918-.374,1.615,1.615,0,0,0,.347-1.059h2.979a3.6,3.6,0,0,1-1.121,2.742,4.411,4.411,0,0,1-3.054.976,4.535,4.535,0,0,1-3.028-.91A3.192,3.192,0,0,1-41.836-.1,2.953,2.953,0,0,1-41.5-1.472a5.455,5.455,0,0,1,1.143-1.4l.747-.686A2.019,2.019,0,0,0-38.856-4.9l.044-.633Zm-1.178-1.187a1.7,1.7,0,0,1-1.173-.417,1.364,1.364,0,0,1-.47-1.068,1.364,1.364,0,0,1,.47-1.068,1.7,1.7,0,0,1,1.173-.417,1.674,1.674,0,0,1,1.182.426,1.383,1.383,0,0,1,.461,1.059,1.383,1.383,0,0,1-.461,1.059A1.674,1.674,0,0,1-37.477-6.724ZM-21.99-4.333a4.673,4.673,0,0,1-.721,2.36,4.35,4.35,0,0,1-1.85,1.586,6.3,6.3,0,0,1-2.72.563,5.025,5.025,0,0,1-3.973-1.644A6.786,6.786,0,0,1-32.7-6.108v-.633a7.746,7.746,0,0,1,.655-3.292,4.961,4.961,0,0,1,1.885-2.18,5.26,5.26,0,0,1,2.848-.769,5.516,5.516,0,0,1,3.744,1.226,4.844,4.844,0,0,1,1.608,3.379H-25.04a2.292,2.292,0,0,0-.589-1.679,2.422,2.422,0,0,0-1.687-.51A1.843,1.843,0,0,0-29-9.7a5.536,5.536,0,0,0-.562,2.751v.905a6.126,6.126,0,0,0,.514,2.927,1.882,1.882,0,0,0,1.771.879,2.369,2.369,0,0,0,1.626-.5,2.126,2.126,0,0,0,.6-1.591Zm.949-.51a5.613,5.613,0,0,1,.554-2.536A3.96,3.96,0,0,1-18.9-9.088a4.791,4.791,0,0,1,2.435-.6A4.373,4.373,0,0,1-13.1-8.363a5.076,5.076,0,0,1,1.23,3.6v.105A4.925,4.925,0,0,1-13.1-1.129,4.384,4.384,0,0,1-16.444.176a4.434,4.434,0,0,1-3.261-1.217,4.761,4.761,0,0,1-1.327-3.3Zm2.962.185a3.538,3.538,0,0,0,.413,1.934,1.376,1.376,0,0,0,1.222.615q1.582,0,1.617-2.435v-.3q0-2.558-1.635-2.558-1.485,0-1.608,2.206ZM-7.84-9.51l.1,1.116A3.225,3.225,0,0,1-5.027-9.686,2.713,2.713,0,0,1-2.808-8.8a4.226,4.226,0,0,1,.76,2.672V0H-5.019V-6a1.6,1.6,0,0,0-.29-1.059A1.342,1.342,0,0,0-6.363-7.4a1.413,1.413,0,0,0-1.292.686V0h-2.962V-9.51ZM3.7-4.852A5.709,5.709,0,0,1,4.685-8.4,3.233,3.233,0,0,1,7.4-9.686a2.761,2.761,0,0,1,2.338,1.2l.211-1.02h2.566V3.656H9.545V-.791A2.757,2.757,0,0,1,7.383.176,3.2,3.2,0,0,1,4.7-1.129,6.027,6.027,0,0,1,3.7-4.852Zm2.962.185q0,2.558,1.477,2.558a1.43,1.43,0,0,0,1.406-.773V-6.645A1.4,1.4,0,0,0,8.156-7.4q-1.38,0-1.485,2.206ZM19.854-1.028a3.054,3.054,0,0,1-2.54,1.2,3,3,0,0,1-2.369-.91,3.826,3.826,0,0,1-.8-2.615V-9.51H17.1v6.179A1.065,1.065,0,0,0,18.29-2.109a1.548,1.548,0,0,0,1.45-.729V-9.51H22.72V0H19.942Zm9.088,1.2A4.889,4.889,0,0,1,25.4-1.129a4.507,4.507,0,0,1-1.354-3.4v-.246a5.84,5.84,0,0,1,.541-2.575,3.955,3.955,0,0,1,1.578-1.727,4.763,4.763,0,0,1,2.461-.611A4.117,4.117,0,0,1,31.79-8.442a4.887,4.887,0,0,1,1.16,3.467v1.151H27.062a2.135,2.135,0,0,0,.694,1.257,2.066,2.066,0,0,0,1.389.457,2.662,2.662,0,0,0,2.2-.984l1.354,1.6A3.784,3.784,0,0,1,31.126-.277,5.3,5.3,0,0,1,28.942.176ZM28.608-7.4q-1.3,0-1.547,1.723H30.05v-.229a1.467,1.467,0,0,0-.36-1.1A1.434,1.434,0,0,0,28.608-7.4Zm-.035-6.108H31.7l-2.443,2.76-2.417,0Zm7.761,9.457a5.721,5.721,0,0,1,.29-2.026,3.168,3.168,0,0,1,.94-1.288,6.252,6.252,0,0,0,.989-1,1.628,1.628,0,0,0,.338-1q0-1.327-1.143-1.327a1.06,1.06,0,0,0-.853.387,1.645,1.645,0,0,0-.343,1.046H33.583a3.544,3.544,0,0,1,1.107-2.738,4.415,4.415,0,0,1,3.059-.98,4.587,4.587,0,0,1,3.037.905,3.177,3.177,0,0,1,1.077,2.575,3,3,0,0,1-.29,1.327,4.485,4.485,0,0,1-.932,1.222L39.63-6a2.378,2.378,0,0,0-.6.848,3.361,3.361,0,0,0-.185,1.1Zm-.36,2.672a1.364,1.364,0,0,1,.47-1.068,1.7,1.7,0,0,1,1.173-.417,1.7,1.7,0,0,1,1.173.417,1.364,1.364,0,0,1,.47,1.068,1.364,1.364,0,0,1-.47,1.068,1.7,1.7,0,0,1-1.173.417,1.7,1.7,0,0,1-1.173-.417A1.364,1.364,0,0,1,35.974-1.38Z" transform="translate(1010.051 3958)" fill="#12263f"/>
    <path id="Trazado_877954" data-name="Trazado 877954" d="M-33.939-5.537a5.964,5.964,0,0,1-.268,2.026,3.026,3.026,0,0,1-.9,1.244l-.58.536A2.292,2.292,0,0,0-36.505-.1a1.221,1.221,0,0,0,.294.91,1.046,1.046,0,0,0,.76.286,1.161,1.161,0,0,0,.918-.374,1.615,1.615,0,0,0,.347-1.059h2.979a3.6,3.6,0,0,1-1.121,2.742,4.411,4.411,0,0,1-3.054.976,4.535,4.535,0,0,1-3.028-.91A3.192,3.192,0,0,1-39.476-.1a2.953,2.953,0,0,1,.334-1.375A5.455,5.455,0,0,1-38-2.874l.747-.686A2.019,2.019,0,0,0-36.5-4.9l.044-.633Zm-1.178-1.187a1.7,1.7,0,0,1-1.173-.417,1.364,1.364,0,0,1-.47-1.068,1.364,1.364,0,0,1,.47-1.068,1.7,1.7,0,0,1,1.173-.417,1.674,1.674,0,0,1,1.182.426,1.383,1.383,0,0,1,.461,1.059,1.383,1.383,0,0,1-.461,1.059A1.674,1.674,0,0,1-35.117-6.724ZM-19.63-4.333a4.673,4.673,0,0,1-.721,2.36A4.35,4.35,0,0,1-22.2-.387a6.3,6.3,0,0,1-2.72.563,5.025,5.025,0,0,1-3.973-1.644,6.786,6.786,0,0,1-1.45-4.641v-.633a7.746,7.746,0,0,1,.655-3.292,4.961,4.961,0,0,1,1.885-2.18,5.26,5.26,0,0,1,2.848-.769,5.516,5.516,0,0,1,3.744,1.226A4.844,4.844,0,0,1-19.6-8.376H-22.68a2.292,2.292,0,0,0-.589-1.679,2.422,2.422,0,0,0-1.687-.51,1.843,1.843,0,0,0-1.687.861,5.536,5.536,0,0,0-.562,2.751v.905a6.126,6.126,0,0,0,.514,2.927,1.882,1.882,0,0,0,1.771.879,2.369,2.369,0,0,0,1.626-.5,2.126,2.126,0,0,0,.6-1.591Zm6.987,3.3a3.054,3.054,0,0,1-2.54,1.2,3,3,0,0,1-2.369-.91,3.826,3.826,0,0,1-.8-2.615V-9.51h2.962v6.179a1.065,1.065,0,0,0,1.187,1.222,1.548,1.548,0,0,0,1.45-.729V-9.51h2.979V0h-2.777ZM-2.8,0a3.344,3.344,0,0,1-.281-.853A2.754,2.754,0,0,1-5.366.176,3.374,3.374,0,0,1-7.651-.637a2.588,2.588,0,0,1-.94-2.043A2.66,2.66,0,0,1-7.449-5.019,5.821,5.821,0,0,1-4.126-5.81h.914v-.5q0-1.316-1.134-1.316A.927.927,0,0,0-5.4-6.587H-8.363A2.655,2.655,0,0,1-7.189-8.825,4.931,4.931,0,0,1-4.2-9.686,4.323,4.323,0,0,1-1.323-8.8,3.086,3.086,0,0,1-.242-6.363v4.21a4.311,4.311,0,0,0,.4,2V0ZM-4.654-1.934a1.652,1.652,0,0,0,.918-.237,1.487,1.487,0,0,0,.523-.536V-4.228h-.861q-1.547,0-1.547,1.389a.848.848,0,0,0,.272.655A.986.986,0,0,0-4.654-1.934ZM-3.916-13.5H-.787L-3.23-10.74l-2.417,0ZM4.118-9.51l.1,1.116A3.225,3.225,0,0,1,6.93-9.686,2.713,2.713,0,0,1,9.149-8.8a4.226,4.226,0,0,1,.76,2.672V0H6.939V-6a1.6,1.6,0,0,0-.29-1.059A1.342,1.342,0,0,0,5.594-7.4,1.413,1.413,0,0,0,4.3-6.715V0H1.34V-9.51Zm7.058,4.685a5.809,5.809,0,0,1,.976-3.56,3.211,3.211,0,0,1,2.725-1.3,2.731,2.731,0,0,1,2.145,1V-13.5h2.971V0H17.328l-.149-1.02a2.8,2.8,0,0,1-2.32,1.2,3.205,3.205,0,0,1-2.689-1.3A5.993,5.993,0,0,1,11.175-4.825Zm2.962.185q0,2.531,1.477,2.531a1.458,1.458,0,0,0,1.406-.826V-6.557A1.419,1.419,0,0,0,15.631-7.4q-1.371,0-1.485,2.215Zm7.163-.2a5.613,5.613,0,0,1,.554-2.536,3.96,3.96,0,0,1,1.591-1.709,4.791,4.791,0,0,1,2.435-.6,4.373,4.373,0,0,1,3.366,1.323,5.076,5.076,0,0,1,1.23,3.6v.105a4.925,4.925,0,0,1-1.235,3.529A4.384,4.384,0,0,1,25.9.176a4.434,4.434,0,0,1-3.261-1.217,4.761,4.761,0,0,1-1.327-3.3Zm2.962.185a3.538,3.538,0,0,0,.413,1.934,1.376,1.376,0,0,0,1.222.615q1.582,0,1.617-2.435v-.3q0-2.558-1.635-2.558-1.485,0-1.608,2.206Zm9.712.606a5.721,5.721,0,0,1,.29-2.026,3.168,3.168,0,0,1,.94-1.288,6.252,6.252,0,0,0,.989-1,1.628,1.628,0,0,0,.338-1q0-1.327-1.143-1.327a1.06,1.06,0,0,0-.853.387,1.645,1.645,0,0,0-.343,1.046H31.223a3.544,3.544,0,0,1,1.107-2.738,4.415,4.415,0,0,1,3.059-.98,4.587,4.587,0,0,1,3.037.905A3.177,3.177,0,0,1,39.5-9.492a3,3,0,0,1-.29,1.327,4.485,4.485,0,0,1-.932,1.222L37.27-6a2.378,2.378,0,0,0-.6.848,3.361,3.361,0,0,0-.185,1.1Zm-.36,2.672a1.364,1.364,0,0,1,.47-1.068,1.7,1.7,0,0,1,1.173-.417,1.7,1.7,0,0,1,1.173.417A1.364,1.364,0,0,1,36.9-1.38a1.364,1.364,0,0,1-.47,1.068,1.7,1.7,0,0,1-1.173.417,1.7,1.7,0,0,1-1.173-.417A1.364,1.364,0,0,1,33.614-1.38Z" transform="translate(1220.051 3958)" fill="#12263f"/>
  </g>
</svg>
