<svg xmlns="http://www.w3.org/2000/svg" xmlns:xlink="http://www.w3.org/1999/xlink" width="85" height="85" viewBox="0 0 85 85">
  <defs>
    <clipPath id="clip-path">
      <rect id="Rectángulo_406904" data-name="Rectángulo 406904" width="85" height="85" transform="translate(180 399)" fill="#007cbe"/>
    </clipPath>
    <clipPath id="clip-path-2">
      <path id="path2460" d="M0-85H85V0H0Z"/>
    </clipPath>
  </defs>
  <g id="Enmascarar_grupo_65" data-name="Enmascarar grupo 65" transform="translate(-180 -399)" clip-path="url(#clip-path)">
    <g id="g2454" transform="translate(180 484)">
      <g id="g2456">
        <g id="g2458" clip-path="url(#clip-path-2)">
          <g id="g2464" transform="translate(83.833 -75.114)">
            <path id="path2466" d="M0,0-6.462,1.123A9.939,9.939,0,0,1-9.143.932C-9.175.927-9.2.92-9.236.914A9.847,9.847,0,0,1-10.9.4L-31.957-8.265a4.973,4.973,0,0,0-4.139.159L-61.028,4.473a2.985,2.985,0,0,0-1.639,2.663,2.985,2.985,0,0,0,2.977,2.983,3.018,3.018,0,0,0,.732-.091l19.48-4.72.073-.018L1.167,18.231V.981A1,1,0,0,0,0,0" fill="#fed2a4"/>
          </g>
          <g id="g2468" transform="translate(83.833 -75.114)">
            <path id="path2470" d="M0,0-6.462,1.123A9.939,9.939,0,0,1-9.143.932C-9.175.927-9.2.92-9.236.914A9.847,9.847,0,0,1-10.9.4L-31.957-8.265a4.973,4.973,0,0,0-4.139.159L-61.028,4.473a2.985,2.985,0,0,0-1.639,2.663,2.969,2.969,0,0,0,1.344,2.49,3.018,3.018,0,0,1,.295-.173L-36.1-3.126a4.973,4.973,0,0,1,4.139-.159L-10.9,5.376a9.847,9.847,0,0,0,1.663.518c.032.007.061.013.093.018A9.939,9.939,0,0,0-6.462,6.1L0,4.98a1,1,0,0,1,1.167.981V.981A1,1,0,0,0,0,0" fill="#ffbd86"/>
          </g>
          <g id="g2472" transform="translate(61.693 -69.107)">
            <path id="path2474" d="M0,0A3.345,3.345,0,0,0-2.385-3.2l-2.951-.884-1.886-.564L-13.047-6.4a3.332,3.332,0,0,0-2.1-.212,3.709,3.709,0,0,0-1.724,1.069A4.763,4.763,0,0,0-17.337-.7Q.971,12.438,3.463,9.92,5.086,8.28,0,0" fill="#ffbd86"/>
          </g>
          <g id="g2476" transform="translate(61.693 -69.107)">
            <path id="path2478" d="M0,0-5.336-1.6l-1.886-.564-5.825-1.745a3.213,3.213,0,0,0-3.823.857,1.676,1.676,0,0,0-.1.139A2.592,2.592,0,0,0-17.337-.7,2.753,2.753,0,0,0-16.112.915L1.746,13.065a16.062,16.062,0,0,0,12.064,2.494L22.5,13.854a1,1,0,0,0,.8-.977V11.785Z" fill="#fed2a4"/>
          </g>
          <g id="g2480" transform="translate(1.167 -9.886)">
            <path id="path2482" d="M0,0,6.462-1.123a9.939,9.939,0,0,1,2.681.191c.032,0,.061.012.093.018A9.847,9.847,0,0,1,10.9-.4L31.957,8.265A4.974,4.974,0,0,0,36.1,8.106L61.028-4.473a2.985,2.985,0,0,0,1.639-2.663,2.985,2.985,0,0,0-2.977-2.983,3.018,3.018,0,0,0-.732.091l-19.48,4.72L39.4-5.29-1.167-18.231V-.981A1,1,0,0,0,0,0" fill="#fed2a4"/>
          </g>
          <g id="g2484" transform="translate(62.489 -19.512)">
            <path id="path2486" d="M0,0A2.988,2.988,0,0,1-.3.173L-25.227,12.752a4.973,4.973,0,0,1-4.139.159L-50.423,4.25a9.843,9.843,0,0,0-1.663-.518c-.032-.007-.061-.013-.093-.018a9.946,9.946,0,0,0-2.681-.191l-6.462,1.123a1,1,0,0,1-1.167-.981v4.98a1,1,0,0,0,1.167.981L-54.861,8.5a9.946,9.946,0,0,1,2.681.191c.032,0,.061.012.093.018a9.843,9.843,0,0,1,1.663.518l21.057,8.661a4.973,4.973,0,0,0,4.139-.159L-.3,5.153A2.985,2.985,0,0,0,1.344,2.49,2.969,2.969,0,0,0,0,0" fill="#ffbd86"/>
          </g>
          <g id="g2488" transform="translate(23.307 -15.893)">
            <path id="path2490" d="M0,0A3.345,3.345,0,0,0,2.385,3.2l2.951.884,1.886.564L13.047,6.4a3.331,3.331,0,0,0,2.1.212,3.709,3.709,0,0,0,1.724-1.069A4.763,4.763,0,0,0,17.337.7Q-.971-12.439-3.463-9.92-5.086-8.28,0,0Z" fill="#ffbd86"/>
          </g>
          <g id="g2492" transform="translate(23.307 -15.893)">
            <path id="path2494" d="M0,0,5.336,1.6l1.886.564,5.825,1.745a3.213,3.213,0,0,0,3.823-.856,1.706,1.706,0,0,0,.1-.14A2.592,2.592,0,0,0,17.337.7,2.753,2.753,0,0,0,16.112-.915L-1.746-13.065a16.062,16.062,0,0,0-12.064-2.494L-22.5-13.854a1,1,0,0,0-.8.977v1.091Z" fill="#fed2a4"/>
          </g>
          <g id="g2496" transform="translate(60.08 -42.5)">
            <path id="path2498" d="M0,0A17.58,17.58,0,0,1-17.58,17.58,17.58,17.58,0,0,1-35.159,0,17.58,17.58,0,0,1-17.58-17.58,17.58,17.58,0,0,1,0,0" fill="#fedf30"/>
          </g>
          <g id="g2500" transform="translate(47.763 -59.278)">
            <path id="path2502" d="M0,0A17.556,17.556,0,0,1,7.336,14.288a17.58,17.58,0,0,1-17.58,17.58,17.569,17.569,0,0,1-5.263-.8A17.5,17.5,0,0,0-5.263,34.357a17.58,17.58,0,0,0,17.58-17.58A17.587,17.587,0,0,0,0,0" fill="#fac600"/>
          </g>
          <g id="g2504" transform="translate(45.73 -54.443)">
            <path id="path2506" d="M0,0A1.321,1.321,0,0,1,1.324,1.764C.439,4.05-.541,6.306-1.5,8.564c-.058.137-.016.194.1.259,1.789,1.033,3.574,2.072,5.365,3.1a1.347,1.347,0,0,1,.287,2.238q-4.865,4.615-9.739,9.221a1.36,1.36,0,0,1-1.639.362,1.286,1.286,0,0,1-.659-1.628c.339-.876.71-1.739,1.071-2.606q.872-2.1,1.753-4.193c.06-.142.01-.193-.1-.256C-6.873,14.021-8.7,13-10.491,11.92a1.341,1.341,0,0,1-.221-2.2Q-5.844,5.108-.973.5A1.551,1.551,0,0,1,0,0" fill="#fea95c"/>
          </g>
          <g id="g2508" transform="translate(49.695 -42.518)">
            <path id="path2510" d="M0,0C-1.791-1.03-3.576-2.069-5.365-3.1c-.113-.065-.155-.122-.1-.259.955-2.257,1.935-4.514,2.82-6.8a1.321,1.321,0,0,0-1.324-1.764,1.551,1.551,0,0,0-.973.5Q-6.689-9.76-8.446-8.1c-.181.577-1.314,2.925-1.746,4.2a.951.951,0,0,0,.425,1.128Q-7.374-1.384-4.98,0a1.347,1.347,0,0,1,.287,2.238q-3.1,2.941-6.207,5.876c-.289.69-.58,1.38-.85,2.079a1.285,1.285,0,0,0,.658,1.628,1.359,1.359,0,0,0,1.639-.362Q-4.582,6.85.287,2.238A1.347,1.347,0,0,0,0,0" fill="#fe9738"/>
          </g>
          <g id="g2512" transform="translate(59.831 -21.124)">
            <path id="path2514" d="M0,0-18.5,4.482a3.994,3.994,0,0,0-1.24-1.211L-37.57-8.864a17.423,17.423,0,0,0-13-2.687l-8.251,1.587a1.245,1.245,0,0,0-.987,1.458,1.246,1.246,0,0,0,1.458.987L-50.1-9.105A14.916,14.916,0,0,1-38.971-6.8c.032.022,17.879,12.165,17.913,12.185a1.409,1.409,0,0,1,.489,2.046,2.1,2.1,0,0,1-2.55.519l-7.712-2.309-5.335-1.6a1.245,1.245,0,0,0-1.55.835,1.245,1.245,0,0,0,.835,1.55l5.336,1.6,7.64,2.288a4.463,4.463,0,0,0,5.218-1.242,3.813,3.813,0,0,0,.843-2.182L.6,2.418A1.745,1.745,0,0,1,2.757,4.1,1.731,1.731,0,0,1,1.8,5.653L-23.13,18.233a3.728,3.728,0,0,1-3.1.119L-47.29,9.691A15.933,15.933,0,0,0-49.184,9.1a8.343,8.343,0,0,0-3.229-.215L-58.8,9.98a1.245,1.245,0,0,0-1.017,1.437,1.245,1.245,0,0,0,1.437,1.017l6.317-1.081a8.737,8.737,0,0,1,2.367.187,8.622,8.622,0,0,1,1.454.453l21.057,8.661a6.216,6.216,0,0,0,5.174-.2L2.925,7.876A4.209,4.209,0,0,0,5.247,4.1,4.24,4.24,0,0,0,0,0M-27.825-7.216a1.245,1.245,0,0,0,.38,1.719A18.767,18.767,0,0,0-17.331-2.551,18.846,18.846,0,0,0,1.494-21.376,18.846,18.846,0,0,0-17.331-40.2,18.846,18.846,0,0,0-36.156-21.376a18.808,18.808,0,0,0,4.664,12.4,1.245,1.245,0,0,0,1.757.116,1.245,1.245,0,0,0,.116-1.757,16.32,16.32,0,0,1-4.046-10.762A16.353,16.353,0,0,1-17.331-37.711,16.353,16.353,0,0,1-1-21.376,16.353,16.353,0,0,1-17.331-5.042,16.28,16.28,0,0,1-26.105-7.6a1.245,1.245,0,0,0-1.719.38m-6.837-35.536,18.5-4.482a3.994,3.994,0,0,0,1.24,1.211l9.365,6.372a1.245,1.245,0,0,0,1.73-.329,1.245,1.245,0,0,0-.329-1.73l-9.39-6.389a1.585,1.585,0,0,1-.728-.924,1.465,1.465,0,0,1,.207-1.191c.008-.012.017-.023.037-.047a2.085,2.085,0,0,1,2.491-.438L1.5-46.791a1.245,1.245,0,0,0,1.55-.835,1.245,1.245,0,0,0-.835-1.55l-12.976-3.887a4.429,4.429,0,0,0-5.217,1.241,3.9,3.9,0,0,0-.843,2.183l-18.441,4.468a1.745,1.745,0,0,1-2.162-1.684,1.731,1.731,0,0,1,.954-1.551l24.933-12.579a3.729,3.729,0,0,1,3.1-.119l21.056,8.661a10.976,10.976,0,0,0,1.893.588,9.308,9.308,0,0,0,3.229.216l6.383-1.092a1.245,1.245,0,0,0,1.017-1.437,1.246,1.246,0,0,0-1.437-1.017L17.4-54.106a8.686,8.686,0,0,1-2.282-.171,8.512,8.512,0,0,1-1.538-.469L-7.48-63.407a6.216,6.216,0,0,0-5.174.2l-24.933,12.58a4.209,4.209,0,0,0-2.322,3.774,4.253,4.253,0,0,0,5.247,4.1m59.809,8.506a1.245,1.245,0,0,0-1.458-.987l-8.251,1.587a14.918,14.918,0,0,1-11.129-2.3L-.57-39.267a1.245,1.245,0,0,0-1.73.329,1.245,1.245,0,0,0,.329,1.73l4.879,3.32a17.44,17.44,0,0,0,13,2.687l8.251-1.587a1.245,1.245,0,0,0,.988-1.458m-41.89,9.006a1.4,1.4,0,0,0,.621,1.823c1.79,1.033,3.575,2.073,5.366,3.1.184.106.189.124.05.255-2.623,2.488-9.728,9.291-9.95,9.378-.024-.009-.084-.031-.069-.071.883-2.282,1.817-4.416,2.809-6.763a1.4,1.4,0,0,0-.626-1.82c-1.8-1.036-3.619-2.049-5.406-3.128-.133-.08-.127-.118-.008-.23,3.465-3.283,9.622-9.181,9.928-9.373.066.014.09.05.09.064-.881,2.273-1.861,4.532-2.806,6.763m5.128-5.864a2.5,2.5,0,0,0-.275-2.329,2.6,2.6,0,0,0-4.041-.289c-3.262,3.1-6.49,6.143-9.737,9.22a2.649,2.649,0,0,0-.848,2.212,2.616,2.616,0,0,0,1.282,1.957c1.551.937,3.115,1.819,4.665,2.7-.877,2.091-1.682,3.923-2.477,5.977a2.524,2.524,0,0,0,1.277,3.2,2.569,2.569,0,0,0,3.038-.578c3.224-3.069,6.515-6.162,9.74-9.222a2.634,2.634,0,0,0,.845-2.227,2.674,2.674,0,0,0-1.368-1.994q-2.291-1.317-4.575-2.646c.831-1.952,1.694-3.969,2.474-5.986"/>
          </g>
        </g>
      </g>
    </g>
  </g>
</svg>
