<svg xmlns="http://www.w3.org/2000/svg" xmlns:xlink="http://www.w3.org/1999/xlink" width="65" height="69.689" viewBox="0 0 65 69.689">
  <defs>
    <clipPath id="clip-path">
      <rect id="Rectángulo_406915" data-name="Rectángulo 406915" width="65" height="69.689" transform="translate(610 2565.523)" fill="#007cbe"/>
    </clipPath>
  </defs>
  <g id="Enmascarar_grupo_69" data-name="Enmascarar grupo 69" transform="translate(-610 -2565.523)" clip-path="url(#clip-path)">
    <g id="agricultura" transform="translate(606.752 2565.423)">
      <path id="Trazado_877693" data-name="Trazado 877693" d="M67.208,44.141a1.367,1.367,0,0,0-.88.068c-1.085.2-4.673.367-5.906-.454a19.969,19.969,0,0,0-10.649-7.919,63.862,63.862,0,0,0-14.869-2.8c-1.389-.1-3.984.3-4.87,2.372a4.546,4.546,0,0,0,.161,3.959,4.108,4.108,0,0,0,2.873,2.142,23.1,23.1,0,0,1,5.148,1.569l-8.747-.538-9.63-4.5-3.358-2.456c-.472-.352-2.932-2.064-4.851-1.146a3.711,3.711,0,0,0-2.059,3.022c-.174-.034-.342-.063-.493-.084-1.444-.282-4.1-.156-5.162,2.142-1.511,3,.674,4.893,2.11,5.754,3.67,2.2,29.03,11.367,30.108,11.756a1.309,1.309,0,0,0,.185.052l20.129,4.2a1.3,1.3,0,0,0,.164.024l8.859.747c.04,0,.079,0,.117,0a1.369,1.369,0,0,0,.113-2.733l-8.774-.738L36.973,54.418c-7.342-2.654-26.693-9.792-29.54-11.5-1.666-1-1.336-1.651-1.072-2.176l.073-.149c.384-.832,2.128-.536,2.139-.533.03.007.061.012.092.016,2.7.366,10.95,3.52,13.9,4.7a1.4,1.4,0,0,0,.426.1l5.876.362a1.379,1.379,0,0,0,.312.038c.032,0,.063-.011.095-.014l14.31.881a1.381,1.381,0,0,0,1.344-.833,1.366,1.366,0,0,0-.339-1.544,23.55,23.55,0,0,0-11.033-4.957,1.4,1.4,0,0,1-.95-.747,1.817,1.817,0,0,1-.054-1.586c.264-.616,1.6-.748,2.2-.715a62.04,62.04,0,0,1,14.2,2.681,17.238,17.238,0,0,1,9.228,6.869,1.415,1.415,0,0,0,.179.266,13.782,13.782,0,0,1,1.362,2.627,1.369,1.369,0,0,0,2.587-.9c-.012-.032-.048-.134-.111-.294a16.261,16.261,0,0,0,1.781.1,11.239,11.239,0,0,0,3.543-.429,1.376,1.376,0,0,0-.31-2.55ZM12.262,38.156a1.278,1.278,0,0,1,.536-1.248,3.987,3.987,0,0,1,2.059.874l3.209,2.347C16.162,39.433,14.062,38.7,12.262,38.156Z" fill="#007cbe"/>
      <path id="Trazado_877694" data-name="Trazado 877694" d="M5.4,18.5a14.189,14.189,0,0,1,2.236,3.635,8.144,8.144,0,0,0,7.3,4.448,8.6,8.6,0,0,0,3.324-.68A1.368,1.368,0,0,0,19,24.117c-.011-.026-.023-.049-.036-.074a17.956,17.956,0,0,1,4.59,5.334c.1.162.187.313.276.457a28.067,28.067,0,0,0-.567,7.047,1.368,1.368,0,0,0,1.364,1.282c.029,0,.059,0,.088,0a1.368,1.368,0,0,0,1.279-1.451,25.7,25.7,0,0,1,.6-6.828c.011-.043.02-.085.027-.13a28.252,28.252,0,0,1,1.612-5,1.273,1.273,0,0,0,.225-.115,10.83,10.83,0,0,1,5.467-1.761,1.368,1.368,0,0,0-.02-2.737h-.017a14.169,14.169,0,0,0-3.481.579A22.65,22.65,0,0,1,34.926,15.7a1.369,1.369,0,0,0-1.734-2.118,24.875,24.875,0,0,0-2.821,2.711,1.37,1.37,0,0,0-1.3-1.139,1.387,1.387,0,0,0-1.416,1.319L27.526,20.1c0,.025,0,.048,0,.072a29.052,29.052,0,0,0-2.509,5.317,8.274,8.274,0,0,1-.919-4.362,8.4,8.4,0,0,1,2.916-5.885c3.011-2.464,6.588-3.6,10.921-4.34-.172.561-.332,1.108-.442,1.526a23.843,23.843,0,0,0-.506,7.306A8.084,8.084,0,0,1,35,25.612a8.785,8.785,0,0,1-6.475,2.541,1.369,1.369,0,0,0,.038,2.737h.039a11.555,11.555,0,0,0,8.407-3.418A10.689,10.689,0,0,0,39.727,19.6a21.47,21.47,0,0,1,.419-6.478c.217-.827.713-2.407,1.07-3.472a1.368,1.368,0,0,0-1.484-1.79C35.07,8.5,29.725,9.487,25.285,13.12a11.064,11.064,0,0,0-3.89,9.407c-.158-.137-.312-.273-.481-.412a7.924,7.924,0,0,0-1.08-5.423,8.023,8.023,0,0,0-5.119-3.643c-3.923-.792-7.511.338-10.569,1.457a1.369,1.369,0,0,0-.471,2.279c.547.517,1.342,1.3,1.727,1.719Zm8.774-2.772a5.285,5.285,0,0,1,4.054,4.413,44.013,44.013,0,0,0-4.488-2.578,1.369,1.369,0,1,0-1.23,2.445A38.567,38.567,0,0,1,17.994,23.3a1.363,1.363,0,0,0-.788.079,5.546,5.546,0,0,1-7.091-2.408,16.593,16.593,0,0,0-2.7-4.327c-.076-.081-.163-.174-.259-.274a14.011,14.011,0,0,1,7.021-.641Z" fill="#007cbe"/>
    </g>
  </g>
</svg>
