<svg xmlns="http://www.w3.org/2000/svg" xmlns:xlink="http://www.w3.org/1999/xlink" width="505.051" height="422.321" viewBox="0 0 505.051 422.321">
  <defs>
    <clipPath id="clip-path">
      <rect id="Rectángulo_407005" data-name="Rectángulo 407005" width="505.051" height="395.321" fill="none"/>
    </clipPath>
    <clipPath id="clip-path-2">
      <rect id="Rectángulo_407004" data-name="Rectángulo 407004" width="505.05" height="395.32" fill="none"/>
    </clipPath>
    <clipPath id="clip-path-3">
      <rect id="Rectángulo_406970" data-name="Rectángulo 406970" width="51.3" height="43.019" fill="none"/>
    </clipPath>
    <clipPath id="clip-path-4">
      <rect id="Rectángulo_406975" data-name="Rectángulo 406975" width="50.516" height="42.361" fill="none"/>
    </clipPath>
    <clipPath id="clip-path-5">
      <rect id="Rectángulo_406977" data-name="Rectángulo 406977" width="0.975" height="0.733" fill="none"/>
    </clipPath>
    <clipPath id="clip-path-6">
      <rect id="Rectángulo_406978" data-name="Rectángulo 406978" width="2.013" height="3.869" fill="none"/>
    </clipPath>
    <clipPath id="clip-path-9">
      <rect id="Rectángulo_406985" data-name="Rectángulo 406985" width="1.523" height="1.145" fill="none"/>
    </clipPath>
    <clipPath id="clip-path-10">
      <rect id="Rectángulo_406986" data-name="Rectángulo 406986" width="3.15" height="6.067" fill="none"/>
    </clipPath>
    <clipPath id="clip-path-12">
      <rect id="Rectángulo_406990" data-name="Rectángulo 406990" width="3.144" height="6.043" fill="none"/>
    </clipPath>
    <clipPath id="clip-path-15">
      <rect id="Rectángulo_406996" data-name="Rectángulo 406996" width="49.322" height="41.36" fill="none"/>
    </clipPath>
    <clipPath id="clip-path-16">
      <rect id="Rectángulo_407002" data-name="Rectángulo 407002" width="18.598" height="19.581" fill="none"/>
    </clipPath>
    <clipPath id="clip-path-17">
      <rect id="Rectángulo_407003" data-name="Rectángulo 407003" width="8.735" height="12.121" fill="none"/>
    </clipPath>
  </defs>
  <g id="Grupo_1110568" data-name="Grupo 1110568" transform="translate(-180 -11752.679)">
    <rect id="Rectángulo_406940" data-name="Rectángulo 406940" width="505" height="203" rx="20" transform="translate(180.051 11972)" fill="#99cae5"/>
    <g id="Grupo_1110567" data-name="Grupo 1110567" transform="translate(180 11752.679)">
      <g id="Grupo_1110566" data-name="Grupo 1110566" clip-path="url(#clip-path)">
        <g id="Grupo_1110565" data-name="Grupo 1110565" transform="translate(0 0.001)">
          <g id="Grupo_1110564" data-name="Grupo 1110564" clip-path="url(#clip-path-2)">
            <path id="Trazado_877748" data-name="Trazado 877748" d="M1517.12,67.949a9.236,9.236,0,0,1-9.225-9.225,1.113,1.113,0,0,0-.374-.829,33.146,33.146,0,1,1,44.108,0,1.114,1.114,0,0,0-.374.829,9.235,9.235,0,0,1-9.225,9.225Z" transform="translate(-1108.29 -0.005)" fill="#ff9"/>
            <path id="Trazado_877749" data-name="Trazado 877749" d="M1501.463,36.879a31.84,31.84,0,1,1,53.025,23.77,2.417,2.417,0,0,0-.811,1.8h0a7.919,7.919,0,0,1-7.919,7.919h-24.91a7.919,7.919,0,0,1-7.919-7.919h0a2.417,2.417,0,0,0-.811-1.8,31.762,31.762,0,0,1-10.656-23.77" transform="translate(-1112.018 -3.733)" fill="#fbb03a"/>
            <path id="Trazado_877750" data-name="Trazado 877750" d="M1610.1,113.36c-2.13-7.716-.676-15.754.177-23.546a62.51,62.51,0,0,0,.392-12.051,59.1,59.1,0,0,0-2.287-11.646c-1.288-4.39-2.929-8.665-4.573-12.931-.359-.931-1.874-.527-1.511.416,2.888,7.495,5.86,15.145,6.712,23.192.846,8-.91,15.881-1.445,23.831a39.363,39.363,0,0,0,1.023,13.151.784.784,0,0,0,1.511-.417" transform="translate(-1186.655 -39.001)" fill="#2a7e1b"/>
            <path id="Trazado_877751" data-name="Trazado 877751" d="M1532.607,154.71s.613-.335,1.651-.775c.519-.221,1.144-.467,1.85-.706s1.5-.479,2.343-.676a19.653,19.653,0,0,1,5.563-.555,11.231,11.231,0,0,1,9.664,5.885,19.664,19.664,0,0,1,2.06,5.2c.212.842.363,1.655.474,2.392s.18,1.405.222,1.968c.085,1.124.069,1.822.069,1.822s-.658.249-1.734.56c-.537.155-1.18.327-1.9.5s-1.509.326-2.349.463a23.126,23.126,0,0,1-5.362.285,10.62,10.62,0,0,1-8.951-5.451A23.113,23.113,0,0,1,1534,160.72c-.264-.809-.486-1.584-.667-2.3s-.322-1.365-.431-1.914c-.217-1.1-.3-1.8-.3-1.8" transform="translate(-1135.084 -112.556)" fill="#4fb24a"/>
            <path id="Trazado_877752" data-name="Trazado 877752" d="M1558.986,176.485c-2.922-1.679-5.888-3.262-8.865-4.806-1.482-.769-2.963-1.538-4.411-2.359s-2.873-1.68-4.246-2.632a48.1,48.1,0,0,1-4.468-3.506c-.369-.323-.988.418-.619.742a50.52,50.52,0,0,0,8.1,5.828c1.451.838,2.931,1.625,4.422,2.4s2.989,1.541,4.474,2.335q2.543,1.359,5.049,2.8c.42.24.987-.558.563-.8" transform="translate(-1137.792 -120.799)" fill="#2a7e1b"/>
            <path id="Trazado_877753" data-name="Trazado 877753" d="M1652.256,99.82s-.058.161-.169.446-.274.691-.478,1.182l-.724,1.7c-.274.635-.582,1.3-.9,2.011-.162.351-.331.7-.506,1.052s-.35.713-.535,1.06c-.371.687-.754,1.384-1.174,2a7.136,7.136,0,0,1-7.106,3.7c-.748-.011-1.539-.1-2.315-.185-.39-.047-.788-.112-1.175-.169s-.771-.12-1.152-.188c-.767-.142-1.489-.271-2.166-.411l-1.81-.381c-.519-.113-.946-.213-1.243-.285s-.462-.117-.462-.117-.037-.164-.088-.463-.117-.733-.172-1.277c-.027-.272-.051-.571-.069-.895s-.021-.661-.018-1.024a16.945,16.945,0,0,1,.176-2.377c.062-.422.14-.856.237-1.3s.224-.879.367-1.327a13.784,13.784,0,0,1,1.158-2.643,10.14,10.14,0,0,1,10.151-5.289,13.8,13.8,0,0,1,2.83.566c.449.14.879.286,1.3.46s.82.36,1.2.551a16.886,16.886,0,0,1,2.049,1.217c.3.206.575.4.829.6s.486.391.694.569c.414.356.733.659.948.872s.329.338.329.338" transform="translate(-1207.208 -70.064)" fill="#4fb24a"/>
            <path id="Trazado_877754" data-name="Trazado 877754" d="M1633.028,125.9l.366-.417c.121-.14.244-.279.373-.412l.764-.811c.255-.272.526-.525.79-.79l.4-.393c.134-.131.274-.253.41-.381l.829-.758.858-.729c.284-.248.581-.476.877-.709l.445-.349.223-.174.229-.166.917-.658c.308-.217.628-.414.945-.619l.479-.3c.161-.1.327-.189.49-.282.329-.184.659-.368.994-.543a20.368,20.368,0,0,1,4.228-1.6,18.723,18.723,0,0,1,5.053-.515c.432.024.41-.937-.037-.958a19.022,19.022,0,0,0-4.583.39l-.566.119c-.187.046-.372.1-.558.147-.371.1-.743.208-1.109.329a20.453,20.453,0,0,0-2.148.862c-.712.32-1.392.7-2.069,1.089-.335.2-.663.411-.991.62l-.489.318-.477.337a38.955,38.955,0,0,0-3.618,2.909,42,42,0,0,0-3.689,3.725c-.29.328.385,1.039.667.717" transform="translate(-1208.912 -84.671)" fill="#2a7e1b"/>
            <path id="Trazado_877755" data-name="Trazado 877755" d="M1577.215,24.2s.119-.03.34-.072.545-.1.957-.143c.206-.023.435-.044.684-.059s.508-.013.79-.009a11.74,11.74,0,0,1,1.877.166c.337.057.688.128,1.049.215s.714.206,1.085.335q.276.1.557.209c.093.037.189.074.28.115l.274.13c.366.177.736.374,1.1.592a10.376,10.376,0,0,1,5.116,8.994c0,.428-.021.846-.056,1.251l-.029.3c-.011.1-.028.2-.044.3q-.047.3-.105.585c-.079.384-.158.749-.266,1.1s-.229.693-.352,1.012a11.723,11.723,0,0,1-.816,1.7c-.141.245-.275.469-.412.675s-.276.392-.4.558c-.25.331-.462.581-.612.75s-.236.255-.236.255l-.294-.2c-.188-.128-.456-.315-.779-.547l-.522-.379-.61-.432c-.429-.3-.868-.64-1.362-.986-.241-.175-.484-.354-.723-.538s-.5-.367-.744-.557c-.123-.095-.244-.19-.363-.288l-.179-.146-.186-.145c-.246-.194-.483-.393-.708-.6a10.328,10.328,0,0,1-2.34-2.724,10.335,10.335,0,0,1-1.146-3.4c-.061-.3-.111-.6-.153-.915q-.014-.116-.029-.234c-.011-.076-.023-.152-.034-.228q-.034-.228-.062-.459c-.039-.306-.064-.623-.1-.924s-.067-.6-.093-.9c-.046-.6-.11-1.151-.152-1.675-.021-.26-.04-.51-.059-.745s-.041-.445-.059-.642c-.034-.4-.058-.722-.072-.949s-.019-.353-.019-.353" transform="translate(-1168.122 -17.714)" fill="#4fb24a"/>
            <path id="Trazado_877756" data-name="Trazado 877756" d="M1590.268,44.4l-.1-.5-.051-.25c-.019-.083-.043-.165-.064-.248l-.26-.988c-.04-.165-.1-.326-.147-.488l-.156-.485-.155-.483c-.053-.16-.119-.317-.177-.476l-.361-.945-.406-.925c-.128-.31-.284-.608-.433-.908l-.224-.449-.112-.224-.123-.219-.485-.872c-.077-.147-.169-.286-.254-.428l-.259-.425-.255-.426c-.087-.141-.182-.277-.272-.416l-.538-.833c-.385-.537-.737-1.1-1.135-1.624l-.286-.4-.141-.2-.15-.2q-.3-.4-.588-.8c-.9-1.2-1.818-2.388-2.788-3.579-.259-.3-.775.095-.525.389.839,1.035,1.664,2.045,2.43,3.094l.3.384.282.4.573.78c.362.535.754,1.047,1.106,1.588.381.53.721,1.086,1.085,1.629.175.276.337.559.51.838l.257.419.238.43a27.682,27.682,0,0,1,1.722,3.56,24.793,24.793,0,0,1,1.3,4.375c.078.375.728.31.648-.081" transform="translate(-1170 -19.624)" fill="#2a7e1b"/>
            <path id="Trazado_877757" data-name="Trazado 877757" d="M1565.145,260.243h23.8a4.624,4.624,0,0,0,0-9.248h-23.8a4.624,4.624,0,1,0,0,9.248" transform="translate(-1155.758 -185.894)" fill="#fff"/>
            <path id="Trazado_877758" data-name="Trazado 877758" d="M1566.23,289.969h23.233a4.624,4.624,0,0,0,0-9.248H1566.23a4.624,4.624,0,0,0,0,9.248" transform="translate(-1156.562 -207.91)" fill="#fff"/>
            <path id="Trazado_877759" data-name="Trazado 877759" d="M1566.23,316.4h23.233a4.624,4.624,0,0,0,0-9.248H1566.23a4.624,4.624,0,0,0,0,9.248" transform="translate(-1156.562 -227.487)" fill="#fff"/>
            <path id="Trazado_877760" data-name="Trazado 877760" d="M1602.666,342.808a13.678,13.678,0,0,1-23.233,0Z" transform="translate(-1169.765 -253.893)" fill="#2057a9"/>
            <path id="Trazado_877761" data-name="Trazado 877761" d="M1597.677,284.045h-28.611a114.081,114.081,0,0,0,28.611,0" transform="translate(-1162.087 -210.372)" fill="#606060"/>
            <path id="Trazado_877762" data-name="Trazado 877762" d="M1597.677,313.426h-28.611a114.067,114.067,0,0,0,28.611,0" transform="translate(-1162.087 -232.132)" fill="#606060"/>
            <path id="Trazado_877763" data-name="Trazado 877763" d="M1597.677,255.2h-28.611a114.078,114.078,0,0,0,28.611,0" transform="translate(-1162.087 -189.008)" fill="#606060"/>
            <path id="Trazado_877764" data-name="Trazado 877764" d="M1187.453,435.768a37.78,37.78,0,0,1-3.828,16.628c-.03.063-.06.126-.092.188a37.853,37.853,0,0,1-3.115,5.2l-.089.125a38,38,0,0,1-35.415,15.527c-.091-.011-.182-.022-.272-.034q-1.662-.212-3.278-.567l-.37-.083a37.956,37.956,0,0,1-29.423-36.981,38.338,38.338,0,0,1,.267-4.516h75.349c.015.124.03.25.043.375a38.358,38.358,0,0,1,.224,4.141" transform="translate(-823.254 -319.397)" fill="#009245"/>
            <path id="Trazado_877765" data-name="Trazado 877765" d="M1176,446.075c-1.742,1.8-1.98,4.087-2.172,6.39-.139,1.65-.981,2.476-2.642,2.361-1.548-.108-2.22.649-2.174,2.12a9.23,9.23,0,0,1-5.555,8.184c-.5.187-1.529.4-1.441.48.875.767.11,1.882.1,2.662a.7.7,0,0,0,.4.687c1.918,1.009.432,3.185,1.663,4.441a1.764,1.764,0,0,0,.177.16.039.039,0,0,1,.015.039q-1.8-.218-3.551-.6-.147-.121-.29-.247a7.849,7.849,0,0,1-2.536-3.968c-.215-.849-.437-1.726-.633-2.6a29.042,29.042,0,0,1-.573-3.247c-.269-2.508-1.311-5.021-.775-7.638.5-2.454-.827-3.712-2.735-5.175-2.156-1.655-4.1-3.972-4.323-6.979-.094-1.269-.053-2.706,1.549-3.441.966-.443.685-1.506.589-2.372-.108-.979-1-1.107-1.62-1.083-1.566.063-2.387-.946-3.406-1.842l-.124-.108a13.655,13.655,0,0,0-2.331-1.67,8.757,8.757,0,0,0-1.348-.607q-.3-.1-.6-.185a7.7,7.7,0,0,0-.893-.179q-.346-.048-.707-.066l-.1-.005a7.413,7.413,0,0,1-1.832-.272c-.061-.02-.12-.04-.177-.063h9.5c.1.051.2.1.305.151l.117.053a.613.613,0,0,1,.341.371,3.743,3.743,0,0,1,.04,1.111c0,.016,0,.032,0,.048a5.389,5.389,0,0,0,.081,1.488,1.152,1.152,0,0,0,1.055.745c1.165.18,2.421.773,3.3-.493.037-.053.073-.109.108-.168,1.159-1.96,2.616-1.293,4.084-.475.2.111.38.508.5.479a4.881,4.881,0,0,1,3.388.452c1.244.6,2.373,1.5,3.657,2,1.184.457,2.216.944,2.293,2.016.214,2.975,2.453,3.358,4.405,3.127,2.522-.3,3.373,1.773,5.025,2.656.5.267.159.947-.147,1.262" transform="translate(-842.788 -319.397)" fill="#8cc63f"/>
            <path id="Trazado_877766" data-name="Trazado 877766" d="M1303.223,431.252c-.395,2.742,1.768,4.571,3.645,6.242,1.689,1.505,4.147.814,6.024-.039,2.394-1.089,3.771,1.287,5.779,1.236a1.332,1.332,0,0,1,.162.844c-.726,2.094.287,3.712,1.384,5.319,1,1.468,1.555,2.929.28,4.576a2.193,2.193,0,0,0-.2,2.474,28.113,28.113,0,0,1,1.949,6.042,37.769,37.769,0,0,0,7.035-22.013,38.318,38.318,0,0,0-.286-4.681Z" transform="translate(-965.162 -319.397)" fill="#8cc63f"/>
            <path id="Trazado_877767" data-name="Trazado 877767" d="M1188.455,420.49a.513.513,0,0,1-.144.336,1.141,1.141,0,0,1-.088.09c-1.61,1.471-11.461,2.69-24.77,3.173-3.97.144-8.25.223-12.71.223-2.9,0-5.718-.033-8.427-.1-2.829-.065-5.535-.163-8.082-.289q-2.263-.112-4.35-.253-1.232-.083-2.394-.176c-6.885-.547-11.845-1.331-13.679-2.232-.511-.25-.78-.51-.78-.777a.345.345,0,0,1,0-.039c.019-.191.175-.378.461-.561.86-.553,2.885-1.065,5.813-1.512q1.055-.16,2.261-.31l.747-.089q.541-.063,1.109-.123,1.308-.139,2.75-.265l.621-.053.316-.026q.543-.044,1.1-.087l.192-.014.22-.016.282-.021c.31-.023.622-.045.94-.066h0l.313-.021.269-.018.284-.018.193-.012.751-.046.279-.017.139-.008.165-.01.32-.018.586-.032.024,0,.271-.014.281-.015q.744-.038,1.508-.073l.241-.011.075,0h0q.833-.037,1.686-.07c4.195-.163,8.751-.253,13.513-.253,4.272,0,8.378.072,12.206.2l.854.031c.243.009.485.018.725.028l.188.007.13.005.935.039.578.026.281.013.311.015.572.028h0l.322.017.3.016.281.015.39.021.558.031.284.017.27.016.313.019.943.06.283.019.2.013q.67.045,1.319.094l.318.023.5.039c1.116.087,2.183.181,3.194.28q.567.055,1.109.114.614.065,1.2.133.43.051.843.1.611.077,1.184.158c4.484.628,7.126,1.4,7.126,2.236" transform="translate(-824.336 -308.595)" fill="#2a7d53"/>
            <path id="Trazado_877768" data-name="Trazado 877768" d="M1194.041,422.964c0,1.379-15.342,2.5-34.266,2.5s-34.266-1.118-34.266-2.5,15.341-2.5,34.266-2.5,34.266,1.118,34.266,2.5" transform="translate(-833.579 -311.409)" fill="#206141"/>
            <g id="Grupo_1110521" data-name="Grupo 1110521" transform="translate(288.315 111.295)" style="mix-blend-mode: multiply;isolation: isolate">
              <g id="Grupo_1110520" data-name="Grupo 1110520">
                <g id="Grupo_1110519" data-name="Grupo 1110519" clip-path="url(#clip-path-3)">
                  <path id="Trazado_877769" data-name="Trazado 877769" d="M1162.87,469.689a37.846,37.846,0,0,1-13.359,2.419,38.278,38.278,0,0,1-4.6-.276c-.091-.011-.182-.022-.272-.034a1.815,1.815,0,0,0,.177.16.039.039,0,0,1,.016.039q-1.8-.218-3.551-.6c-.1-.081-.195-.163-.29-.247a37.977,37.977,0,0,1-29.156-41.5h.114c.018-.191.175-.379.461-.561q.057.266.124.561.088.383.193.815c1.829,7.474,7.863,25.29,25.1,34.117a43.464,43.464,0,0,0,4.754,2.087,53.025,53.025,0,0,0,20.292,3.019" transform="translate(-1111.57 -429.09)" fill="#e6e6e6"/>
                </g>
              </g>
            </g>
            <path id="Trazado_877770" data-name="Trazado 877770" d="M1370.155,139.98c-4.679,5.981-7.664,11.482-6.669,12.285s5.6-3.394,10.275-9.375,7.664-11.482,6.669-12.285-5.6,3.394-10.275,9.375" transform="translate(-1009.688 -96.658)" fill="#206141"/>
            <path id="Trazado_877771" data-name="Trazado 877771" d="M1281.1,185.833c-7.264-1.98-13.42-2.574-13.75-1.326s5.292,3.864,12.556,5.844,13.421,2.574,13.75,1.326-5.292-3.864-12.557-5.844" transform="translate(-938.617 -136.168)" fill="#206141"/>
            <path id="Trazado_877772" data-name="Trazado 877772" d="M1372.308,216.711c5.6,5.095,9.461,10,8.613,10.968s-6.079-2.387-11.684-7.481-9.461-10-8.613-10.967,6.079,2.387,11.684,7.481" transform="translate(-1007.623 -154.84)" fill="#206141"/>
            <rect id="Rectángulo_406971" data-name="Rectángulo 406971" width="2.913" height="58.311" transform="translate(352.891 53.831)" fill="#206141"/>
            <path id="Trazado_877773" data-name="Trazado 877773" d="M1362.436,208.836a1.27,1.27,0,1,1-1.27-1.29,1.28,1.28,0,0,1,1.27,1.29" transform="translate(-1007.17 -153.715)" fill="#206141"/>
            <path id="Trazado_877774" data-name="Trazado 877774" d="M1365.49,220.345a15.788,15.788,0,0,1-2.2-3.092,37.451,37.451,0,0,0,2.2,4.661Z" transform="translate(-1009.687 -160.904)" fill="#206141"/>
            <path id="Trazado_877775" data-name="Trazado 877775" d="M1104.009,139.98c4.679,5.981,7.665,11.482,6.669,12.285s-5.6-3.394-10.275-9.375-7.665-11.482-6.669-12.285,5.6,3.394,10.275,9.375" transform="translate(-809.903 -96.658)" fill="#206141"/>
            <path id="Trazado_877776" data-name="Trazado 877776" d="M1167.346,185.833c7.264-1.98,13.421-2.574,13.75-1.326s-5.292,3.864-12.556,5.844-13.421,2.574-13.75,1.326,5.292-3.864,12.557-5.844" transform="translate(-855.254 -136.168)" fill="#206141"/>
            <path id="Trazado_877777" data-name="Trazado 877777" d="M1092.707,216.711c-5.6,5.095-9.461,10-8.613,10.968s6.079-2.387,11.684-7.481,9.461-10,8.613-10.967-6.079,2.387-11.684,7.481" transform="translate(-802.819 -154.84)" fill="#206141"/>
            <rect id="Rectángulo_406972" data-name="Rectángulo 406972" width="2.913" height="58.311" transform="translate(298.77 53.831)" fill="#206141"/>
            <path id="Trazado_877778" data-name="Trazado 877778" d="M1153.952,208.836a1.27,1.27,0,1,0,1.27-1.29,1.28,1.28,0,0,0-1.27,1.29" transform="translate(-854.644 -153.715)" fill="#206141"/>
            <path id="Trazado_877779" data-name="Trazado 877779" d="M1151.877,220.345a15.792,15.792,0,0,0,2.2-3.092,37.441,37.441,0,0,1-2.2,4.661Z" transform="translate(-853.107 -160.904)" fill="#206141"/>
            <path id="Trazado_877780" data-name="Trazado 877780" d="M1261.668,208.377c-4.679,5.981-7.665,11.482-6.669,12.285s5.6-3.394,10.275-9.375,7.664-11.482,6.669-12.285-5.6,3.394-10.275,9.375" transform="translate(-929.34 -147.314)" fill="#206141"/>
            <path id="Trazado_877781" data-name="Trazado 877781" d="M1172.612,254.23c-7.265-1.98-13.421-2.574-13.75-1.326s5.292,3.864,12.556,5.844,13.421,2.574,13.75,1.326-5.292-3.864-12.556-5.844" transform="translate(-858.27 -186.824)" fill="#206141"/>
            <path id="Trazado_877782" data-name="Trazado 877782" d="M1263.821,285.107c5.6,5.094,9.461,10,8.613,10.967s-6.079-2.387-11.684-7.481-9.461-10-8.613-10.967,6.079,2.387,11.684,7.481" transform="translate(-927.275 -205.495)" fill="#206141"/>
            <rect id="Rectángulo_406973" data-name="Rectángulo 406973" width="2.913" height="42.812" transform="translate(324.752 71.572)" fill="#206141"/>
            <path id="Trazado_877783" data-name="Trazado 877783" d="M1253.949,277.233a1.27,1.27,0,1,1-1.27-1.29,1.28,1.28,0,0,1,1.27,1.29" transform="translate(-926.823 -204.371)" fill="#206141"/>
            <path id="Trazado_877784" data-name="Trazado 877784" d="M1257,288.741a15.791,15.791,0,0,1-2.2-3.092,37.452,37.452,0,0,0,2.2,4.662Z" transform="translate(-929.339 -211.56)" fill="#206141"/>
            <path id="Trazado_877785" data-name="Trazado 877785" d="M1209.134,297.2c-2.887,3.69-4.729,7.084-4.115,7.58s3.453-2.094,6.339-5.784,4.729-7.084,4.115-7.58-3.453,2.094-6.339,5.784" transform="translate(-892.378 -215.788)" fill="#206141"/>
            <path id="Trazado_877786" data-name="Trazado 877786" d="M1154.184,325.5c-4.482-1.222-8.28-1.588-8.484-.818s3.265,2.384,7.747,3.606,8.281,1.588,8.484.818-3.265-2.384-7.747-3.606" transform="translate(-848.526 -240.166)" fill="#206141"/>
            <path id="Trazado_877787" data-name="Trazado 877787" d="M1210.463,344.547c3.458,3.143,5.838,6.173,5.314,6.767s-3.751-1.473-7.209-4.616-5.838-6.173-5.314-6.767,3.751,1.473,7.209,4.616" transform="translate(-891.104 -251.687)" fill="#206141"/>
            <rect id="Rectángulo_406974" data-name="Rectángulo 406974" width="1.797" height="26.415" transform="translate(312.081 87.899)" fill="#206141"/>
            <path id="Trazado_877788" data-name="Trazado 877788" d="M1204.371,339.688a.784.784,0,1,1-.783-.8.79.79,0,0,1,.783.8" transform="translate(-890.824 -250.993)" fill="#206141"/>
            <path id="Trazado_877789" data-name="Trazado 877789" d="M1206.255,346.789a9.737,9.737,0,0,1-1.355-1.908,23.117,23.117,0,0,0,1.355,2.876Z" transform="translate(-892.377 -255.428)" fill="#206141"/>
            <path id="Trazado_877790" data-name="Trazado 877790" d="M813.449,627.021a37.2,37.2,0,0,1-3.77,16.373c-.029.062-.06.124-.091.185a37.289,37.289,0,0,1-3.067,5.118l-.088.123a37.418,37.418,0,0,1-34.874,15.29l-.268-.034q-1.636-.209-3.228-.558l-.364-.081a37.4,37.4,0,0,1-28.71-40.864h74.2c.014.122.029.246.042.369a37.683,37.683,0,0,1,.221,4.078" transform="translate(-547.118 -461.094)" fill="#009245"/>
            <path id="Trazado_877791" data-name="Trazado 877791" d="M802.171,637.17c-1.715,1.77-1.95,4.025-2.139,6.293-.137,1.624-.966,2.438-2.6,2.325-1.524-.106-2.186.639-2.141,2.087a9.089,9.089,0,0,1-5.47,8.059c-.49.184-1.505.4-1.419.472.862.755.108,1.853.1,2.622a.685.685,0,0,0,.394.676c1.888.994.425,3.137,1.637,4.373a1.8,1.8,0,0,0,.175.157.038.038,0,0,1,.015.038q-1.775-.214-3.5-.592-.145-.119-.286-.243a7.73,7.73,0,0,1-2.5-3.908c-.212-.836-.43-1.7-.623-2.557a28.558,28.558,0,0,1-.564-3.2c-.265-2.47-1.291-4.945-.763-7.521.495-2.417-.814-3.655-2.693-5.1-2.123-1.63-4.036-3.912-4.257-6.872-.093-1.25-.053-2.665,1.526-3.388.951-.436.675-1.483.58-2.335-.106-.964-.983-1.091-1.595-1.067-1.542.062-2.351-.932-3.353-1.814l-.122-.107a13.441,13.441,0,0,0-2.295-1.645,8.615,8.615,0,0,0-1.328-.6q-.292-.1-.6-.182a7.617,7.617,0,0,0-.879-.176q-.341-.047-.7-.065l-.1,0a7.287,7.287,0,0,1-1.8-.268c-.061-.019-.118-.04-.174-.062h9.359c.1.05.2.1.3.148l.115.053a.6.6,0,0,1,.336.365,3.684,3.684,0,0,1,.04,1.095c0,.016,0,.032,0,.048a5.324,5.324,0,0,0,.08,1.465,1.135,1.135,0,0,0,1.039.734c1.147.177,2.384.761,3.244-.485.037-.052.072-.108.107-.166,1.141-1.929,2.576-1.273,4.022-.467.2.109.374.5.493.472a4.808,4.808,0,0,1,3.336.446c1.225.586,2.337,1.479,3.6,1.966,1.166.45,2.182.93,2.258,1.985.211,2.93,2.416,3.307,4.338,3.08,2.484-.294,3.322,1.746,4.948,2.615.491.263.156.932-.145,1.243" transform="translate(-566.353 -461.094)" fill="#8cc63f"/>
            <path id="Trazado_877792" data-name="Trazado 877792" d="M927.449,622.574c-.388,2.7,1.741,4.5,3.589,6.146,1.664,1.482,4.084.8,5.932-.039,2.358-1.072,3.713,1.267,5.691,1.218a1.312,1.312,0,0,1,.16.831c-.715,2.062.283,3.656,1.362,5.237.987,1.446,1.531,2.884.276,4.506a2.159,2.159,0,0,0-.2,2.436,27.711,27.711,0,0,1,1.919,5.95,37.191,37.191,0,0,0,6.928-21.677,37.7,37.7,0,0,0-.282-4.609Z" transform="translate(-686.856 -461.094)" fill="#8cc63f"/>
            <path id="Trazado_877793" data-name="Trazado 877793" d="M814.435,611.976a.5.5,0,0,1-.142.331.99.99,0,0,1-.086.089c-1.586,1.449-11.286,2.649-24.392,3.124-3.91.142-8.124.219-12.516.219-2.852,0-5.631-.032-8.3-.094-2.785-.064-5.451-.16-7.958-.284-1.486-.074-2.916-.156-4.284-.249q-1.214-.083-2.357-.173c-6.78-.539-11.663-1.311-13.471-2.2-.5-.246-.768-.5-.768-.765a.306.306,0,0,1,0-.038c.018-.188.172-.373.454-.553.846-.544,2.841-1.049,5.724-1.489q1.038-.158,2.226-.305.361-.044.735-.088.534-.062,1.092-.121,1.288-.137,2.707-.261l.612-.052.311-.026q.535-.043,1.084-.085l.188-.014.216-.016.278-.02c.3-.023.613-.044.925-.065h0l.308-.02.265-.018.28-.017.19-.012.74-.045.275-.017.137-.008.162-.009.315-.017.577-.032h.024l.267-.014.276-.014q.733-.038,1.485-.072l.237-.011.074,0h0q.82-.037,1.66-.069c4.131-.161,8.617-.249,13.307-.249,4.206,0,8.25.071,12.02.2l.841.031c.239.009.477.017.714.027l.185.007.128.005.92.039.57.026.277.013.306.015.563.027h0l.317.017.3.016.276.015.384.021.549.031.28.017.266.016.308.019.929.059.278.019.2.013q.66.044,1.3.092l.313.023.491.038c1.1.086,2.15.178,3.145.276q.558.054,1.092.113.6.064,1.177.131.424.05.83.1.6.076,1.166.155c4.415.619,7.016,1.379,7.016,2.2" transform="translate(-548.182 -450.458)" fill="#2a7d53"/>
            <path id="Trazado_877794" data-name="Trazado 877794" d="M819.937,614.412c0,1.358-15.107,2.459-33.742,2.459s-33.742-1.1-33.742-2.459,15.107-2.459,33.742-2.459,33.742,1.1,33.742,2.459" transform="translate(-557.284 -453.228)" fill="#206141"/>
            <g id="Grupo_1110524" data-name="Grupo 1110524" transform="translate(191.608 160.927)" style="mix-blend-mode: multiply;isolation: isolate">
              <g id="Grupo_1110523" data-name="Grupo 1110523">
                <g id="Grupo_1110522" data-name="Grupo 1110522" clip-path="url(#clip-path-4)">
                  <path id="Trazado_877795" data-name="Trazado 877795" d="M789.241,660.424a37.261,37.261,0,0,1-13.155,2.383,37.7,37.7,0,0,1-4.528-.272c-.09-.011-.179-.022-.268-.034a1.742,1.742,0,0,0,.175.157.038.038,0,0,1,.015.038q-1.775-.214-3.5-.592c-.1-.079-.192-.16-.286-.243a37.376,37.376,0,0,1-28.974-36.416,37.762,37.762,0,0,1,.263-4.448h.112c.018-.188.172-.372.453-.552.038.174.078.358.122.552q.087.378.19.8c1.8,7.359,7.743,24.9,24.713,33.6a42.819,42.819,0,0,0,4.681,2.055,52.211,52.211,0,0,0,19.982,2.973" transform="translate(-738.725 -620.445)" fill="#e6e6e6"/>
                </g>
              </g>
            </g>
            <rect id="Rectángulo_406976" data-name="Rectángulo 406976" width="0.99" height="7.179" transform="translate(220.127 152.517)" fill="#396"/>
            <path id="Trazado_877796" data-name="Trazado 877796" d="M846.494,610.165,845.47,606.3h-2.361l-1.024,3.869Z" transform="translate(-623.667 -449.038)" fill="#396"/>
            <g id="Grupo_1110527" data-name="Grupo 1110527" transform="translate(220.127 152.802)" style="mix-blend-mode: multiply;isolation: isolate">
              <g id="Grupo_1110526" data-name="Grupo 1110526">
                <g id="Grupo_1110525" data-name="Grupo 1110525" clip-path="url(#clip-path-5)">
                  <path id="Trazado_877797" data-name="Trazado 877797" d="M849.651,589.118h-.975v.733Z" transform="translate(-848.676 -589.118)" fill="#e6e6e6"/>
                </g>
              </g>
            </g>
            <g id="Grupo_1110530" data-name="Grupo 1110530" transform="translate(218.417 157.258)" style="mix-blend-mode: multiply;isolation: isolate">
              <g id="Grupo_1110529" data-name="Grupo 1110529">
                <g id="Grupo_1110528" data-name="Grupo 1110528" clip-path="url(#clip-path-6)">
                  <path id="Trazado_877798" data-name="Trazado 877798" d="M843.509,610.165l.588-3.869h-.989l-1.024,3.869Z" transform="translate(-842.085 -606.296)" fill="#e6e6e6"/>
                </g>
              </g>
            </g>
            <path id="Trazado_877799" data-name="Trazado 877799" d="M841.113,566.018h-9.227l1.7-6.555h6Z" transform="translate(-616.115 -414.353)" fill="#fff"/>
            <path id="Trazado_877800" data-name="Trazado 877800" d="M830.717,565.968h-.961l1.975-6.948h.609Z" transform="translate(-614.537 -414.024)" fill="#396"/>
            <path id="Trazado_877801" data-name="Trazado 877801" d="M849.694,565.968h-.96l.175-6.948h.609Z" transform="translate(-628.591 -414.024)" fill="#396"/>
            <path id="Trazado_877802" data-name="Trazado 877802" d="M864.034,565.968h-.96l-1.624-6.948h.609Z" transform="translate(-638.01 -414.024)" fill="#396"/>
            <path id="Trazado_877803" data-name="Trazado 877803" d="M843.347,564.62h-7.8l.082-.289h7.638Z" transform="translate(-618.824 -417.958)" fill="#396"/>
            <path id="Trazado_877804" data-name="Trazado 877804" d="M844.1,559.252h-6.987l.066-.232h6.855Z" transform="translate(-619.988 -414.024)" fill="#95a8c4"/>
            <path id="Trazado_877805" data-name="Trazado 877805" d="M842.126,573.247h-9.118l.112-.393h8.894Z" transform="translate(-616.945 -424.27)" fill="#396"/>
            <path id="Trazado_877806" data-name="Trazado 877806" d="M840.41,585.3H829.442l.161-.566h10.646Z" transform="translate(-614.304 -433.069)" fill="#396"/>
            <rect id="Rectángulo_406979" data-name="Rectángulo 406979" width="10.968" height="0.571" transform="translate(215.138 152.231)" fill="#2a7d53"/>
            <rect id="Rectángulo_406980" data-name="Rectángulo 406980" width="0.99" height="7.179" transform="translate(237.941 152.517)" fill="#396"/>
            <path id="Trazado_877807" data-name="Trazado 877807" d="M915.174,610.165,914.15,606.3h-2.361l-1.024,3.869Z" transform="translate(-674.533 -449.038)" fill="#396"/>
            <g id="Grupo_1110533" data-name="Grupo 1110533" transform="translate(237.941 152.802)" style="mix-blend-mode: multiply;isolation: isolate">
              <g id="Grupo_1110532" data-name="Grupo 1110532">
                <g id="Grupo_1110531" data-name="Grupo 1110531" clip-path="url(#clip-path-5)">
                  <path id="Trazado_877808" data-name="Trazado 877808" d="M918.332,589.118h-.975v.733Z" transform="translate(-917.356 -589.118)" fill="#e6e6e6"/>
                </g>
              </g>
            </g>
            <g id="Grupo_1110536" data-name="Grupo 1110536" transform="translate(236.231 157.258)" style="mix-blend-mode: multiply;isolation: isolate">
              <g id="Grupo_1110535" data-name="Grupo 1110535">
                <g id="Grupo_1110534" data-name="Grupo 1110534" clip-path="url(#clip-path-6)">
                  <path id="Trazado_877809" data-name="Trazado 877809" d="M912.19,610.165l.588-3.869h-.989l-1.024,3.869Z" transform="translate(-910.765 -606.296)" fill="#e6e6e6"/>
                </g>
              </g>
            </g>
            <path id="Trazado_877810" data-name="Trazado 877810" d="M909.794,566.018h-9.227l1.7-6.555h6Z" transform="translate(-666.981 -414.353)" fill="#fff"/>
            <path id="Trazado_877811" data-name="Trazado 877811" d="M899.4,565.968h-.961l1.975-6.948h.609Z" transform="translate(-665.403 -414.024)" fill="#396"/>
            <path id="Trazado_877812" data-name="Trazado 877812" d="M918.374,565.968h-.96l.176-6.948h.609Z" transform="translate(-679.458 -414.024)" fill="#396"/>
            <path id="Trazado_877813" data-name="Trazado 877813" d="M932.714,565.968h-.96l-1.624-6.948h.609Z" transform="translate(-688.876 -414.024)" fill="#396"/>
            <path id="Trazado_877814" data-name="Trazado 877814" d="M912.027,564.62h-7.8l.082-.289h7.638Z" transform="translate(-669.69 -417.958)" fill="#396"/>
            <path id="Trazado_877815" data-name="Trazado 877815" d="M912.783,559.252H905.8l.066-.232h6.855Z" transform="translate(-670.854 -414.024)" fill="#95a8c4"/>
            <path id="Trazado_877816" data-name="Trazado 877816" d="M910.806,573.247h-9.118l.112-.393h8.894Z" transform="translate(-667.811 -424.27)" fill="#396"/>
            <path id="Trazado_877817" data-name="Trazado 877817" d="M909.09,585.3H898.122l.161-.566h10.646Z" transform="translate(-665.17 -433.069)" fill="#396"/>
            <rect id="Rectángulo_406983" data-name="Rectángulo 406983" width="10.968" height="0.571" transform="translate(232.952 152.231)" fill="#2a7d53"/>
            <rect id="Rectángulo_406984" data-name="Rectángulo 406984" width="1.546" height="11.212" transform="translate(247.01 147.455)" fill="#396"/>
            <path id="Trazado_877818" data-name="Trazado 877818" d="M948.9,603.12H942l1.606-6.067h3.688Z" transform="translate(-697.668 -442.193)" fill="#396"/>
            <g id="Grupo_1110539" data-name="Grupo 1110539" transform="translate(247.01 147.901)" style="mix-blend-mode: multiply;isolation: isolate">
              <g id="Grupo_1110538" data-name="Grupo 1110538">
                <g id="Grupo_1110537" data-name="Grupo 1110537" clip-path="url(#clip-path-9)">
                  <path id="Trazado_877819" data-name="Trazado 877819" d="M953.844,570.222h-1.523v1.145Z" transform="translate(-952.321 -570.222)" fill="#e6e6e6"/>
                </g>
              </g>
            </g>
            <g id="Grupo_1110542" data-name="Grupo 1110542" transform="translate(244.333 154.86)" style="mix-blend-mode: multiply;isolation: isolate">
              <g id="Grupo_1110541" data-name="Grupo 1110541">
                <g id="Grupo_1110540" data-name="Grupo 1110540" clip-path="url(#clip-path-10)">
                  <path id="Trazado_877820" data-name="Trazado 877820" d="M943.607,597.053h1.544l-.922,6.067H942Z" transform="translate(-942.001 -597.053)" fill="#e6e6e6"/>
                </g>
              </g>
            </g>
            <path id="Trazado_877821" data-name="Trazado 877821" d="M940.508,534.14H926.1l2.651-10.238h9.368Z" transform="translate(-685.889 -388.015)" fill="#fff"/>
            <path id="Trazado_877822" data-name="Trazado 877822" d="M924.271,534.063h-1.5l3.085-10.853h.952Z" transform="translate(-683.426 -387.503)" fill="#396"/>
            <path id="Trazado_877823" data-name="Trazado 877823" d="M953.911,534.063h-1.5l.274-10.853h.952Z" transform="translate(-705.377 -387.503)" fill="#396"/>
            <path id="Trazado_877824" data-name="Trazado 877824" d="M976.309,534.063h-1.5l-2.536-10.853h.952Z" transform="translate(-720.087 -387.503)" fill="#396"/>
            <path id="Trazado_877825" data-name="Trazado 877825" d="M944,531.956H931.81l.128-.451h11.93Z" transform="translate(-690.12 -393.647)" fill="#396"/>
            <path id="Trazado_877826" data-name="Trazado 877826" d="M945.178,523.572H934.266l.1-.363h10.707Z" transform="translate(-691.939 -387.503)" fill="#95a8c4"/>
            <path id="Trazado_877827" data-name="Trazado 877827" d="M942.09,545.432H927.848l.174-.614h13.893Z" transform="translate(-687.186 -403.506)" fill="#396"/>
            <path id="Trazado_877828" data-name="Trazado 877828" d="M939.41,564.258H922.279l.251-.884h16.628Z" transform="translate(-683.061 -417.249)" fill="#396"/>
            <rect id="Rectángulo_406987" data-name="Rectángulo 406987" width="17.131" height="0.892" transform="translate(239.218 147.009)" fill="#2a7d53"/>
            <rect id="Rectángulo_406988" data-name="Rectángulo 406988" width="1.546" height="11.212" transform="translate(229.097 147.455)" fill="#396"/>
            <path id="Trazado_877829" data-name="Trazado 877829" d="M878.868,603.1v.024h.991l-1.606-6.067h-3.688l-1.6,6.043Z" transform="translate(-646.539 -442.193)" fill="#396"/>
            <g id="Grupo_1110545" data-name="Grupo 1110545" transform="translate(229.097 147.901)" style="mix-blend-mode: multiply;isolation: isolate">
              <g id="Grupo_1110544" data-name="Grupo 1110544">
                <g id="Grupo_1110543" data-name="Grupo 1110543" clip-path="url(#clip-path-9)">
                  <path id="Trazado_877830" data-name="Trazado 877830" d="M884.784,570.222h-1.523v1.145Z" transform="translate(-883.261 -570.222)" fill="#e6e6e6"/>
                </g>
              </g>
            </g>
            <g id="Grupo_1110548" data-name="Grupo 1110548" transform="translate(226.427 154.86)" style="mix-blend-mode: multiply;isolation: isolate">
              <g id="Grupo_1110547" data-name="Grupo 1110547">
                <g id="Grupo_1110546" data-name="Grupo 1110546" clip-path="url(#clip-path-12)">
                  <path id="Trazado_877831" data-name="Trazado 877831" d="M875.192,603.1l.918-6.043h-1.544l-1.6,6.043Z" transform="translate(-872.966 -597.053)" fill="#e6e6e6"/>
                </g>
              </g>
            </g>
            <path id="Trazado_877832" data-name="Trazado 877832" d="M871.448,534.14H857.037l2.651-10.238h9.368Z" transform="translate(-634.741 -388.015)" fill="#fff"/>
            <path id="Trazado_877833" data-name="Trazado 877833" d="M855.211,534.063h-1.5L856.8,523.21h.952Z" transform="translate(-632.278 -387.503)" fill="#396"/>
            <path id="Trazado_877834" data-name="Trazado 877834" d="M884.851,534.063h-1.5l.274-10.853h.952Z" transform="translate(-654.23 -387.503)" fill="#396"/>
            <path id="Trazado_877835" data-name="Trazado 877835" d="M907.249,534.063h-1.5l-2.536-10.853h.952Z" transform="translate(-668.94 -387.503)" fill="#396"/>
            <path id="Trazado_877836" data-name="Trazado 877836" d="M874.937,531.956H862.75l.128-.451h11.93Z" transform="translate(-638.973 -393.647)" fill="#396"/>
            <path id="Trazado_877837" data-name="Trazado 877837" d="M876.118,523.572H865.206l.1-.363h10.707Z" transform="translate(-640.791 -387.503)" fill="#95a8c4"/>
            <path id="Trazado_877838" data-name="Trazado 877838" d="M873.03,545.432H858.788l.175-.614h13.892Z" transform="translate(-636.039 -403.506)" fill="#396"/>
            <path id="Trazado_877839" data-name="Trazado 877839" d="M870.35,564.258H853.219l.251-.884H870.1Z" transform="translate(-631.914 -417.249)" fill="#396"/>
            <rect id="Rectángulo_406991" data-name="Rectángulo 406991" width="17.131" height="0.892" transform="translate(221.305 147.009)" fill="#2a7d53"/>
            <rect id="Rectángulo_406992" data-name="Rectángulo 406992" width="1.546" height="11.212" transform="translate(210.788 147.455)" fill="#396"/>
            <path id="Trazado_877840" data-name="Trazado 877840" d="M809.264,603.1l-1.6-6.043h-3.688l-1.6,6.043Z" transform="translate(-594.259 -442.193)" fill="#396"/>
            <g id="Grupo_1110551" data-name="Grupo 1110551" transform="translate(210.788 147.901)" style="mix-blend-mode: multiply;isolation: isolate">
              <g id="Grupo_1110550" data-name="Grupo 1110550">
                <g id="Grupo_1110549" data-name="Grupo 1110549" clip-path="url(#clip-path-9)">
                  <path id="Trazado_877841" data-name="Trazado 877841" d="M814.2,570.222h-1.523v1.145Z" transform="translate(-812.672 -570.222)" fill="#e6e6e6"/>
                </g>
              </g>
            </g>
            <g id="Grupo_1110554" data-name="Grupo 1110554" transform="translate(208.118 154.86)" style="mix-blend-mode: multiply;isolation: isolate">
              <g id="Grupo_1110553" data-name="Grupo 1110553">
                <g id="Grupo_1110552" data-name="Grupo 1110552" clip-path="url(#clip-path-12)">
                  <path id="Trazado_877842" data-name="Trazado 877842" d="M804.6,603.1l.918-6.043h-1.544l-1.6,6.043Z" transform="translate(-802.377 -597.053)" fill="#e6e6e6"/>
                </g>
              </g>
            </g>
            <path id="Trazado_877843" data-name="Trazado 877843" d="M800.859,534.14H786.448L789.1,523.9h9.368Z" transform="translate(-582.462 -388.015)" fill="#fff"/>
            <path id="Trazado_877844" data-name="Trazado 877844" d="M784.622,534.063h-1.5l3.085-10.853h.952Z" transform="translate(-579.998 -387.503)" fill="#396"/>
            <path id="Trazado_877845" data-name="Trazado 877845" d="M814.261,534.063h-1.5l.274-10.853h.952Z" transform="translate(-601.95 -387.503)" fill="#396"/>
            <path id="Trazado_877846" data-name="Trazado 877846" d="M836.66,534.063h-1.5l-2.536-10.853h.952Z" transform="translate(-616.66 -387.503)" fill="#396"/>
            <path id="Trazado_877847" data-name="Trazado 877847" d="M804.348,531.956H792.161l.128-.451h11.93Z" transform="translate(-586.693 -393.647)" fill="#396"/>
            <path id="Trazado_877848" data-name="Trazado 877848" d="M805.529,523.572H794.617l.1-.363h10.707Z" transform="translate(-588.511 -387.503)" fill="#95a8c4"/>
            <path id="Trazado_877849" data-name="Trazado 877849" d="M802.441,545.432H788.2l.175-.614h13.893Z" transform="translate(-583.759 -403.506)" fill="#396"/>
            <path id="Trazado_877850" data-name="Trazado 877850" d="M799.761,564.258H782.63l.251-.884H799.51Z" transform="translate(-579.634 -417.249)" fill="#396"/>
            <rect id="Rectángulo_406995" data-name="Rectángulo 406995" width="17.131" height="0.892" transform="translate(202.996 147.009)" fill="#2a7d53"/>
            <path id="Trazado_877851" data-name="Trazado 877851" d="M570.24,695.581a6.5,6.5,0,0,1,.3,1.324,6.255,6.255,0,0,1-4.115,6.648,5.959,5.959,0,0,1-1.269.3,6.088,6.088,0,0,1-4.988-1.695,8.131,8.131,0,0,1-3.642,2.86l-.294,12.3h-4.771l.155-11.984a8.183,8.183,0,0,1-5.59-4.984,6.062,6.062,0,0,1-2.615.956c-.173.021-.344.035-.515.04a6.185,6.185,0,0,1-6.324-5.507,6.3,6.3,0,0,1,1.853-5.251,4.853,4.853,0,0,1,2.765-8.247,4.653,4.653,0,0,1,1.066,0c-.007-.042-.016-.08-.021-.122a4.813,4.813,0,0,1,4.161-5.368c.053-.007.1-.012.157-.016a4.735,4.735,0,0,1,1.911.234,4.782,4.782,0,0,1,4.053-3.65,4.733,4.733,0,0,1,4.644,2.323,5.144,5.144,0,0,1,4.544-.748,5.264,5.264,0,0,1,3.57,3.983.068.068,0,0,0,.021,0,5.226,5.226,0,0,1,5.786,4.628,5.332,5.332,0,0,1-.5,2.951,5.327,5.327,0,0,1-.349,9.042" transform="translate(-397.369 -498.717)" fill="#27734c"/>
            <path id="Trazado_877852" data-name="Trazado 877852" d="M419.333,848.28a36.326,36.326,0,0,1-3.681,15.987c-.029.06-.058.121-.089.181a36.42,36.42,0,0,1-2.995,5c-.029.04-.058.08-.086.12a36.537,36.537,0,0,1-34.05,14.928l-.261-.033q-1.6-.2-3.152-.545l-.356-.08a36.493,36.493,0,0,1-28.289-35.556,36.872,36.872,0,0,1,.257-4.342h72.444c.014.12.028.24.041.36a36.785,36.785,0,0,1,.215,3.982" transform="translate(-256.534 -625.041)" fill="#009245"/>
            <path id="Trazado_877853" data-name="Trazado 877853" d="M408.322,858.189c-1.675,1.728-1.9,3.93-2.089,6.144a2.147,2.147,0,0,1-2.54,2.27c-1.488-.1-2.134.624-2.09,2.038a8.874,8.874,0,0,1-5.341,7.869c-.479.18-1.47.388-1.386.461.841.737.106,1.809.093,2.56a.668.668,0,0,0,.384.66c1.844.97.416,3.062,1.6,4.27a1.723,1.723,0,0,0,.17.153.037.037,0,0,1,.015.037q-1.733-.209-3.414-.578-.142-.116-.279-.237a7.545,7.545,0,0,1-2.438-3.815c-.207-.817-.42-1.659-.608-2.5a27.8,27.8,0,0,1-.551-3.122c-.259-2.411-1.26-4.828-.746-7.343.483-2.36-.795-3.569-2.629-4.975-2.073-1.591-3.94-3.819-4.156-6.71-.091-1.22-.051-2.6,1.49-3.308.929-.426.659-1.448.567-2.28-.1-.941-.96-1.064-1.557-1.041-1.506.06-2.295-.91-3.274-1.771l-.119-.1a13.113,13.113,0,0,0-2.241-1.606,8.409,8.409,0,0,0-1.3-.584q-.285-.1-.581-.178a7.425,7.425,0,0,0-.859-.172q-.333-.047-.68-.063l-.1,0A7.106,7.106,0,0,1,371.9,844c-.059-.019-.115-.039-.17-.06h9.138c.093.049.191.1.294.145l.113.051a.591.591,0,0,1,.328.357,3.606,3.606,0,0,1,.039,1.069c0,.016,0,.031,0,.046a5.2,5.2,0,0,0,.078,1.43,1.108,1.108,0,0,0,1.014.717c1.12.173,2.327.744,3.168-.474.036-.051.07-.105.1-.162,1.115-1.884,2.515-1.243,3.927-.456.192.107.365.488.482.46a4.691,4.691,0,0,1,3.257.435c1.2.573,2.282,1.445,3.516,1.92,1.138.439,2.13.908,2.2,1.938.206,2.861,2.358,3.229,4.235,3.007,2.425-.286,3.243,1.705,4.831,2.553.48.256.153.91-.141,1.214" transform="translate(-275.315 -625.041)" fill="#8cc63f"/>
            <path id="Trazado_877854" data-name="Trazado 877854" d="M530.639,843.938c-.379,2.637,1.7,4.395,3.5,6,1.624,1.447,3.987.783,5.792-.038,2.3-1.047,3.625,1.237,5.556,1.188a1.282,1.282,0,0,1,.156.812c-.7,2.013.276,3.569,1.33,5.113.964,1.412,1.5,2.816.269,4.4a2.108,2.108,0,0,0-.193,2.379,27.026,27.026,0,0,1,1.874,5.809,36.311,36.311,0,0,0,6.764-21.164,36.891,36.891,0,0,0-.275-4.5Z" transform="translate(-392.97 -625.041)" fill="#8cc63f"/>
            <path id="Trazado_877855" data-name="Trazado 877855" d="M420.3,833.589a.493.493,0,0,1-.139.323.994.994,0,0,1-.084.087c-1.548,1.414-11.019,2.586-23.815,3.05-3.818.139-7.932.214-12.22.214-2.785,0-5.5-.032-8.1-.092-2.72-.063-5.322-.156-7.77-.278-1.451-.071-2.848-.153-4.182-.243q-1.185-.08-2.3-.169c-6.62-.526-11.388-1.28-13.152-2.146-.491-.241-.75-.491-.75-.747a.3.3,0,0,1,0-.037c.018-.184.168-.364.443-.539a17.549,17.549,0,0,1,5.589-1.454q1.014-.154,2.173-.3l.718-.086q.521-.06,1.067-.118,1.257-.134,2.643-.255l.6-.051.3-.025q.522-.042,1.059-.083l.184-.014.211-.016.271-.02q.447-.033.9-.063h0l.3-.02.258-.018.273-.017.185-.012.722-.044.268-.016.134-.008.158-.009.308-.017.563-.031h.023l.261-.013.27-.014q.716-.037,1.45-.07l.231-.011.073,0h0q.8-.036,1.621-.068c4.033-.157,8.413-.243,12.992-.243,4.107,0,8.055.069,11.736.2l.821.03.7.027.181.007.125,0,.9.038.556.025.27.013.3.014.55.027h0l.309.016.292.015.27.014.375.02.536.03.274.016.26.015.3.018.907.057.272.018.191.013q.644.043,1.269.09l.306.023.479.037c1.073.084,2.1.174,3.071.27q.545.052,1.067.11.589.062,1.149.128.414.049.81.1.588.074,1.138.152c4.311.6,6.851,1.347,6.851,2.149" transform="translate(-257.573 -614.656)" fill="#2a7d53"/>
            <path id="Trazado_877856" data-name="Trazado 877856" d="M425.667,835.969c0,1.326-14.75,2.4-32.945,2.4s-32.944-1.075-32.944-2.4,14.75-2.4,32.944-2.4,32.945,1.075,32.945,2.4" transform="translate(-266.46 -617.361)" fill="#206141"/>
            <g id="Grupo_1110557" data-name="Grupo 1110557" transform="translate(89.842 218.357)" style="mix-blend-mode: multiply;isolation: isolate">
              <g id="Grupo_1110556" data-name="Grupo 1110556">
                <g id="Grupo_1110555" data-name="Grupo 1110555" clip-path="url(#clip-path-15)">
                  <path id="Trazado_877857" data-name="Trazado 877857" d="M395.7,880.892a36.386,36.386,0,0,1-12.844,2.326,36.806,36.806,0,0,1-4.421-.266c-.087-.01-.175-.021-.261-.033a1.742,1.742,0,0,0,.17.154.036.036,0,0,1,.015.037q-1.733-.209-3.414-.578c-.094-.078-.187-.156-.279-.237a36.51,36.51,0,0,1-28.032-39.9h.109c.018-.184.168-.364.443-.539q.055.256.119.539.084.369.186.784c1.759,7.186,7.56,24.315,24.129,32.8a41.814,41.814,0,0,0,4.57,2.006,50.985,50.985,0,0,0,19.509,2.9" transform="translate(-346.376 -841.858)" fill="#e6e6e6"/>
                </g>
              </g>
            </g>
            <path id="Trazado_877858" data-name="Trazado 877858" d="M328.781,697.124a6.507,6.507,0,0,0-.3,1.325,6.255,6.255,0,0,0,4.115,6.648,5.939,5.939,0,0,0,1.269.3,6.089,6.089,0,0,0,4.988-1.695,8.132,8.132,0,0,0,3.642,2.86l.284,11.881h4.775l-.15-11.57a8.182,8.182,0,0,0,5.59-4.984,6.06,6.06,0,0,0,2.615.956c.173.021.344.035.515.04a6.185,6.185,0,0,0,6.324-5.507,6.3,6.3,0,0,0-1.853-5.251,4.853,4.853,0,0,0-2.765-8.247,4.666,4.666,0,0,0-1.066,0c.007-.042.016-.08.021-.122a4.813,4.813,0,0,0-4.161-5.368c-.053-.007-.1-.012-.157-.016a4.732,4.732,0,0,0-1.911.234,4.725,4.725,0,0,0-8.7-1.327,5.143,5.143,0,0,0-4.544-.748,5.264,5.264,0,0,0-3.571,3.983.064.064,0,0,1-.021,0,5.226,5.226,0,0,0-5.786,4.628,5.332,5.332,0,0,0,.5,2.951,5.327,5.327,0,0,0,.349,9.041" transform="translate(-241.51 -499.86)" fill="#27734c"/>
            <path id="Trazado_877859" data-name="Trazado 877859" d="M405.8,627.449a7.958,7.958,0,0,0-.373,1.639,7.7,7.7,0,0,0,6.654,8.584,7.523,7.523,0,0,0,6.164-2.1,10.065,10.065,0,0,0,4.5,3.535l.5,21.1.024,2.743h5.844l-.058-4.392L428.81,639.5a10.109,10.109,0,0,0,6.91-6.161,7.514,7.514,0,0,0,8.73-.337,7.8,7.8,0,0,0,.664-11.727,6,6,0,0,0-3.417-10.194,5.832,5.832,0,0,0-1.316-.006c.006-.051.019-.1.025-.151a5.951,5.951,0,0,0-5.145-6.633,5.7,5.7,0,0,0-2.554.27,5.842,5.842,0,0,0-10.751-1.642,6.38,6.38,0,0,0-2.971-1.163,6.124,6.124,0,0,0-1.535,0,6.465,6.465,0,0,0-5.521,5.158c-.009,0-.019,0-.028,0a6.459,6.459,0,0,0-7.151,5.721,6.591,6.591,0,0,0,.617,3.644,6.583,6.583,0,0,0,.43,11.174" transform="translate(-298.079 -444.378)" fill="#2a7d53"/>
            <path id="Trazado_877860" data-name="Trazado 877860" d="M471.4,652.032A7.332,7.332,0,0,0,474.2,657a7.133,7.133,0,0,0,8.288.321,9.6,9.6,0,0,0,6.56,5.849l-.234,18.1-.009.677h5.545l.457-19.145a9.553,9.553,0,0,0,4.274-3.356,7.141,7.141,0,0,0,5.852,1.989,7.313,7.313,0,0,0,6.317-8.149,7.562,7.562,0,0,0-.354-1.556,6.249,6.249,0,0,0,.408-10.608,6.256,6.256,0,0,0,.586-3.46,6.132,6.132,0,0,0-6.789-5.43l-.027,0a6.137,6.137,0,0,0-5.242-4.9,5.821,5.821,0,0,0-1.457,0,6.058,6.058,0,0,0-2.821,1.1,5.554,5.554,0,0,0-5.449-2.724A5.61,5.61,0,0,0,485.349,630a5.418,5.418,0,0,0-2.424-.256,5.65,5.65,0,0,0-4.884,6.3c.006.049.018.095.024.143a5.535,5.535,0,0,0-1.25.006,5.694,5.694,0,0,0-3.244,9.678,7.4,7.4,0,0,0-2.175,6.16" transform="translate(-349.089 -463.394)" fill="#396"/>
            <path id="Trazado_877861" data-name="Trazado 877861" d="M378.036,693.729a5.792,5.792,0,0,0,2.215,3.927,5.632,5.632,0,0,0,6.544.253,7.578,7.578,0,0,0,5.18,4.618l-.185,14.293-.007.535h4.379l.361-15.117a7.542,7.542,0,0,0,3.375-2.65,5.638,5.638,0,0,0,4.62,1.571,5.775,5.775,0,0,0,4.988-6.435,5.958,5.958,0,0,0-.28-1.229,43.217,43.217,0,0,1,.785-11.108,4.841,4.841,0,0,0-5.36-4.288l-.022,0a4.846,4.846,0,0,0-4.139-3.867,4.6,4.6,0,0,0-1.15,0,4.785,4.785,0,0,0-2.227.872,4.38,4.38,0,0,0-8.06,1.231,4.275,4.275,0,0,0-1.914-.2,4.461,4.461,0,0,0-3.857,4.972c0,.038.014.075.019.113a4.357,4.357,0,0,0-.987,0,4.5,4.5,0,0,0-2.562,7.642,5.84,5.84,0,0,0-1.717,4.864" transform="translate(-279.953 -498.383)" fill="#396"/>
            <rect id="Rectángulo_406997" data-name="Rectángulo 406997" width="42.633" height="120.374" transform="translate(108.755 259.321)" fill="#004b72"/>
            <rect id="Rectángulo_406998" data-name="Rectángulo 406998" width="42.633" height="175.343" transform="translate(207.653 204.352)" fill="#004b72"/>
            <rect id="Rectángulo_406999" data-name="Rectángulo 406999" width="42.633" height="225.382" transform="translate(305.97 154.313)" fill="#004b72"/>
            <rect id="Rectángulo_407000" data-name="Rectángulo 407000" width="42.633" height="279.613" transform="translate(402.356 100.082)" fill="#004b72"/>
            <path id="Trazado_877862" data-name="Trazado 877862" d="M244.565,747.688l-14.781-14.563L390.735,569.767l128.651,28.551,85.126-117.705,16.814,12.16L528.206,621.53,397.454,592.513Z" transform="translate(-170.183 -355.954)" fill="#396"/>
            <path id="Trazado_877863" data-name="Trazado 877863" d="M1559.616,475.4l-32.7-18.717,27.748-10.555,27.748-10.555,4.951,29.272,4.951,29.272Z" transform="translate(-1130.87 -322.595)" fill="#396"/>
            <rect id="Rectángulo_407001" data-name="Rectángulo 407001" width="505.05" height="17.35" transform="translate(0 377.97)" fill="#396"/>
            <path id="Trazado_877864" data-name="Trazado 877864" d="M199.776,533.1l22.2,31.875s9.706,13.943,0,18.246-36.536-26.988-36.536-26.988Z" transform="translate(-137.344 -394.827)" fill="#002a69"/>
            <path id="Trazado_877865" data-name="Trazado 877865" d="M37.781,944l-.448,6.177-1.662-1.243.567-5.856Z" transform="translate(-26.419 -698.463)" fill="#002a69"/>
            <path id="Trazado_877866" data-name="Trazado 877866" d="M214.507,444.33l.89,11.157L217,461.913l-2.5.624s-4.2,9.014-10.711,2.676l-4.017,2.141-6.219,3.956-5.919-6.993-2.194-4.006,7.64-3.044s14.729-12.4,21.423-12.938" transform="translate(-137.344 -329.082)" fill="#ffae9e"/>
            <path id="Trazado_877867" data-name="Trazado 877867" d="M237.213,427.633s-4.771-2.572-6.668-1.528-2.033,10.731-2.033,10.731l-1.785.446-1.564-6.259s-3.931-.551-3.93,2.491l.715,2.864L214.9,437l1.877-16.779,5.445-3.257s23.694,1.465,14.993,10.668" transform="translate(-159.158 -308.815)" fill="#002152"/>
            <path id="Trazado_877868" data-name="Trazado 877868" d="M225.607,477.65l-2.77-3.787,3.718-12.739s-4.575-.327-6.309,8.108l-3.227.286-2.122.188,1.516,6.07,4.754,4.286Z" transform="translate(-159.158 -341.519)" fill="#eaa091"/>
            <path id="Trazado_877869" data-name="Trazado 877869" d="M139.663,964.084l-10.436,116.934-7.258.024-10.983-77.477,5.535-29.971L127.509,954.1Z" transform="translate(-82.199 -706.633)" fill="#002152"/>
            <path id="Trazado_877870" data-name="Trazado 877870" d="M91.907,489.809l13.172,16.645L112.3,561.4l-13.341,64.26L51.279,612.113l9.92-40.67L62.594,521.2a17.107,17.107,0,0,1,3.331-9.677l5.305-7.2c1.156-2.457,15.854-11.441,18.214-12.783Z" transform="translate(-37.978 -362.765)" fill="#002a69"/>
            <path id="Trazado_877871" data-name="Trazado 877871" d="M96.33,573.438a13.628,13.628,0,0,0-2.93-17.23,9.348,9.348,0,0,0-6.767-2.312c-9.282.694-11.229,2.4-14.659,11.986s-12.923,35.19-12.923,35.19-6.861,19.181-3.953,51.113l3.609-.27,20.724-48.738Z" transform="translate(-40.274 -410.21)" fill="#0c3879"/>
            <path id="Trazado_877872" data-name="Trazado 877872" d="M77.921,943.352l6.563,59.993s-14.311,9.711,8.5,72.046l5.232.625,12.808-119.892Z" transform="translate(-57.71 -698.67)" fill="#002a69"/>
            <path id="Trazado_877873" data-name="Trazado 877873" d="M130,1442.841l-2.223,2.96,1.623,3.022,3.5.087.591-1.441,2.24,1.928,7.692.123,1.632-1.519-8.542-2.154-2.986-2.57Z" transform="translate(-94.637 -1068.603)" fill="#002152"/>
            <path id="Trazado_877874" data-name="Trazado 877874" d="M156.292,1441.987l-2.223,2.96,1.623,3.021,3.5.088.59-1.441,2.24,1.928,7.692.123,1.632-1.519-8.542-2.155-2.986-2.571Z" transform="translate(-114.107 -1067.971)" fill="#002152"/>
            <path id="Trazado_877875" data-name="Trazado 877875" d="M46.471,931.87l-1.589,6.137-3.543,1.507-3.481-4.738,5-2.636Z" transform="translate(-28.038 -690.166)" fill="#ffae9e"/>
            <path id="Trazado_877876" data-name="Trazado 877876" d="M256.485,616.814l2.653-10.315-8.391-52.518-2.785,4.357Z" transform="translate(-183.646 -410.293)" fill="#ed1c24"/>
            <path id="Trazado_877877" data-name="Trazado 877877" d="M226.466,571.388,218.2,502.522,207.917,489.81l8.643,39.281-5.749-.607Z" transform="translate(-153.988 -362.766)" fill="#0c3879"/>
            <path id="Trazado_877878" data-name="Trazado 877878" d="M208.5,506.454l-13.172-16.645-4.409,3.441,13.235,24.418Z" transform="translate(-141.398 -362.765)" fill="#fff"/>
            <path id="Trazado_877879" data-name="Trazado 877879" d="M252.41,553.981l-2.2,5.942,1.273,2.424,2.617.323,1.461-4.434Z" transform="translate(-185.309 -410.293)" fill="#ed1c24"/>
            <path id="Trazado_877880" data-name="Trazado 877880" d="M113.559,977.12,81.694,967.06l.27,3.609Z" transform="translate(-60.505 -716.228)" fill="#002152"/>
            <path id="Trazado_877881" data-name="Trazado 877881" d="M153.814,866.249l-23.86-7.03-1.277,3.725,25.291,5.367Z" transform="translate(-95.302 -636.359)" fill="#0c3879"/>
            <path id="Trazado_877882" data-name="Trazado 877882" d="M228.3,852.6l11.857-56.371L225.91,851.541l1.554,1.247" transform="translate(-167.314 -589.704)" fill="#002152"/>
            <path id="Trazado_877883" data-name="Trazado 877883" d="M38.248,970.666l-8.363-7.836-5.5.5,5.436,7.607Z" transform="translate(-18.062 -713.095)" fill="#002a69"/>
            <path id="Trazado_877884" data-name="Trazado 877884" d="M56.893,1029.266l-10.368.337-1.179-36.287,8.424-.274Z" transform="translate(-33.585 -735.471)" fill="#002152"/>
            <path id="Trazado_877885" data-name="Trazado 877885" d="M21.512,964.768l-1.007,28.9,7.622,15-1.179-36.287Z" transform="translate(-15.186 -714.531)" fill="#0c3879"/>
            <path id="Trazado_877886" data-name="Trazado 877886" d="M49.748,955.752l.353-9.093-1.63-.271-.991,9.438Z" transform="translate(-35.165 -700.918)" fill="#002a69"/>
            <path id="Trazado_877887" data-name="Trazado 877887" d="M66.1,1030.857l-3.362-33.621-.515,34.071,1.828-3.627Z" transform="translate(-46.081 -738.578)" fill="#0c3879"/>
            <path id="Trazado_877888" data-name="Trazado 877888" d="M318.336,605.968l7.078-42.432-5.96-.993-15.276,41.015s2.414,8.348,14.158,2.411" transform="translate(-225.281 -416.634)" fill="#002a69"/>
            <path id="Trazado_877889" data-name="Trazado 877889" d="M370.974,543.531v-6.1l4.2-1.353.968,1.214-1.936,6.776Z" transform="translate(-274.752 -397.034)" fill="#ffae9e"/>
            <path id="Trazado_877890" data-name="Trazado 877890" d="M329.626,548.892h0c-.714-.523-.485-2.05.512-3.411l13.637-18.612c1-1.36,2.384-2.039,3.1-1.516s.485,2.05-.512,3.411l-13.637,18.612c-1,1.36-2.384,2.039-3.1,1.516" transform="translate(-243.821 -388.959)" fill="#1e519e"/>
            <path id="Trazado_877891" data-name="Trazado 877891" d="M376.33,471.233c-4.384-3.9-4.544-11.2-.61-16.569,3.964-5.41,11.025-7.417,16.038-4.232,5.411,3.438,6.345,11.489,1.717,17.642-4.588,6.1-12.419,7.359-17.145,3.159" transform="translate(-276.178 -332.475)" fill="#1e519e"/>
            <g id="Grupo_1110560" data-name="Grupo 1110560" transform="translate(98.939 118.889)" opacity="0.66">
              <g id="Grupo_1110559" data-name="Grupo 1110559">
                <g id="Grupo_1110558" data-name="Grupo 1110558" clip-path="url(#clip-path-16)">
                  <path id="Trazado_877892" data-name="Trazado 877892" d="M397.707,473.493c-3.575,4.768-9.685,5.835-13.453,2.6-3.55-3.051-3.728-8.872-.562-13.182,3.185-4.336,8.814-5.869,12.761-3.266,4.193,2.765,4.852,9.051,1.253,13.852" transform="translate(-381.448 -458.368)" fill="#fff"/>
                </g>
              </g>
            </g>
            <g id="Grupo_1110563" data-name="Grupo 1110563" transform="translate(100.949 121.208)" style="mix-blend-mode: multiply;isolation: isolate">
              <g id="Grupo_1110562" data-name="Grupo 1110562">
                <g id="Grupo_1110561" data-name="Grupo 1110561" clip-path="url(#clip-path-17)">
                  <path id="Trazado_877893" data-name="Trazado 877893" d="M397.933,467.3s-9.9,4.213-8.366,12.122c0,0-3.045-11.249,8.366-12.122" transform="translate(-389.198 -467.306)" fill="#c4def0"/>
                </g>
              </g>
            </g>
            <path id="Trazado_877894" data-name="Trazado 877894" d="M378.168,545.431l-1.68-1.917-1.454.959.627,1.727s-1.641.431,0,3.376h1.473Z" transform="translate(-277.683 -402.54)" fill="#ffae9e"/>
          </g>
        </g>
      </g>
    </g>
  </g>
</svg>
